<svg xmlns="http://www.w3.org/2000/svg" width="1877.928" height="1080.572" viewBox="0 0 1877.928 1080.572">
  <path id="Back_ground_web" data-name="Back ground web" d="M1829.126,199.786c-11.141-28.145-22.894-150.589-133.448-164.275L1251.139,5.08Q1185.464,0,1119.555,0H758.374Q692.512,0,626.79,5.08L182.25,35.511C71.7,49.2,59.943,171.642,48.8,199.786c0,0-44.171,171.195-48.8,340.5,4.631,169.3,48.8,340.5,48.8,340.5C59.943,908.926,71.7,1031.371,182.25,1045.056l444.54,30.431q65.675,5.08,131.584,5.082h361.181q65.863,0,131.584-5.082l444.54-30.431c110.554-13.685,122.307-136.13,133.448-164.275,0,0,44.171-171.195,48.8-340.5-4.631-169.3-48.8-340.5-48.8-340.5" transform="translate(0 0.002)" fill="#fff"/>
</svg>
