<svg xmlns="http://www.w3.org/2000/svg" width="3041.892" height="1574.259" viewBox="-3 -3 3047 1580"><g id="deeditor_bgCarrier" stroke-width="0">
  <rect id="dee_c_e" x="-3" y="-3" width="3047" height="1580" rx="38.4" fill="#ffffff" strokewidth="0"/>
</g>
  <path id="Bg_01_web" data-name="Bg 01 web" d="M2962.842,291.065c-18.046-41-37.084-219.389-216.16-239.328L2026.611,7.4Q1920.229,0,1813.469,0H1228.423Q1121.74,0,1015.282,7.4L295.211,51.737C116.134,71.675,97.1,250.061,79.05,291.065c0,0-71.549,249.409-79.05,496.063,7.5,246.654,79.05,496.063,79.05,496.063,18.046,41,37.084,219.39,216.16,239.328l720.071,44.334q106.381,7.4,213.142,7.4h585.045q106.685,0,213.142-7.4l720.071-44.334c179.076-19.938,198.114-198.325,216.16-239.328,0,0,71.549-249.409,79.05-496.063-7.5-246.654-79.05-496.063-79.05-496.063" transform="translate(0 0.002)" fill="#6ca2fe"/>
</svg>