<svg xmlns="http://www.w3.org/2000/svg" width="235.023" height="174.021" viewBox="0 0 235.023 174.021">
  <g id="log_out" data-name="log out" transform="translate(0 -55)">
    <g id="freepik--background-complete--inject-88" transform="translate(0 55)">
      <rect id="Rectangle_1117" data-name="Rectangle 1117" width="15.568" height="0.118" transform="translate(195.906 161.456)" fill="#ebebeb"/>
      <rect id="Rectangle_1118" data-name="Rectangle 1118" width="4.085" height="0.118" transform="translate(151.604 162.735)" fill="#ebebeb"/>
      <rect id="Rectangle_1119" data-name="Rectangle 1119" width="9.02" height="0.118" transform="translate(186.416 157.094)" fill="#ebebeb"/>
      <rect id="Rectangle_1120" data-name="Rectangle 1120" width="20.301" height="0.118" transform="translate(24.659 157.884)" fill="#ebebeb"/>
      <rect id="Rectangle_1121" data-name="Rectangle 1121" width="2.975" height="0.118" transform="translate(49.148 157.884)" fill="#ebebeb"/>
      <rect id="Rectangle_1122" data-name="Rectangle 1122" width="44.034" height="0.118" transform="translate(61.797 159.867)" fill="#ebebeb"/>
      <path id="Path_1271" data-name="Path 1271" d="M131.65,187.929H40.894a2.684,2.684,0,0,1-2.684-2.684V57.66A2.684,2.684,0,0,1,40.894,55H131.65a2.684,2.684,0,0,1,2.684,2.684V185.245A2.684,2.684,0,0,1,131.65,187.929ZM40.894,55.094a2.571,2.571,0,0,0-2.566,2.566V185.245a2.571,2.571,0,0,0,2.566,2.566H131.65a2.571,2.571,0,0,0,2.566-2.566V57.66a2.571,2.571,0,0,0-2.566-2.566Z" transform="translate(-20.25 -55)" fill="#ebebeb"/>
      <path id="Path_1272" data-name="Path 1272" d="M347.95,187.929H257.184a2.689,2.689,0,0,1-2.684-2.684V57.66A2.689,2.689,0,0,1,257.184,55H347.95a2.684,2.684,0,0,1,2.675,2.66V185.245A2.684,2.684,0,0,1,347.95,187.929ZM257.184,55.094a2.571,2.571,0,0,0-2.566,2.566V185.245a2.571,2.571,0,0,0,2.566,2.566H347.95a2.571,2.571,0,0,0,2.566-2.566V57.66a2.571,2.571,0,0,0-2.566-2.566Z" transform="translate(-134.873 -55)" fill="#ebebeb"/>
      <rect id="Rectangle_1123" data-name="Rectangle 1123" width="235.023" height="0.118" transform="translate(0 153.893)" fill="#ebebeb"/>
      <circle id="Ellipse_79" data-name="Ellipse 79" cx="29.514" cy="29.514" r="29.514" transform="translate(53.55 43.251) rotate(-45)" fill="#f5f5f5"/>
      <circle id="Ellipse_80" data-name="Ellipse 80" cx="25.03" cy="25.03" r="25.03" transform="translate(70.258 18.224)" fill="#ebebeb"/>
      <path id="Path_1273" data-name="Path 1273" d="M174.5,93.77c.395,0,.785,0,1.175.028a25.025,25.025,0,0,0,0,50c-.39,0-.78.033-1.175.033a25.03,25.03,0,1,1,0-50.06Z" transform="translate(-79.212 -75.546)" fill="#e6e6e6"/>
      <path id="Path_1274" data-name="Path 1274" d="M175.815,143.829h0c-.635-.028-1.26-.089-1.88-.165V120.7h-21.89c-.042-.625-.075-1.25-.075-1.88s.033-1.26.075-1.88h21.9V93.995c.62-.075,1.246-.136,1.88-.165h1.88v23.112h23.122v3.76H177.705v23.126Z" transform="translate(-80.537 -75.578)" fill="#fafafa"/>
      <rect id="Rectangle_1124" data-name="Rectangle 1124" width="1.88" height="23.122" transform="translate(97.168 18.252)" fill="#e6e6e6"/>
      <rect id="Rectangle_1125" data-name="Rectangle 1125" width="1.88" height="23.122" transform="translate(97.168 45.134)" fill="#e6e6e6"/>
      <rect id="Rectangle_1126" data-name="Rectangle 1126" width="15.225" height="8.682" rx="4.341" transform="translate(52.875 73.854)" fill="#ebebeb"/>
      <rect id="Rectangle_1127" data-name="Rectangle 1127" width="15.225" height="8.682" rx="4.341" transform="translate(56.199 63.264)" fill="#f5f5f5"/>
      <rect id="Rectangle_1128" data-name="Rectangle 1128" width="12.574" height="8.682" rx="4.341" transform="translate(69.99 73.854)" fill="#f5f5f5"/>
      <rect id="Rectangle_1129" data-name="Rectangle 1129" width="12.574" height="8.682" rx="4.341" transform="translate(62.718 83.931)" fill="#f0f0f0"/>
      <rect id="Rectangle_1130" data-name="Rectangle 1130" width="13.288" height="11.06" rx="5.53" transform="translate(34.464 19.352)" fill="#ebebeb"/>
      <rect id="Rectangle_1131" data-name="Rectangle 1131" width="16.019" height="11.06" rx="5.53" transform="translate(50.159 19.352)" fill="#f5f5f5"/>
      <rect id="Rectangle_1132" data-name="Rectangle 1132" width="16.019" height="11.06" rx="5.53" transform="translate(45.124 32.193)" fill="#f0f0f0"/>
      <rect id="Rectangle_1133" data-name="Rectangle 1133" width="19.399" height="11.06" rx="5.53" transform="translate(164.145 44.307)" fill="#ebebeb"/>
      <rect id="Rectangle_1134" data-name="Rectangle 1134" width="16.019" height="11.06" rx="5.53" transform="translate(185.946 44.307)" fill="#f5f5f5"/>
      <rect id="Rectangle_1135" data-name="Rectangle 1135" width="16.019" height="11.06" rx="5.53" transform="translate(176.681 57.144)" fill="#f0f0f0"/>
      <rect id="Rectangle_1136" data-name="Rectangle 1136" width="16.019" height="11.06" rx="5.53" transform="translate(183.835 30.205)" fill="#f0f0f0"/>
    </g>
    <g id="freepik--Shadow--inject-88" transform="translate(33.505 218.379)">
      <ellipse id="freepik--path--inject-88" cx="91.137" cy="5.321" rx="91.137" ry="5.321" fill="#f5f5f5"/>
    </g>
    <g id="freepik--Shelf--inject-88" transform="translate(25.566 198.134)">
      <path id="Path_1275" data-name="Path 1275" d="M86.4,371.07H69.9v3.652h3.022A17.519,17.519,0,0,0,86.4,388.18V391.2h6.426V371.07Z" transform="translate(-62.61 -365.636)" fill="#263238"/>
      <path id="Path_1276" data-name="Path 1276" d="M86.4,371.07H69.9v3.652h3.022A17.519,17.519,0,0,0,86.4,388.18V391.2h6.426V371.07Z" transform="translate(-62.61 -365.636)" fill="#fff" opacity="0.7"/>
      <path id="Path_1277" data-name="Path 1277" d="M95.05,371.07H78.57v3.652h3.022A17.509,17.509,0,0,0,95.05,388.18V391.2H98.7V371.07Z" transform="translate(-67.204 -365.636)" fill="#263238"/>
      <path id="Path_1278" data-name="Path 1278" d="M95.05,371.07H78.57v3.652h3.022A17.509,17.509,0,0,0,95.05,388.18V391.2H98.7V371.07Z" transform="translate(-67.204 -365.636)" fill="#fff" opacity="0.6"/>
      <path id="Path_1279" data-name="Path 1279" d="M400.25,371.07H383.77v3.652h3.022A17.514,17.514,0,0,0,400.25,388.18V391.2h6.43V371.07Z" transform="translate(-228.946 -365.636)" fill="#263238"/>
      <path id="Path_1280" data-name="Path 1280" d="M400.25,371.07H383.77v3.652h3.022A17.514,17.514,0,0,0,400.25,388.18V391.2h6.43V371.07Z" transform="translate(-228.946 -365.636)" fill="#fff" opacity="0.7"/>
      <path id="Path_1281" data-name="Path 1281" d="M408.92,371.07H392.44v3.652h3.022A17.509,17.509,0,0,0,408.92,388.18V391.2h3.652V371.07Z" transform="translate(-233.541 -365.636)" fill="#263238"/>
      <path id="Path_1282" data-name="Path 1282" d="M408.92,371.07H392.44v3.652h3.022A17.509,17.509,0,0,0,408.92,388.18V391.2h3.652V371.07Z" transform="translate(-233.541 -365.636)" fill="#fff" opacity="0.6"/>
      <rect id="Rectangle_1137" data-name="Rectangle 1137" width="179.031" height="5.955" fill="#263238"/>
      <rect id="Rectangle_1138" data-name="Rectangle 1138" width="179.031" height="5.955" fill="#fff" opacity="0.8"/>
      <rect id="Rectangle_1139" data-name="Rectangle 1139" width="33.152" height="5.955" transform="translate(145.879)" opacity="0.1"/>
    </g>
    <g id="freepik--box-drawer--inject-88" transform="translate(135.317 138.659)">
      <rect id="Rectangle_1140" data-name="Rectangle 1140" width="63.898" height="59.513" fill="#263238"/>
      <rect id="Rectangle_1141" data-name="Rectangle 1141" width="42.295" height="59.513" fill="#fff" opacity="0.2"/>
      <rect id="Rectangle_1142" data-name="Rectangle 1142" width="63.898" height="59.513" fill="#fff" opacity="0.6"/>
      <rect id="Rectangle_1143" data-name="Rectangle 1143" width="33.105" height="14.821" transform="translate(4.597 4.592)" fill="#263238"/>
      <rect id="Rectangle_1144" data-name="Rectangle 1144" width="33.105" height="14.821" transform="translate(4.597 4.592)" fill="#fff" opacity="0.5"/>
      <g id="Group_583" data-name="Group 583" transform="translate(6.125 6.12)" opacity="0.4">
        <path id="Path_1283" data-name="Path 1283" d="M329.155,257.751H302.72V257.4a1.457,1.457,0,0,0-1.457-1.462h-.353v-8.122h.353a1.457,1.457,0,0,0,1.457-1.462V246h26.435v.353a1.462,1.462,0,0,0,1.462,1.462h.353v8.141h-.353a1.462,1.462,0,0,0-1.462,1.462Zm-25.749-.705h25.072a2.176,2.176,0,0,1,1.786-1.786v-6.769a2.176,2.176,0,0,1-1.786-1.786H303.4a2.172,2.172,0,0,1-1.781,1.786v6.787a2.172,2.172,0,0,1,1.781,1.786Z" transform="translate(-300.91 -246)" fill="#fff"/>
      </g>
      <path id="Path_1284" data-name="Path 1284" d="M329.134,254.793h-2.651a2.181,2.181,0,0,1-2.176-2.176v-.6h-.282a.705.705,0,0,1-.705-.705h0a.705.705,0,0,1,.705-.705h.663a1.029,1.029,0,0,1,1.029,1.034v.973a.766.766,0,0,0,.766.766h2.651a.766.766,0,0,0,.766-.766v-.973a1.034,1.034,0,0,1,1.034-1.034h.658a.705.705,0,0,1,.705.705h0a.705.705,0,0,1-.705.705h-.282v.6A2.176,2.176,0,0,1,329.134,254.793Z" transform="translate(-306.662 -242.323)" fill="#263238"/>
      <rect id="Rectangle_1145" data-name="Rectangle 1145" width="33.105" height="14.821" transform="translate(4.597 22.059)" fill="#263238"/>
      <rect id="Rectangle_1146" data-name="Rectangle 1146" width="33.105" height="14.821" transform="translate(4.597 22.059)" fill="#fff" opacity="0.5"/>
      <g id="Group_584" data-name="Group 584" transform="translate(6.125 23.582)" opacity="0.4">
        <path id="Path_1285" data-name="Path 1285" d="M329.155,294.92H302.72v-.353a1.462,1.462,0,0,0-1.457-1.462h-.353V284.96h.353a1.457,1.457,0,0,0,1.457-1.457v-.353h26.435v.353a1.457,1.457,0,0,0,1.462,1.457h.353V293.1h-.353a1.462,1.462,0,0,0-1.462,1.462Zm-25.749-.705h25.072a2.176,2.176,0,0,1,1.786-1.786v-6.787a2.172,2.172,0,0,1-1.786-1.781H303.4a2.167,2.167,0,0,1-1.781,1.781v6.787a2.172,2.172,0,0,1,1.781,1.786Z" transform="translate(-300.91 -283.15)" fill="#fff"/>
      </g>
      <path id="Path_1286" data-name="Path 1286" d="M329.134,291.943h-2.651a2.176,2.176,0,0,1-2.176-2.176v-.6h-.282a.705.705,0,0,1-.705-.705h0a.705.705,0,0,1,.705-.705h.663a1.034,1.034,0,0,1,1.029,1.034v.959a.766.766,0,0,0,.766.766h2.651a.766.766,0,0,0,.766-.766v-.94a1.039,1.039,0,0,1,1.034-1.034h.658a.705.705,0,0,1,.705.705h0a.705.705,0,0,1-.705.705h-.282v.564a2.176,2.176,0,0,1-2.176,2.19Z" transform="translate(-306.662 -262.011)" fill="#263238"/>
      <rect id="Rectangle_1147" data-name="Rectangle 1147" width="33.105" height="14.821" transform="translate(4.597 39.521)" fill="#263238"/>
      <rect id="Rectangle_1148" data-name="Rectangle 1148" width="33.105" height="14.821" transform="translate(4.597 39.521)" fill="#fff" opacity="0.5"/>
      <g id="Group_585" data-name="Group 585" transform="translate(6.125 41.049)" opacity="0.4">
        <path id="Path_1287" data-name="Path 1287" d="M329.155,332.075H302.72v-.353a1.457,1.457,0,0,0-1.457-1.457h-.353v-8.141h.353a1.462,1.462,0,0,0,1.457-1.462v-.353h26.435v.353a1.462,1.462,0,0,0,1.462,1.462h.353v8.141h-.353a1.457,1.457,0,0,0-1.462,1.457Zm-25.749-.705h25.072a2.172,2.172,0,0,1,1.786-1.781V322.8a2.176,2.176,0,0,1-1.786-1.786H303.4a2.172,2.172,0,0,1-1.781,1.786v6.788a2.167,2.167,0,0,1,1.781,1.781Z" transform="translate(-300.91 -320.31)" fill="#fff"/>
      </g>
      <path id="Path_1288" data-name="Path 1288" d="M329.134,329.1h-2.651a2.181,2.181,0,0,1-2.176-2.181v-.592h-.282a.705.705,0,0,1-.705-.705h0a.705.705,0,0,1,.705-.705h.663a1.029,1.029,0,0,1,1.029,1.029v.973a.771.771,0,0,0,.766.771h2.651a.771.771,0,0,0,.766-.771v-.973a1.034,1.034,0,0,1,1.034-1.029h.658a.705.705,0,0,1,.705.705h0a.705.705,0,0,1-.705.705h-.282v.592a2.176,2.176,0,0,1-2.176,2.181Z" transform="translate(-306.662 -281.704)" fill="#263238"/>
    </g>
    <g id="freepik--Clock--inject-88" transform="translate(170.979 121.079)">
      <path id="Path_1289" data-name="Path 1289" d="M373.438,195.58a10.734,10.734,0,0,1,10.144,8.621l1.57,8.931H367.915L366.34,204.2Z" transform="translate(-365.123 -195.58)" fill="#4680e3"/>
      <path id="Path_1290" data-name="Path 1290" d="M363.75,204.2a8.621,8.621,0,1,1,17.241,0v8.931H363.75Z" transform="translate(-363.75 -195.58)" fill="#4680e3"/>
      <path id="Path_1291" data-name="Path 1291" d="M363.75,204.2a8.621,8.621,0,1,1,17.241,0v8.931H363.75Z" transform="translate(-363.75 -195.58)" fill="#fff" opacity="0.4"/>
      <circle id="Ellipse_81" data-name="Ellipse 81" cx="6.736" cy="6.736" r="6.736" transform="translate(0.508 13.623) rotate(-76.72)" fill="#263238"/>
      <circle id="Ellipse_82" data-name="Ellipse 82" cx="6.736" cy="6.736" r="6.736" transform="translate(0.508 13.623) rotate(-76.72)" fill="#4680e3"/>
      <path id="Path_1292" data-name="Path 1292" d="M374.5,200.657a6.731,6.731,0,0,1,6.708,6.2c0-.174.028-.353.028-.531a6.736,6.736,0,1,0-13.471,0,3.325,3.325,0,0,0,.028.531A6.731,6.731,0,0,1,374.5,200.657Z" transform="translate(-365.875 -197.705)" opacity="0.2"/>
      <path id="Path_1293" data-name="Path 1293" d="M385.56,209.244H382.02V205.7a.714.714,0,0,0-1.41,0v4.254a.714.714,0,0,0,.714.714h4.254a.714.714,0,0,0,0-1.41Z" transform="translate(-372.685 -200.628)" opacity="0.1"/>
      <path id="Path_1294" data-name="Path 1294" d="M385.408,213.84a.714.714,0,0,0,0-1.41h-4.254a.714.714,0,1,0,0,1.41Z" transform="translate(-372.534 -204.504)" fill="#4680e3"/>
      <path id="Path_1295" data-name="Path 1295" d="M385.408,213.84a.714.714,0,0,0,0-1.41h-4.254a.714.714,0,1,0,0,1.41Z" transform="translate(-372.534 -204.504)" fill="#fff" opacity="0.3"/>
      <path id="Path_1296" data-name="Path 1296" d="M382.02,204.195a.714.714,0,0,0-1.41,0v4.23a.714.714,0,0,0,1.41,0Z" transform="translate(-372.685 -199.828)" fill="#4680e3"/>
      <path id="Path_1297" data-name="Path 1297" d="M382.02,204.195a.714.714,0,0,0-1.41,0v4.23a.714.714,0,0,0,1.41,0Z" transform="translate(-372.685 -199.828)" fill="#fff" opacity="0.6"/>
    </g>
    <g id="freepik--Books--inject-88" transform="translate(31.165 172.302)">
      <path id="Path_1298" data-name="Path 1298" d="M148.045,341.525v-10.5a1,1,0,0,0,0-2.007c-4,0-7.991-.028-12-.052v14.571h12A1.009,1.009,0,0,0,148.045,341.525Z" transform="translate(-103.26 -317.493)" fill="#263238"/>
      <path id="Path_1299" data-name="Path 1299" d="M148.045,341.525v-10.5a1,1,0,0,0,0-2.007c-4,0-7.991-.028-12-.052v14.571h12A1.009,1.009,0,0,0,148.045,341.525Z" transform="translate(-103.26 -317.493)" fill="#fff" opacity="0.3"/>
      <rect id="Rectangle_1149" data-name="Rectangle 1149" width="9.326" height="10.477" transform="translate(35.459 13.536)" fill="#4680e3"/>
      <rect id="Rectangle_1150" data-name="Rectangle 1150" width="9.326" height="10.477" transform="translate(35.459 13.536)" fill="#fff" opacity="0.8"/>
      <path id="Path_1300" data-name="Path 1300" d="M104.929,343.713H72.6c-2.223,0-4.024-2.8-4.024-6.252s1.8-6.252,4.024-6.252h32.325Z" transform="translate(-67.509 -318.68)" fill="#4680e3"/>
      <path id="Path_1301" data-name="Path 1301" d="M104.929,343.713H72.6c-2.223,0-4.024-2.8-4.024-6.252s1.8-6.252,4.024-6.252h32.325Z" transform="translate(-67.509 -318.68)" fill="#fff" opacity="0.9"/>
      <path id="Path_1302" data-name="Path 1302" d="M103.721,328.983c-10.585,0-21.185-.193-31.766,0-7.248.132-7.638,14.021-.526,14.51,4.954.338,10.05,0,15.041,0h17.274a1,1,0,0,0,0-2.007H73.662c-2.322,0-3.981-.028-4.879-2.769-.776-2.35-.531-7.2,2.646-7.728a6.983,6.983,0,0,1,1.086,0h31.239a1,1,0,0,0,0-2.007Z" transform="translate(-66.302 -317.455)" fill="#263238"/>
      <path id="Path_1303" data-name="Path 1303" d="M146.275,314.627v-8.372a.8.8,0,0,0,0-1.6c-3.187,0-6.383-.023-9.575-.042v11.62h9.575a.8.8,0,0,0,0-1.6Z" transform="translate(-103.61 -304.583)" fill="#4680e3"/>
      <path id="Path_1304" data-name="Path 1304" d="M146.275,314.627v-8.372a.8.8,0,0,0,0-1.6c-3.187,0-6.383-.023-9.575-.042v11.62h9.575a.8.8,0,0,0,0-1.6Z" transform="translate(-103.61 -304.583)" fill="#fff" opacity="0.3"/>
      <rect id="Rectangle_1151" data-name="Rectangle 1151" width="7.441" height="8.362" transform="translate(35.229 1.672)" fill="#4680e3"/>
      <rect id="Rectangle_1152" data-name="Rectangle 1152" width="7.441" height="8.362" transform="translate(35.229 1.672)" fill="#fff" opacity="0.8"/>
      <path id="Path_1305" data-name="Path 1305" d="M111.872,316.374H86.08c-1.772,0-3.21-2.233-3.21-4.987s1.438-4.987,3.21-4.987h25.791Z" transform="translate(-75.082 -305.532)" fill="#4680e3"/>
      <path id="Path_1306" data-name="Path 1306" d="M111.872,316.374H86.08c-1.772,0-3.21-2.233-3.21-4.987s1.438-4.987,3.21-4.987h25.791Z" transform="translate(-75.082 -305.532)" fill="#fff" opacity="0.9"/>
      <path id="Path_1307" data-name="Path 1307" d="M110.9,304.622c-8.461,0-16.922-.155-25.345,0-5.782.1-6.111,11.187-.418,11.577,3.953.268,8.019,0,11.981,0H110.9a.8.8,0,0,0,0-1.6H86.893c-1.852,0-3.178-.023-3.892-2.209-.62-1.88-.423-5.749,2.111-6.162a5.372,5.372,0,0,1,.87,0h24.912a.8.8,0,0,0,0-1.6Z" transform="translate(-74.113 -304.553)" fill="#4680e3"/>
    </g>
    <g id="freepik--Mug--inject-88" transform="translate(45.712 157)">
      <path id="Path_1308" data-name="Path 1308" d="M121.815,274.35a2.4,2.4,0,0,0-2.393-2.35H105.147a2.4,2.4,0,0,0-2.393,2.35v.174a5.208,5.208,0,0,0-1.589-.263c-2.35,0-3.915,1.828-3.915,4.55,0,2.6,2.736,4.545,5.171,4.545a3.818,3.818,0,0,0,.738-.075,9.96,9.96,0,0,0,3.008,4.5h12.221a9.871,9.871,0,0,0,3.5-7.554C121.89,279.276,121.862,277.062,121.815,274.35Zm-19.38,7.483c-1.659,0-3.662-1.349-3.662-3.022,0-.71.174-3.027,2.393-3.027a3.925,3.925,0,0,1,1.561.357c-.028,1.88-.047,3.361-.047,4.085a9.674,9.674,0,0,0,.141,1.579,2.516,2.516,0,0,1-.385.023Z" transform="translate(-97.25 -272)" fill="#4680e3"/>
      <path id="Path_1309" data-name="Path 1309" d="M121.815,274.35a2.4,2.4,0,0,0-2.393-2.35H105.147a2.4,2.4,0,0,0-2.393,2.35v.174a5.208,5.208,0,0,0-1.589-.263c-2.35,0-3.915,1.828-3.915,4.55,0,2.6,2.736,4.545,5.171,4.545a3.818,3.818,0,0,0,.738-.075,9.96,9.96,0,0,0,3.008,4.5h12.221a9.871,9.871,0,0,0,3.5-7.554C121.89,279.276,121.862,277.062,121.815,274.35Zm-19.38,7.483c-1.659,0-3.662-1.349-3.662-3.022,0-.71.174-3.027,2.393-3.027a3.925,3.925,0,0,1,1.561.357c-.028,1.88-.047,3.361-.047,4.085a9.674,9.674,0,0,0,.141,1.579,2.516,2.516,0,0,1-.385.023Z" transform="translate(-97.25 -272)" opacity="0.2"/>
      <path id="Path_1310" data-name="Path 1310" d="M128.148,280.8l-1.791-3.972-1.128,2.515a4.472,4.472,0,0,0-1.227,0l-1.133-2.515-1.791,3.972a3.361,3.361,0,0,0-.888,2.242c0,2.064,1.984,3.737,4.423,3.737s4.423-1.673,4.423-3.737A3.361,3.361,0,0,0,128.148,280.8Zm-5.5,1.556c0-.306.179-.55.4-.55s.409.244.409.55-.183.555-.409.555S122.648,282.663,122.648,282.358Zm2.59,2.153a.94.94,0,0,1-.625-.244.912.912,0,0,1-.62.244.94.94,0,0,1-.94-.94h.39a.536.536,0,0,0,1,.282l.165-.268.169.268a.536.536,0,0,0,.992-.282h.395a.94.94,0,0,1-.921.94Zm.94-1.6c-.226,0-.4-.249-.4-.555s.179-.55.4-.55.409.244.409.55-.188.555-.414.555Z" transform="translate(-109.407 -274.56)" fill="#fff" opacity="0.9"/>
    </g>
    <g id="freepik--Vase--inject-88" transform="translate(142.38 67.945)">
      <path id="Path_1311" data-name="Path 1311" d="M321.7,162.326c1.88-5.814,5.42-14.369,11.248-19.639l-18.426-5.608c1.908,7.624.089,16.71-1.593,22.562-4.052,1.156-7.8,5.086-9.439,10.459-2.275,7.478,2.449,8.212,8.033,9.909s9.918,3.718,12.193-3.76C325.348,170.886,324.422,165.541,321.7,162.326Z" transform="translate(-302.907 -111.444)" fill="#4680e3"/>
      <path id="Path_1312" data-name="Path 1312" d="M321.7,162.326c1.88-5.814,5.42-14.369,11.248-19.639l-18.426-5.608c1.908,7.624.089,16.71-1.593,22.562-4.052,1.156-7.8,5.086-9.439,10.459-2.275,7.478,2.449,8.212,8.033,9.909s9.918,3.718,12.193-3.76C325.348,170.886,324.422,165.541,321.7,162.326Z" transform="translate(-302.907 -111.444)" fill="#fff" opacity="0.5"/>
      <path id="Path_1313" data-name="Path 1313" d="M323.952,176.468c1.434-4.7.747-9.674-1.744-12.621l-.508-.6.24-.747c1.73-5.373,6.111-14.261,10.811-19.742l-14.9-4.531c.86,7.182-.47,17.006-2.007,22.431l-.212.752-.757.216c-3.713,1.058-7.051,4.79-8.461,9.514-.649,2.139-.7,3.68-.136,4.7.832,1.542,3.22,2.247,5.984,3.06.818.24,1.678.5,2.491.757,2.75.865,5.128,1.608,6.675.794C322.476,179.914,323.3,178.607,323.952,176.468Z" transform="translate(-304.491 -112.053)" fill="#fff" opacity="0.4"/>
      <path id="Path_1314" data-name="Path 1314" d="M322.23,183.174l-.508-.6.24-.747a57.114,57.114,0,0,1,2.646-6.52,3.843,3.843,0,0,1-3.619-.15c-1.452-.987-3.229-.16-4.066.343-.315,1.678-.663,3.21-1.034,4.489l-.212.752-.757.216c-3.713,1.058-7.051,4.79-8.461,9.514-.649,2.139-.7,3.68-.136,4.7.832,1.542,3.22,2.247,5.984,3.06.818.24,1.678.5,2.491.757,2.75.865,5.128,1.608,6.675.794q1.558-.825,2.515-4C325.407,191.075,324.721,186.121,322.23,183.174Z" transform="translate(-304.512 -131.38)" fill="#4680e3"/>
      <path id="Path_1315" data-name="Path 1315" d="M322.23,183.174l-.508-.6.24-.747a57.114,57.114,0,0,1,2.646-6.52,3.843,3.843,0,0,1-3.619-.15c-1.452-.987-3.229-.16-4.066.343-.315,1.678-.663,3.21-1.034,4.489l-.212.752-.757.216c-3.713,1.058-7.051,4.79-8.461,9.514-.649,2.139-.7,3.68-.136,4.7.832,1.542,3.22,2.247,5.984,3.06.818.24,1.678.5,2.491.757,2.75.865,5.128,1.608,6.675.794q1.558-.825,2.515-4C325.407,191.075,324.721,186.121,322.23,183.174Z" transform="translate(-304.512 -131.38)" fill="#fff" opacity="0.3"/>
      <path id="Path_1316" data-name="Path 1316" d="M330.51,163.935a47.545,47.545,0,0,0,1.908-13.016C332.385,144.029,337.293,153.472,330.51,163.935Z" transform="translate(-317.535 -117.532)" fill="#fff" opacity="0.5"/>
      <path id="Path_1317" data-name="Path 1317" d="M335.584,143.311c-.038.423-1.067,1.232-1.452-.907S335.621,142.883,335.584,143.311Z" transform="translate(-319.427 -113.825)" fill="#fff" opacity="0.5"/>
      <g id="Group_586" data-name="Group 586" transform="translate(2.651 57.402)" opacity="0.2">
        <path id="Path_1318" data-name="Path 1318" d="M310.7,215.023a.79.79,0,0,0-1.109,1.1c.639.8,1.9,1.683,4.32,2.416,6.369,1.937,8.992,3.055,10.811-1.053C326.42,213.608,319.247,221.712,310.7,215.023Z" transform="translate(-309.017 -210.069)"/>
        <path id="Path_1319" data-name="Path 1319" d="M309.037,207.941c-.653-.306-.771-.94.381-2.867S310.495,208.623,309.037,207.941Z" transform="translate(-308.547 -204.661)"/>
      </g>
      <path id="Path_1320" data-name="Path 1320" d="M324.531,161a164.135,164.135,0,0,1,6.181-17.208c4.484-10.811,9.923-21.74,17.862-30.487.244-.263-.136-.682-.381-.414-7.742,8.541-13.1,19.1-17.552,29.646a164.724,164.724,0,0,0-6.656,18.3.283.283,0,0,0,.541.165Z" transform="translate(-314.071 -98.58)" fill="#4680e3"/>
      <g id="Group_587" data-name="Group 587" transform="translate(9.902 14.226)" opacity="0.3">
        <path id="Path_1321" data-name="Path 1321" d="M324.531,161a164.135,164.135,0,0,1,6.181-17.208c4.484-10.811,9.923-21.74,17.862-30.487.244-.263-.136-.682-.381-.414-7.742,8.541-13.1,19.1-17.552,29.646a164.724,164.724,0,0,0-6.656,18.3.283.283,0,0,0,.541.165Z" transform="translate(-323.974 -112.807)" fill="#fff"/>
      </g>
      <path id="Path_1322" data-name="Path 1322" d="M371.636,105.52s-3.535-.259-2.2,1.542,3.055-.625,3.055-.625-.555,3.431,1.462,3.8.146-3.972.146-3.972,2.581,3.079,3.633,1.518-3.516-3.116-3.516-3.116,4.484.47,3.356-.94-4.7-.2-4.7-.2,1.358-2.863-.884-3.29-.508,3.29-.508,3.29-2.623-2.679-3.685-1.612S371.636,105.52,371.636,105.52Z" transform="translate(-337.217 -91.903)" fill="#4680e3"/>
      <path id="Path_1323" data-name="Path 1323" d="M355.62,128.834s2.75-3.732,2.134-10.064S355.62,128.834,355.62,128.834Z" transform="translate(-330.842 -100.97)" fill="#4680e3"/>
      <path id="Path_1324" data-name="Path 1324" d="M362.3,128.136s3.958-4.056,6.111-1.918S365.12,126.256,362.3,128.136Z" transform="translate(-334.383 -105.358)" fill="#4680e3"/>
      <path id="Path_1325" data-name="Path 1325" d="M378.319,109.642c-.273.259-.9.033-1.41-.5s-.686-1.17-.414-1.41.9-.033,1.41.5S378.592,109.388,378.319,109.642Z" transform="translate(-341.838 -95.837)" fill="#fff" opacity="0.6"/>
      <path id="Path_1326" data-name="Path 1326" d="M328.2,147.371a164.429,164.429,0,0,0,4.451-17.735c2.3-11.488,3.864-23.582,2.148-35.253-.052-.357.494-.47.545-.132,1.678,11.4.244,23.159-1.927,34.4a164.239,164.239,0,0,1-4.7,18.891.282.282,0,0,1-.536-.165Z" transform="translate(-316.3 -88.639)" fill="#4680e3"/>
      <g id="Group_588" data-name="Group 588" transform="translate(11.879 5.409)" opacity="0.3">
        <path id="Path_1327" data-name="Path 1327" d="M328.2,147.371a164.429,164.429,0,0,0,4.451-17.735c2.3-11.488,3.864-23.582,2.148-35.253-.052-.357.494-.47.545-.132,1.678,11.4.244,23.159-1.927,34.4a164.239,164.239,0,0,1-4.7,18.891.282.282,0,0,1-.536-.165Z" transform="translate(-328.18 -94.048)" fill="#fff"/>
      </g>
      <path id="Path_1328" data-name="Path 1328" d="M336.577,87.4s3.079,1.753.968,2.505-2.19-2.223-2.19-2.223-1.452,3.159-3.333,2.35,2.092-3.375,2.092-3.375-3.864,1.119-3.864-.766,4.653-.63,4.653-.63-3.981-2.111-2.261-2.651,4,2.444,4,2.444.47-3.135,2.566-2.247-1.41,3.008-1.41,3.008,3.671-.766,3.958.714S336.577,87.4,336.577,87.4Z" transform="translate(-317.398 -82.541)" fill="#4680e3"/>
      <path id="Path_1329" data-name="Path 1329" d="M336.577,87.4s3.079,1.753.968,2.505-2.19-2.223-2.19-2.223-1.452,3.159-3.333,2.35,2.092-3.375,2.092-3.375-3.864,1.119-3.864-.766,4.653-.63,4.653-.63-3.981-2.111-2.261-2.651,4,2.444,4,2.444.47-3.135,2.566-2.247-1.41,3.008-1.41,3.008,3.671-.766,3.958.714S336.577,87.4,336.577,87.4Z" transform="translate(-317.398 -82.541)" fill="#fff" opacity="0.5"/>
      <path id="Path_1330" data-name="Path 1330" d="M343.858,117.559s-.2-4.635,3.831-9.547S343.858,117.559,343.858,117.559Z" transform="translate(-324.608 -95.5)" fill="#4680e3"/>
      <path id="Path_1331" data-name="Path 1331" d="M338.831,111.091s-1.029-5.57-4.024-5.006S337.557,107.927,338.831,111.091Z" transform="translate(-319.36 -94.997)" fill="#4680e3"/>
      <path id="Path_1332" data-name="Path 1332" d="M339.83,89.633c.085.367.729.526,1.443.362s1.217-.6,1.133-.94-.729-.526-1.438-.357S339.745,89.276,339.83,89.633Z" transform="translate(-322.469 -85.77)" fill="#4680e3"/>
      <path id="Path_1333" data-name="Path 1333" d="M373.075,145.441a.353.353,0,0,1,.672-.188,3.85,3.85,0,0,1-.2,3.53,21.261,21.261,0,0,1-1.636,2.529.244.244,0,0,1-.409-.263A10.737,10.737,0,0,0,373.075,145.441Z" transform="translate(-339.244 -115.664)" fill="#4680e3"/>
      <path id="Path_1334" data-name="Path 1334" d="M370.613,161.214a20.063,20.063,0,0,0,3.76-3.8.324.324,0,0,1,.573.287,6.852,6.852,0,0,1-3.972,4.118.362.362,0,0,1-.362-.606Z" transform="translate(-338.728 -122.148)" fill="#4680e3"/>
    </g>
    <g id="freepik--Cat--inject-88" transform="translate(56.633 111.656)">
      <path id="Path_1335" data-name="Path 1335" d="M243.37,195.855s2.585.846,5.744-2.162,9.476-9.758,12.061-10.764,5.029-4.451,7.182-5.312,1.753.432,1.753.432,2.707-1.043,2.266,1.006c0,0,1.387.573.047,1.72s-5.932,4.738-7.521,5.025c0,0-6.035,7.756-9.194,11.493s-5.786,4.442-5.763,12.63S243.37,195.855,243.37,195.855Z" transform="translate(-185.608 -176.481)" fill="#4680e3"/>
      <path id="Path_1336" data-name="Path 1336" d="M245.71,216.53a4.409,4.409,0,0,1-2.35.1s6.6,22.257,6.581,14.068c0-6.27,1.523-8.155,3.662-10.374C249.809,223.176,246.655,218.246,245.71,216.53Z" transform="translate(-185.603 -197.259)" opacity="0.2"/>
      <path id="Path_1337" data-name="Path 1337" d="M289.95,179.045c.442-2.049-2.266-1.006-2.266-1.006s.4-1.293-1.753-.432-4.6,4.31-7.182,5.312a9.829,9.829,0,0,0-2.219,1.438c.254,1.758,1.189,4.009,4.367,3.469l1.589-2.035c1.579-.287,6.172-3.873,7.521-5.025S289.95,179.045,289.95,179.045Z" transform="translate(-203.181 -176.475)" fill="#fff" opacity="0.4"/>
      <path id="Path_1338" data-name="Path 1338" d="M305.19,181.7s.94-.55,1.373-.08a1.8,1.8,0,0,0-1.185.592Z" transform="translate(-218.37 -178.656)" fill="#4680e3"/>
      <path id="Path_1339" data-name="Path 1339" d="M302.7,178.059a1.8,1.8,0,0,1,2.181-.71,1.636,1.636,0,0,0-1.495,1.321Z" transform="translate(-217.05 -176.429)" fill="#4680e3"/>
      <path id="Path_1340" data-name="Path 1340" d="M298.28,176.65s.569-1.41,1.659-1.062a1.41,1.41,0,0,0-1.011,1.321Z" transform="translate(-214.708 -175.533)" fill="#4680e3"/>
      <g id="Group_589" data-name="Group 589" transform="translate(83.572)" opacity="0.6">
        <path id="Path_1341" data-name="Path 1341" d="M305.19,181.7s.94-.55,1.373-.08a1.8,1.8,0,0,0-1.185.592Z" transform="translate(-301.942 -178.656)" fill="#fff"/>
        <path id="Path_1342" data-name="Path 1342" d="M302.7,178.059a1.8,1.8,0,0,1,2.181-.71,1.636,1.636,0,0,0-1.495,1.321Z" transform="translate(-300.622 -176.429)" fill="#fff"/>
        <path id="Path_1343" data-name="Path 1343" d="M298.28,176.65s.569-1.41,1.659-1.062a1.41,1.41,0,0,0-1.011,1.321Z" transform="translate(-298.28 -175.533)" fill="#fff"/>
      </g>
      <path id="Path_1344" data-name="Path 1344" d="M298.7,181.649a4.355,4.355,0,0,0-2.754,1.41C295.974,183.059,296.129,180.864,298.7,181.649Z" transform="translate(-213.473 -178.684)" opacity="0.2"/>
      <path id="Path_1345" data-name="Path 1345" d="M154,319.3s.71,11.055-9.279,11.643-17.707,3.525-18.8-6.463c-1.26-11.474-6.346-4.762-5.288,2.792s4.935,10.017,14.571,10.369,20.024-1.41,20.879-7.817Z" transform="translate(-120.484 -251.206)" fill="#4680e3"/>
      <path id="Path_1346" data-name="Path 1346" d="M125.768,323.114c-1.283-8.108-4.827-4.6-5.208,1.091a6.548,6.548,0,0,1,5.208-1.091Z" transform="translate(-120.524 -251.217)" fill="#fff" opacity="0.3"/>
      <path id="Path_1347" data-name="Path 1347" d="M126.074,331.86a7.992,7.992,0,0,0-5.344,2.35.712.712,0,0,0,.028.244,18.838,18.838,0,0,0,.583,2.769,6.382,6.382,0,0,1,5.171-3.206A13.394,13.394,0,0,1,126.074,331.86Z" transform="translate(-120.615 -258.379)" fill="#fff" opacity="0.3"/>
      <g id="Group_590" data-name="Group 590" transform="translate(4.288 77.307)" opacity="0.3">
        <path id="Path_1348" data-name="Path 1348" d="M134.685,343.917a5.528,5.528,0,0,1-2.04-1.457A6.346,6.346,0,0,0,129.613,348a11.032,11.032,0,0,0,2.684,1.293A7.793,7.793,0,0,1,134.685,343.917Z" transform="translate(-129.607 -341.304)" fill="#fff"/>
        <path id="Path_1349" data-name="Path 1349" d="M151.084,352.737a14.4,14.4,0,0,1-.263-6.007c-1.043.085-2.031.132-2.952.118a9.734,9.734,0,0,0-.47,5.739c.625.047,1.269.085,1.946.108C149.909,352.718,150.5,352.732,151.084,352.737Z" transform="translate(-138.913 -343.567)" fill="#fff"/>
        <path id="Path_1350" data-name="Path 1350" d="M181.773,340a8.348,8.348,0,0,1-2.783,1.749c.724,1.49,1.88,3.159,3.478,3.112C184.734,344.813,182.755,342.322,181.773,340Z" transform="translate(-155.778 -340)" fill="#fff"/>
        <path id="Path_1351" data-name="Path 1351" d="M165.99,350.569c1.485-.047,1-3.074.785-5.279-1.076.075-2.12.174-3.135.277C163.866,347.4,164.477,350.616,165.99,350.569Z" transform="translate(-147.643 -342.803)" fill="#fff"/>
      </g>
      <path id="Path_1352" data-name="Path 1352" d="M187.22,336.2c2.35-1.227,3.915-2.938,4.23-5.265l-2.082-10.524a14.839,14.839,0,0,1-1.156,6.233,22.685,22.685,0,0,0,.813,5.424C189.551,333.929,188.47,335.287,187.22,336.2Z" transform="translate(-155.851 -252.311)" opacity="0.1"/>
      <path id="Path_1353" data-name="Path 1353" d="M204.339,290.087s12.691-4.23,18.487,2.04-3.629,23.366.62,24.048,16.757-2.252,18.628.47a7.521,7.521,0,0,1,1.1,2.35,2.219,2.219,0,0,1-2.167,2.75H215.578s-1.532,0-.512-2.04C215.046,319.7,192.78,313.373,204.339,290.087Z" transform="translate(-163.16 -235.501)" fill="#4680e3"/>
      <path id="Path_1354" data-name="Path 1354" d="M204.339,290.087s12.691-4.23,18.487,2.04-3.629,23.366.62,24.048,16.757-2.252,18.628.47a7.521,7.521,0,0,1,1.1,2.35,2.219,2.219,0,0,1-2.167,2.75H215.578s-1.532,0-.512-2.04C215.046,319.7,192.78,313.373,204.339,290.087Z" transform="translate(-163.16 -235.501)" opacity="0.2"/>
      <path id="Path_1355" data-name="Path 1355" d="M220.7,184.04s.785-4.78,1.645-5.25.94,3.84,1.579,4.465Z" transform="translate(-173.594 -177.24)" fill="#4680e3"/>
      <path id="Path_1356" data-name="Path 1356" d="M220.7,184.04s.785-4.78,1.645-5.25.94,3.84,1.579,4.465Z" transform="translate(-173.594 -177.24)" opacity="0.2"/>
      <path id="Path_1357" data-name="Path 1357" d="M243.224,188.845a1.133,1.133,0,0,1-.08-.545c.066-.545.6-.78,1.072-.9.174-.042.1-.315-.075-.273a1.523,1.523,0,0,0-1.264,1.053,1.363,1.363,0,0,0,.1.808C243.059,189.151,243.3,188.986,243.224,188.845Z" transform="translate(-185.335 -181.674)" fill="#4680e3"/>
      <path id="Path_1358" data-name="Path 1358" d="M244.869,190.963c.2-.9,1.274-1.133,2.049-1.1a.141.141,0,0,0,0-.282c-.9-.042-2.092.282-2.322,1.3C244.558,191.067,244.831,191.142,244.869,190.963Z" transform="translate(-186.256 -182.978)" fill="#4680e3"/>
      <path id="Path_1359" data-name="Path 1359" d="M245.922,193.23c.306-.512,1.091-.32,1.523-.146.169.066.24-.207.075-.273-.569-.226-1.462-.353-1.843.273a.142.142,0,1,0,.244.146Z" transform="translate(-186.82 -184.591)" fill="#4680e3"/>
      <g id="Group_591" data-name="Group 591" transform="translate(57.52 5.447)" opacity="0.5">
        <path id="Path_1360" data-name="Path 1360" d="M243.224,188.845a1.133,1.133,0,0,1-.08-.545c.066-.545.6-.78,1.072-.9.174-.042.1-.315-.075-.273a1.523,1.523,0,0,0-1.264,1.053,1.363,1.363,0,0,0,.1.808C243.059,189.151,243.3,188.986,243.224,188.845Z" transform="translate(-242.855 -187.121)" fill="#fff"/>
        <path id="Path_1361" data-name="Path 1361" d="M244.869,190.963c.2-.9,1.274-1.133,2.049-1.1a.141.141,0,0,0,0-.282c-.9-.042-2.092.282-2.322,1.3C244.558,191.067,244.831,191.142,244.869,190.963Z" transform="translate(-243.776 -188.425)" fill="#fff"/>
        <path id="Path_1362" data-name="Path 1362" d="M245.922,193.23c.306-.512,1.091-.32,1.523-.146.169.066.24-.207.075-.273-.569-.226-1.462-.353-1.843.273a.142.142,0,1,0,.244.146Z" transform="translate(-244.34 -190.038)" fill="#fff"/>
      </g>
      <path id="Path_1363" data-name="Path 1363" d="M215.928,195.157c-1.584,2.35,1.88,4.23,5.114,11.934s-1.349,18.637-1.73,31.8-6.186,15.145-6.186,15.145l-5.965,10.543s-14.727,1.565-16.137-8.931,2.35-20.682,5.171-28.358,8.306-13.791,6.581-18.332a42.832,42.832,0,0,1-2.2-9.871,11.806,11.806,0,0,1-3.915-7.681s-2.665-6.581-1.41-7.991,6.581,4.23,6.581,4.23,4.559-2.975,6.2-2.82,3.671,2.98,6.961,1.57C215,186.39,219.839,189.352,215.928,195.157Z" transform="translate(-157.705 -179.59)" fill="#4680e3"/>
      <path id="Path_1364" data-name="Path 1364" d="M242.124,242.5c.381-13.161,4.978-24.1,1.73-31.8s-6.689-9.58-5.114-11.934c3.911-5.805-.94-8.762-.94-8.762-.193.08-.381.146-.564.2-.588.4-1.1.888-1.062,1.363.085,1.072.682,1.984-1.264,4.564-2.642,3.5,1.114,9.034,3.962,12.729s3.962,2.938,4.23,9.279c.324,7.366-4.9,16.367-6.581,22.21-1.41,4.931-3.488,14.543-2.5,20.6l1.88-3.29S241.743,255.666,242.124,242.5Z" transform="translate(-180.517 -183.205)" fill="#fff" opacity="0.2"/>
      <path id="Path_1365" data-name="Path 1365" d="M241.417,191.05s-1.067.263-.8.644S243.123,192.634,241.417,191.05Z" transform="translate(-184.125 -183.756)" fill="#263238" opacity="0.6"/>
      <path id="Path_1366" data-name="Path 1366" d="M204.56,191.441l2-1.88s-4.057-5.171-5.288-4.465S203.911,186.567,204.56,191.441Z" transform="translate(-163.169 -180.565)" opacity="0.2"/>
      <path id="Path_1367" data-name="Path 1367" d="M224.361,190.292c.136-.47-1.067-1.232-1.965-.174S224.224,190.767,224.361,190.292Z" transform="translate(-174.397 -182.979)" fill="#fff" opacity="0.2"/>
      <path id="Path_1368" data-name="Path 1368" d="M228.785,188.176c-.254.141-.94-.63-.5-1.062S229.043,188.031,228.785,188.176Z" transform="translate(-177.538 -181.625)" fill="#fff" opacity="0.2"/>
      <g id="Group_592" data-name="Group 592" transform="translate(51.756 10.073)" opacity="0.6">
        <path id="Path_1369" data-name="Path 1369" d="M233.877,196.98a3.771,3.771,0,0,0-3.257,1.711c-.108.15.136.287.244.146a3.472,3.472,0,0,1,3.013-1.575.141.141,0,0,0,0-.282Z" transform="translate(-230.593 -196.962)" fill="#fff"/>
        <path id="Path_1370" data-name="Path 1370" d="M235.066,198.717a4.129,4.129,0,0,0-2.529,3.394c-.033.174.24.254.273.075.226-1.288.94-2.82,2.327-3.2a.141.141,0,0,0-.07-.273Z" transform="translate(-231.622 -197.891)" fill="#fff"/>
        <path id="Path_1371" data-name="Path 1371" d="M238.584,199.831a3.9,3.9,0,0,0-.9,2.872.141.141,0,0,0,.282,0,3.657,3.657,0,0,1,.818-2.684c.127-.127-.071-.329-.2-.2Z" transform="translate(-234.341 -198.455)" fill="#fff"/>
      </g>
      <path id="Path_1372" data-name="Path 1372" d="M209.194,304.631,208,306.892l1.8,2.425,5.406,4.075a38.463,38.463,0,0,0,6.416,5.871l.644-1.138s2.82-.964,4.649-5.984C224.094,301.252,209.194,304.631,209.194,304.631Z" transform="translate(-166.864 -243.686)" opacity="0.2"/>
      <path id="Path_1373" data-name="Path 1373" d="M241.9,260.232l-8.423-4.122-3.135-3.45-.47,2.35s-.066,11.112,7.051,12.221a10.985,10.985,0,0,0,3.93-.282C241.179,264.618,241.555,262.376,241.9,260.232Z" transform="translate(-178.454 -216.407)" opacity="0.1"/>
      <g id="Group_593" data-name="Group 593" transform="translate(35.599 19.413)" opacity="0.3">
        <path id="Path_1374" data-name="Path 1374" d="M212.278,220.625c3.723-.1,9.453-4.442,5.335-3.709a22.755,22.755,0,0,1-5.843.3C211.826,217.771,211.982,219.036,212.278,220.625Z" transform="translate(-204.461 -216.833)" fill="#fff"/>
        <path id="Path_1375" data-name="Path 1375" d="M221.156,235.5a13.716,13.716,0,0,1-5.4.32c.089.268.188.536.287.8a6.111,6.111,0,0,1,.136,3.511C220.851,239.472,224.851,234.556,221.156,235.5Z" transform="translate(-206.575 -226.66)" fill="#fff"/>
        <path id="Path_1376" data-name="Path 1376" d="M205.818,287.861a10.521,10.521,0,0,1-8.132-2.491c-.5,1.41-1,2.914-1.467,4.451C204.958,292.247,211.774,287.4,205.818,287.861Z" transform="translate(-196.22 -253.154)" fill="#fff"/>
        <path id="Path_1377" data-name="Path 1377" d="M214.391,262.3a11.22,11.22,0,0,1-6.534-2.068c-.71,1.344-1.462,2.759-2.167,4.23C212.139,267.13,219.11,262.4,214.391,262.3Z" transform="translate(-201.239 -239.831)" fill="#fff"/>
      </g>
      <path id="Path_1378" data-name="Path 1378" d="M229.964,192.783c.221.423.169.888-.127,1.02s-.667-.08-.888-.512-.165-.893.132-1.025S229.747,192.346,229.964,192.783Z" transform="translate(-177.894 -184.38)" fill="#263238"/>
      <path id="Path_1379" data-name="Path 1379" d="M225.645,193.039a.259.259,0,0,0,.183-.183,2.378,2.378,0,0,1,1.41-1.532.282.282,0,0,0,.132-.381.291.291,0,0,0-.291-.155h0a2.886,2.886,0,0,0-1.777,1.88.273.273,0,0,0,.174.353h0a.235.235,0,0,0,.169.019Z" transform="translate(-176.024 -183.616)" fill="#263238"/>
      <path id="Path_1380" data-name="Path 1380" d="M252.219,246.321c-1.227-1.655-2.482-8.461-2.482-8.461l-.564-1.25-1.293,2.7,1.058,6.882,2.919,2.863C251.993,248.126,252.12,247.214,252.219,246.321Z" transform="translate(-187.998 -207.901)" opacity="0.2"/>
      <path id="Path_1381" data-name="Path 1381" d="M233.329,233.8s4.7-3.76,6.426,0,.423,13.194,5.462,13.664a78.6,78.6,0,0,1,11.878,2.468s6.581,1.358,5.062,3.46c0,0,2.087,2.284-.113,3.126,0,0-.531,2.2-3.347.287,0,0-.47,1.9-4.5-1.462,0,0-6-2.952-15.041-.649S226.579,238.849,233.329,233.8Z" transform="translate(-178.425 -205.524)" fill="#4680e3"/>
      <path id="Path_1382" data-name="Path 1382" d="M279.741,271.077c1.537-2.1-5.062-3.46-5.062-3.46a90.48,90.48,0,0,0-9.081-2.078,3.365,3.365,0,0,0-2.487,1.673c-.667,1.626,1.772,3.163,2.134,4.343a19.019,19.019,0,0,1,6.538,1.471c4.024,3.366,4.5,1.462,4.5,1.462,2.82,1.908,3.347-.287,3.347-.287C281.828,273.362,279.741,271.077,279.741,271.077Z" transform="translate(-196.009 -223.232)" fill="#fff" opacity="0.4"/>
      <g id="Group_594" data-name="Group 594" transform="translate(80.08 46.608)" opacity="0.2">
        <path id="Path_1383" data-name="Path 1383" d="M292,279.607s1.937.47,2.529,1.561C294.51,281.167,294.4,279.16,292,279.607Z" transform="translate(-291.459 -277.261)"/>
        <path id="Path_1384" data-name="Path 1384" d="M290.85,275.173a4.7,4.7,0,0,1,3.051.522A2.082,2.082,0,0,0,290.85,275.173Z" transform="translate(-290.85 -274.689)"/>
      </g>
      <path id="Path_1385" data-name="Path 1385" d="M195.839,306.087s12.221-4.23,18.017,2.04-.338,16.315,3.911,17,13.937-2.722,15.808,0a7.521,7.521,0,0,1,1.1,2.35,2.219,2.219,0,0,1-2.167,2.75H207.059s-1.532,0-.512-2.04C206.546,328.184,184.28,329.373,195.839,306.087Z" transform="translate(-158.655 -243.981)" fill="#4680e3"/>
      <path id="Path_1386" data-name="Path 1386" d="M204.423,311.907c-6.059,0-8.513-1.241-10.224-1.561a6.929,6.929,0,0,1-2.435-1.076,48.961,48.961,0,0,0-.714,5.044c1.73.658,1.612.122,1.612.122C197.288,316.358,210.482,311.907,204.423,311.907Z" transform="translate(-157.881 -246.407)" fill="#fff" opacity="0.3"/>
      <g id="Group_595" data-name="Group 595" transform="translate(34.678 77.867)" opacity="0.1">
        <path id="Path_1387" data-name="Path 1387" d="M206.561,345.505c-2.585-.132-9.128.249-12.3-4.315,3,6.877,13.213,6.336,13.213,6.336S209.146,345.641,206.561,345.505Z" transform="translate(-194.26 -341.19)"/>
      </g>
    </g>
  </g>
</svg>
