<svg id="New_logo_02" data-name="New logo 02" xmlns="http://www.w3.org/2000/svg" xmlns:xlink="http://www.w3.org/1999/xlink" width="218.329" height="56.321" viewBox="0 0 218.329 56.321">
  <defs>
    <clipPath id="clip-path">
      <rect id="Rectangle_1161" data-name="Rectangle 1161" width="218.329" height="56.321" fill="none"/>
    </clipPath>
  </defs>
  <g id="Group_601" data-name="Group 601" clip-path="url(#clip-path)">
    <path id="Path_1388" data-name="Path 1388" d="M482.647,52.062c0,2.954,0,5.908,0,8.863,0,1.662.016,3.325.047,4.986.009.489-.2.628-.66.627q-5.927-.015-11.853,0c-.576,0-.709-.226-.707-.754q.045-11.284.059-22.569c0-4.875,0-9.751-.045-14.625-.008-.8.243-.986,1-.974q5.5.082,11,.065c.637,0,.812.19.811.817-.005,3.972.029,7.945.05,11.918,0,.325,0,.649,0,.974l.25.129a7.591,7.591,0,0,0,.889-.872c1.549-2.1,3.059-4.228,4.615-6.323,1.206-1.623,2.46-3.211,3.693-4.815a.845.845,0,0,0,.146-.206c.662-1.863,2.088-2.071,3.846-2.014,3.975.13,7.955.085,11.934.114.25,0,.5.023.851.039-.329.505-.575.966-.9,1.364q-2.726,3.354-5.487,6.681c-1.09,1.313-2.208,2.6-3.315,3.9-.818.96-1.657,1.9-2.451,2.883a24.831,24.831,0,0,0-1.845,2.495,1.278,1.278,0,0,0,.025,1.149c1.934,2.727,3.933,5.407,5.892,8.116,1.048,1.45,2.04,2.939,3.079,4.4.861,1.206,1.763,2.381,2.629,3.583,1.027,1.425,2.035,2.865,3.116,4.388-.3.027-.532.065-.769.067-4.712.025-9.424.033-14.136.077a1.88,1.88,0,0,1-1.837-.939c-.734-1.252-1.44-2.525-2.248-3.728-.964-1.435-2.037-2.8-3.037-4.206-1.172-1.651-2.305-3.329-3.482-4.975a6.178,6.178,0,0,0-.887-.838l-.277.2" transform="translate(-389.915 -22.661)" fill="#febe10"/>
    <path id="Path_1389" data-name="Path 1389" d="M0,106.09V77.124H12.318l.377,2.739c1.124-.74,2.206-1.525,3.36-2.185a6.881,6.881,0,0,1,2.4-.957c3.19-.42,6.373-.519,9.142,1.55A6.4,6.4,0,0,1,28.853,79.7c.52.724.937.5,1.481.013A18.515,18.515,0,0,1,32.9,77.679a10.47,10.47,0,0,1,5.09-1.474c1.888.194,2.082-.016,3.534.544A9.894,9.894,0,0,1,45.635,79.2a1.015,1.015,0,0,1,.081,1.364,49.7,49.7,0,0,0-2.575,4.713,9.27,9.27,0,0,0-.717,3.186,45.318,45.318,0,0,0-.027,5.873,16.255,16.255,0,0,0,2.859,7.9c.746,1.12,1.618,2.157,2.428,3.235a6.176,6.176,0,0,1,.315.548H36.036c0-.277,0-.58,0-.882,0-4.988.009-9.976-.008-14.964a9.556,9.556,0,0,0-.227-1.745,1.86,1.86,0,0,0-1.536-1.563,2.021,2.021,0,0,0-2.251.764,4.992,4.992,0,0,0-.849,2.383c-.083,5.043-.053,10.088-.06,15.133,0,.28,0,.559,0,.91H17.95c0-.3,0-.624,0-.95-.011-5.016,0-10.032-.053-15.048a5.454,5.454,0,0,0-.48-2.1,1.87,1.87,0,0,0-2.8-.852,3.026,3.026,0,0,0-1.647,2.8c.055,5.241.032,10.483.037,15.725,0,.135-.018.269-.03.445Z" transform="translate(0 -63.278)" fill="#6da1fe"/>
    <path id="Path_1390" data-name="Path 1390" d="M903.681,83.507h12.058c0,.72-.025,1.389.015,2.054.013.209.162.527.32.579a.692.692,0,0,0,.624-.239c.975-1.724,2.836-2.094,4.431-2.687a10.937,10.937,0,0,1,7.614.158,11.973,11.973,0,0,1,6.622,5.452,18.444,18.444,0,0,1,2.044,5.9,17.953,17.953,0,0,1,.312,3.993,21.83,21.83,0,0,1-.685,4.372,13.627,13.627,0,0,1-3.94,6.812c-2.214,2.019-4.715,3.419-7.881,3.265-1.74-.085-3.514.143-5.136-.691-.869-.446-1.692-.981-2.531-1.483-.283-.169-.552-.36-1.026-.672v14.6H903.681Zm17.09,9.674a4.358,4.358,0,0,0-4.359,2.36c-.714,1.137-.412,2.521-.161,3.78a4.808,4.808,0,0,0,.828,1.716c1.055,1.514,2.611,1.734,4.332,1.678a4.543,4.543,0,0,0,4.515-4.847c-.268-2.575-1.85-5.017-5.154-4.687" transform="translate(-750.537 -68.605)" fill="#febe10"/>
    <path id="Path_1391" data-name="Path 1391" d="M278.322,93.539A3.456,3.456,0,0,0,280,95.952a6.8,6.8,0,0,0,7.374-.463,1.493,1.493,0,0,1,1.942-.148c2.237,1.177,4.52,2.266,6.794,3.371,1.186.576,1.219.843.4,1.84a14.73,14.73,0,0,1-9.949,5.352,20.6,20.6,0,0,1-9.423-.686,16.144,16.144,0,0,1-7.2-4.43,14.559,14.559,0,0,1-3.562-8.172,15.064,15.064,0,0,1,.743-7.656A15.3,15.3,0,0,1,277.61,75.6c5.017-1.333,9.913-.98,14.285,2.075a14.621,14.621,0,0,1,5.967,9.113,39.855,39.855,0,0,1,.386,6.039c.04.666-.373.7-.864.7q-5.545,0-11.09.009c-2.623,0-5.246,0-7.972,0m.325-9.085c0,.62.008,1.239,0,1.859s-.06,1.237-.057,1.856A1.5,1.5,0,0,0,281,89.609c1.913-1.02,3.82-2.053,5.708-3.119a13.737,13.737,0,0,0,1.279-1.017c1.084-.8,1.063-1.53-.132-2.228q-3.422-2-6.874-3.944c-1.3-.73-2.31-.131-2.327,1.35-.015,1.267,0,2.535,0,3.8" transform="translate(-221.098 -62.179)" fill="#6da1fe"/>
    <path id="Path_1392" data-name="Path 1392" d="M1108.53,99.711a8.641,8.641,0,0,1,.757.646,11.109,11.109,0,0,0,5.348,3.154,13.1,13.1,0,0,0,3.678.223c.286,0,.806-.459.8-.69a1.372,1.372,0,0,0-.617-1.046c-1.161-.492-2.386-.832-3.578-1.254a24.038,24.038,0,0,1-4.5-1.7c-2.02-1.225-3.7-2.976-3.966-5.459-.552-5.1.675-7.911,5.414-10.495a9.915,9.915,0,0,1,4.563-1.312c1.371-.033,2.75-.355,4.105-.26a24.8,24.8,0,0,1,9.2,2.139c1.046.5,1.112.978.579,2-.578,1.108-1.007,2.294-1.493,3.45-.423,1.006-.808,2.03-1.259,3.023-.345.761-.567.729-1.269.305-1.89-1.142-3.755-2.4-6.132-2.212-.169.013-.339.009-.507.028-.6.066-1.243.283-1.206.924a1.7,1.7,0,0,0,.891,1.156,12.945,12.945,0,0,0,2.8.933,14.624,14.624,0,0,1,6.525,2.974,6.521,6.521,0,0,1,2.382,4.74,13.173,13.173,0,0,1-.256,4.348,9.622,9.622,0,0,1-5.075,5.7,14.3,14.3,0,0,1-6.821,1.567,25.274,25.274,0,0,1-7.515-.752,53.272,53.272,0,0,1-5.515-2.22c-.687-.3-.55-.925-.193-1.427a18.947,18.947,0,0,0,2.622-5.682,14.452,14.452,0,0,0,.237-2.807" transform="translate(-918.052 -67.691)" fill="#febe10"/>
    <path id="Path_1393" data-name="Path 1393" d="M721.415,27.685H731.2c.846,0,1.694.028,2.538-.01.56-.025.723.178.721.727-.01,2.985.023,5.971.026,8.956q.008,9.633,0,19.265c0,3.154-.014,6.308.015,9.462.005.587-.152.784-.753.78q-5.839-.033-11.679,0c-.591,0-.777-.186-.775-.775q.073-17.572.116-35.144c0-1.035,0-2.071,0-3.261" transform="translate(-599.063 -22.983)" fill="#febe10"/>
    <path id="Path_1394" data-name="Path 1394" d="M813.331,102.019c0-4.532.014-9.065-.014-13.6,0-.692.178-.911.893-.9q5.5.051,10.995,0c.724-.007.889.232.885.914q-.055,10.175-.055,20.35c0,2.308.007,4.617.054,6.925.013.628-.206.856-.814.854q-5.668-.014-11.336,0c-.524,0-.688-.2-.677-.7q.058-2.574.067-5.149c.01-2.9,0-5.8,0-8.7" transform="translate(-675.44 -72.683)" fill="#febe10"/>
    <path id="Path_1395" data-name="Path 1395" d="M819.966,12.687c-3.267.694-6.494-2.717-6.59-4.864-.07-1.563-.4-3.248.745-4.614,1.336-1.591,2.874-3.091,5.043-3.2a6.724,6.724,0,0,1,7.192,5.859c.347,1.921-.675,3.389-1.928,4.785-1.267,1.412-2.662,2.295-4.464,2.033" transform="translate(-675.455 -0.001)" fill="#febe10"/>
    <path id="Path_1396" data-name="Path 1396" d="M347.03,113.66v-8.515l7.712,4.47-7.46,4.26-.252-.214" transform="translate(-288.22 -87.326)" fill="#febe10"/>
    <path id="Path_1397" data-name="Path 1397" d="M1270.818,71.234a1.582,1.582,0,0,1,.634.127,1.636,1.636,0,0,1,.863.863,1.625,1.625,0,0,1,0,1.262,1.636,1.636,0,0,1-.863.863,1.579,1.579,0,0,1-.634.127,1.563,1.563,0,0,1-.628-.127,1.638,1.638,0,0,1-.863-.863,1.629,1.629,0,0,1,0-1.262,1.638,1.638,0,0,1,.863-.863,1.566,1.566,0,0,1,.628-.127m0,2.976a1.225,1.225,0,0,0,.518-.113,1.477,1.477,0,0,0,.733-.733,1.212,1.212,0,0,0,.113-.512,1.226,1.226,0,0,0-.113-.518,1.477,1.477,0,0,0-.733-.733,1.225,1.225,0,0,0-.518-.113,1.213,1.213,0,0,0-.512.113,1.476,1.476,0,0,0-.733.733,1.226,1.226,0,0,0-.113.518,1.212,1.212,0,0,0,.113.512,1.476,1.476,0,0,0,.733.733,1.213,1.213,0,0,0,.512.113m0-1.013h-.306v.543a.035.035,0,0,1-.039.039h-.294a.035.035,0,0,1-.04-.039V71.964a.035.035,0,0,1,.04-.04h.679a.965.965,0,0,1,.359.057.541.541,0,0,1,.218.153.525.525,0,0,1,.107.218,1.081,1.081,0,0,1,.028.246.6.6,0,0,1-.1.339.579.579,0,0,1-.243.215l.351.588a.035.035,0,0,1-.04.039h-.351a.049.049,0,0,1-.051-.039Zm.17-.317a.176.176,0,0,0,.147-.1.392.392,0,0,0,.062-.212.422.422,0,0,0-.054-.209.193.193,0,0,0-.184-.1h-.447v.617Z" transform="translate(-1054.113 -59.162)" fill="#febe10"/>
    <path id="Path_1398" data-name="Path 1398" d="M11.841,278.547a.243.243,0,0,1,.209-.139h.962a.123.123,0,0,1,.139.139L10.2,283.373V286.2a.111.111,0,0,1-.126.126H9.206a.111.111,0,0,1-.125-.126v-2.831l-2.956-4.825a.123.123,0,0,1,.139-.139h.962a.243.243,0,0,1,.209.139l2.2,3.64Z" transform="translate(-5.086 -231.227)" fill="#6da1fe"/>
    <path id="Path_1399" data-name="Path 1399" d="M51.224,297.538a2.769,2.769,0,0,1-1.116-.23,2.923,2.923,0,0,1-1.541-1.534,2.756,2.756,0,0,1-.23-1.123,2.627,2.627,0,0,1,.23-1.095,3.022,3.022,0,0,1,.62-.9,2.895,2.895,0,0,1,4.072,0,3.022,3.022,0,0,1,.62.9,2.627,2.627,0,0,1,.23,1.095,2.756,2.756,0,0,1-.23,1.123,2.922,2.922,0,0,1-1.541,1.534,2.769,2.769,0,0,1-1.116.23m-.014-.92a1.674,1.674,0,0,0,.69-.146,1.778,1.778,0,0,0,.572-.4,1.869,1.869,0,0,0,.384-.621,2.159,2.159,0,0,0,.139-.781,2,2,0,0,0-.139-.76,1.643,1.643,0,0,0-.955-.941,1.912,1.912,0,0,0-.69-.126,1.8,1.8,0,0,0-.676.126,1.7,1.7,0,0,0-.558.363,1.678,1.678,0,0,0-.384.579,1.993,1.993,0,0,0-.139.76,2.156,2.156,0,0,0,.139.781,1.861,1.861,0,0,0,.384.621,1.82,1.82,0,0,0,.558.4,1.579,1.579,0,0,0,.676.146" transform="translate(-40.145 -242.367)" fill="#6da1fe"/>
    <path id="Path_1400" data-name="Path 1400" d="M98,297.127a1.779,1.779,0,0,1-.9.628,3.526,3.526,0,0,1-.885.126,2.97,2.97,0,0,1-1.164-.2,1.777,1.777,0,0,1-.725-.551,2.088,2.088,0,0,1-.376-.851,5.372,5.372,0,0,1-.1-1.109v-2.817a.111.111,0,0,1,.125-.126h.864a.111.111,0,0,1,.126.126v2.928a5.592,5.592,0,0,0,.035.648,1.235,1.235,0,0,0,.181.53.976.976,0,0,0,.446.363,2.054,2.054,0,0,0,.816.133,1.416,1.416,0,0,0,.642-.139,1.368,1.368,0,0,0,.467-.377,1.591,1.591,0,0,0,.279-.544,2.311,2.311,0,0,0,.09-.655v-2.887a.111.111,0,0,1,.126-.126H98.9a.111.111,0,0,1,.125.126v5.327a.111.111,0,0,1-.125.125h-.67a.188.188,0,0,1-.181-.125Z" transform="translate(-77.939 -242.708)" fill="#6da1fe"/>
    <path id="Path_1401" data-name="Path 1401" d="M142.339,292.8a1.712,1.712,0,0,0-.823.174,1.32,1.32,0,0,0-.5.446,1.784,1.784,0,0,0-.244.607,3.267,3.267,0,0,0-.07.669v2.65a.111.111,0,0,1-.125.125h-.865a.111.111,0,0,1-.126-.125v-5.327a.111.111,0,0,1,.126-.126h.669a.207.207,0,0,1,.182.126l.07.6a1.406,1.406,0,0,1,.4-.439,1.779,1.779,0,0,1,.467-.237,2.17,2.17,0,0,1,.467-.1q.23-.021.4-.021h.209a.111.111,0,0,1,.126.125v.725a.111.111,0,0,1-.126.125Z" transform="translate(-115.936 -242.367)" fill="#6da1fe"/>
    <path id="Path_1402" data-name="Path 1402" d="M458.412,278.547a.243.243,0,0,1,.209-.139h.962a.123.123,0,0,1,.139.139l-2.956,4.825V286.2a.111.111,0,0,1-.126.126h-.865a.111.111,0,0,1-.125-.126v-2.831l-2.956-4.825a.123.123,0,0,1,.139-.139h.962a.243.243,0,0,1,.209.139l2.2,3.64Z" transform="translate(-375.978 -231.227)" fill="#6da1fe"/>
    <path id="Path_1403" data-name="Path 1403" d="M495.795,295.936a2.644,2.644,0,0,1-1.116-.243,2.943,2.943,0,0,1-.92-.656,3.151,3.151,0,0,1-.62-.966,3.058,3.058,0,0,1-.23-1.187,2.914,2.914,0,0,1,.23-1.157,3.208,3.208,0,0,1,.62-.951,2.848,2.848,0,0,1,.92-.649,2.756,2.756,0,0,1,2.231,0,2.85,2.85,0,0,1,.921.649,3.207,3.207,0,0,1,.62.951,2.914,2.914,0,0,1,.23,1.157,3.058,3.058,0,0,1-.23,1.187,3.15,3.15,0,0,1-.62.966,2.946,2.946,0,0,1-.921.656,2.643,2.643,0,0,1-1.116.243m-.014-.973a1.6,1.6,0,0,0,.69-.155,1.782,1.782,0,0,0,.572-.428,1.993,1.993,0,0,0,.383-.656,2.4,2.4,0,0,0,.139-.826,2.217,2.217,0,0,0-.139-.8,1.792,1.792,0,0,0-.383-.612,1.661,1.661,0,0,0-.572-.383,1.822,1.822,0,0,0-.69-.133,1.718,1.718,0,0,0-.676.133,1.691,1.691,0,0,0-.558.383,1.784,1.784,0,0,0-.383.612,2.213,2.213,0,0,0-.139.8,2.4,2.4,0,0,0,.139.826,1.985,1.985,0,0,0,.383.656,1.828,1.828,0,0,0,.558.428,1.509,1.509,0,0,0,.676.155" transform="translate(-409.376 -240.765)" fill="#6da1fe"/>
    <path id="Path_1404" data-name="Path 1404" d="M541.712,295.13a1.781,1.781,0,0,1-.9.672,3.315,3.315,0,0,1-.885.134,2.8,2.8,0,0,1-1.164-.209,1.8,1.8,0,0,1-.725-.59,2.313,2.313,0,0,1-.376-.91,6.14,6.14,0,0,1-.1-1.186v-3.015q0-.134.125-.134h.865q.126,0,.126.134v3.134a6.4,6.4,0,0,0,.035.694,1.385,1.385,0,0,0,.181.567.993.993,0,0,0,.446.388,1.936,1.936,0,0,0,.816.142,1.339,1.339,0,0,0,.642-.149,1.388,1.388,0,0,0,.467-.4,1.746,1.746,0,0,0,.279-.582,2.634,2.634,0,0,0,.091-.7v-3.089q0-.134.126-.134h.865q.125,0,.125.134v5.7q0,.134-.125.134h-.67a.188.188,0,0,1-.181-.134Z" transform="translate(-446.458 -240.765)" fill="#6da1fe"/>
    <path id="Path_1405" data-name="Path 1405" d="M584.339,290.925a1.635,1.635,0,0,0-.823.184,1.352,1.352,0,0,0-.5.472,1.951,1.951,0,0,0-.244.642,3.651,3.651,0,0,0-.07.708v2.8q0,.133-.125.133h-.865q-.126,0-.126-.133V290.1q0-.133.126-.133h.669a.207.207,0,0,1,.182.133l.07.634a1.461,1.461,0,0,1,.4-.465,1.74,1.74,0,0,1,.467-.251,2.046,2.046,0,0,1,.467-.1q.23-.022.4-.022h.209q.126,0,.126.133v.767q0,.133-.126.133Z" transform="translate(-483.031 -240.765)" fill="#6da1fe"/>
    <path id="Path_1406" data-name="Path 1406" d="M870.226,281.778h-.615a.032.032,0,0,1-.036-.036v-.21a.032.032,0,0,1,.036-.036h1.549a.032.032,0,0,1,.036.036v.21a.032.032,0,0,1-.036.036h-.611v1.978a.032.032,0,0,1-.036.036h-.251a.032.032,0,0,1-.036-.036Z" transform="translate(-722.211 -233.791)" fill="#6da1fe"/>
    <path id="Path_1407" data-name="Path 1407" d="M883.68,283.095c-.011,0-.024-.009-.04-.028l-.732-.837V283.7a.032.032,0,0,1-.036.036h-.251a.032.032,0,0,1-.036-.036V281.44a.033.033,0,0,1,.024-.016.023.023,0,0,1,.016,0l.012.012,1.007,1.141.018.018a.025.025,0,0,0,.018.006.024.024,0,0,0,.018-.006l.018-.018,1.007-1.141.012-.012a.023.023,0,0,1,.016,0,.032.032,0,0,1,.024.016V283.7a.032.032,0,0,1-.036.036h-.251a.032.032,0,0,1-.036-.036v-1.468l-.732.837c-.016.019-.03.028-.04.028" transform="translate(-733.015 -233.732)" fill="#6da1fe"/>
    <path id="Path_1408" data-name="Path 1408" d="M627.3,293.2a1.845,1.845,0,0,0,.4-.046,1.313,1.313,0,0,0,.448-.213.71.71,0,0,1,.364-.137.408.408,0,0,1,.152.03.279.279,0,0,1,.122.091l.592.623a1.625,1.625,0,0,1,.1.152.359.359,0,0,1,.053.182.61.61,0,0,1-.023.159.635.635,0,0,1-.068.159,2.35,2.35,0,0,1-1.086.691,4.4,4.4,0,0,1-1.161.159,3.053,3.053,0,0,1-1.23-.25,3.242,3.242,0,0,1-1.693-1.685,2.965,2.965,0,0,1-.251-1.207,2.913,2.913,0,0,1,.251-1.2,3.1,3.1,0,0,1,.683-.979,3.262,3.262,0,0,1,1.01-.66,3.139,3.139,0,0,1,1.23-.243,3.683,3.683,0,0,1,1.169.2,2.789,2.789,0,0,1,1.032.607.592.592,0,0,1,.068.175.769.769,0,0,1,.023.129.389.389,0,0,1-.045.19.567.567,0,0,1-.091.129l-.622.79a.444.444,0,0,1-.16.084.539.539,0,0,1-.114.023h-.091a1.714,1.714,0,0,1-.167-.061l-.031-.015a4.441,4.441,0,0,0-.417-.159,1.8,1.8,0,0,0-.569-.084,1.022,1.022,0,0,0-.729.289,1.057,1.057,0,0,0-.3.8,1.329,1.329,0,0,0,.327.9,1.044,1.044,0,0,0,.828.38" transform="translate(-518.271 -239.88)" fill="#6da1fe"/>
    <path id="Path_1409" data-name="Path 1409" d="M664.7,274.542a.311.311,0,0,1,.319-.319H666.5a.3.3,0,0,1,.235.091.325.325,0,0,1,.083.228v2.49a1.429,1.429,0,0,1,.623-.281,3.468,3.468,0,0,1,.562-.053,2.509,2.509,0,0,1,1.116.228,2.082,2.082,0,0,1,.752.607,2.458,2.458,0,0,1,.418.873,4.109,4.109,0,0,1,.129,1.04v3.082a.325.325,0,0,1-.084.228.3.3,0,0,1-.235.091h-1.488a.311.311,0,0,1-.319-.319v-2.87q0-.2-.015-.372a.659.659,0,0,0-.1-.3.586.586,0,0,0-.235-.2.967.967,0,0,0-.425-.076.569.569,0,0,0-.539.281,1.348,1.348,0,0,0-.159.676v2.87a.325.325,0,0,1-.083.228.3.3,0,0,1-.235.091h-1.488a.311.311,0,0,1-.319-.319Z" transform="translate(-552.054 -227.751)" fill="#6da1fe"/>
    <path id="Path_1410" data-name="Path 1410" d="M710.673,294.353a1.567,1.567,0,0,1-.483.395,2.7,2.7,0,0,1-.516.2,2.419,2.419,0,0,1-.449.084c-.133.01-.216.015-.249.015a4.222,4.222,0,0,1-.549-.053,2.117,2.117,0,0,1-.732-.258,1.985,1.985,0,0,1-.649-.607,1.884,1.884,0,0,1-.283-1.1,1.622,1.622,0,0,1,.166-.759,1.453,1.453,0,0,1,.458-.524,1.93,1.93,0,0,1,.69-.3,3.877,3.877,0,0,1,.865-.091,5.77,5.77,0,0,1,.641.046,2.108,2.108,0,0,1,.673.182.944.944,0,0,0-.358-.615,1.4,1.4,0,0,0-.707-.144q-.15,0-.449.008a2.5,2.5,0,0,0-.582.084.761.761,0,0,1-.125.015h-.075a.679.679,0,0,1-.25-.046.352.352,0,0,1-.183-.167l-.366-.941a.856.856,0,0,1-.033-.228.386.386,0,0,1,.2-.349,5.877,5.877,0,0,1,1.231-.326,8.07,8.07,0,0,1,.915-.053,3.22,3.22,0,0,1,2.362.752,2.745,2.745,0,0,1,.749,2.027v3.052a.3.3,0,0,1-.1.228.356.356,0,0,1-.249.091h-1a.579.579,0,0,1-.308-.061.569.569,0,0,1-.175-.243Zm-1.031-1a1.644,1.644,0,0,0,.258-.038.9.9,0,0,0,.358-.159v-.364a.863.863,0,0,0-.249-.144.955.955,0,0,0-.366-.068q-.732,0-.732.379a.312.312,0,0,0,.2.3,1.3,1.3,0,0,0,.532.091" transform="translate(-586.991 -239.88)" fill="#6da1fe"/>
    <path id="Path_1411" data-name="Path 1411" d="M750.421,288.9a.541.541,0,0,1,.3.061.573.573,0,0,1,.167.243l.08.319a1.367,1.367,0,0,1,.383-.349,2.055,2.055,0,0,1,.471-.213,2.924,2.924,0,0,1,.495-.106,3.661,3.661,0,0,1,.439-.03,2.751,2.751,0,0,1,1.173.228,2.169,2.169,0,0,1,.79.607,2.412,2.412,0,0,1,.439.873,3.922,3.922,0,0,1,.136,1.04v3.082a.316.316,0,0,1-.088.228.328.328,0,0,1-.247.091h-1.564a.334.334,0,0,1-.239-.091.3.3,0,0,1-.1-.228v-2.87q0-.2-.016-.372a.636.636,0,0,0-.1-.3.606.606,0,0,0-.247-.2,1.061,1.061,0,0,0-.447-.076.606.606,0,0,0-.566.281,1.3,1.3,0,0,0-.168.676v2.87a.316.316,0,0,1-.088.228.328.328,0,0,1-.247.091h-1.563a.333.333,0,0,1-.239-.091.3.3,0,0,1-.1-.228v-5.435a.3.3,0,0,1,.1-.228.333.333,0,0,1,.239-.091Z" transform="translate(-622.295 -239.88)" fill="#6da1fe"/>
    <path id="Path_1412" data-name="Path 1412" d="M794.385,293.2a2.253,2.253,0,0,0,.446-.046,1.53,1.53,0,0,0,.5-.213.84.84,0,0,1,.4-.137.5.5,0,0,1,.168.03.309.309,0,0,1,.135.091l.656.623a1.637,1.637,0,0,1,.109.152.334.334,0,0,1,.059.182.552.552,0,0,1-.025.159.6.6,0,0,1-.076.159,2.652,2.652,0,0,1-1.2.691,5.362,5.362,0,0,1-1.286.159,3.7,3.7,0,0,1-1.362-.25,3.618,3.618,0,0,1-1.118-.683,3.267,3.267,0,0,1-.756-1,2.72,2.72,0,0,1-.277-1.207,2.673,2.673,0,0,1,.277-1.2,3.122,3.122,0,0,1,.756-.979,3.669,3.669,0,0,1,1.118-.66,3.8,3.8,0,0,1,1.362-.243,4.476,4.476,0,0,1,1.294.2,3.175,3.175,0,0,1,1.143.607.559.559,0,0,1,.076.175.682.682,0,0,1,.025.129.359.359,0,0,1-.05.19.567.567,0,0,1-.1.129l-.689.79a.512.512,0,0,1-.177.084.654.654,0,0,1-.126.023h-.1q-.151-.046-.185-.061l-.034-.015q-.185-.076-.462-.159a2.189,2.189,0,0,0-.63-.084,1.2,1.2,0,0,0-.807.289,1,1,0,0,0-.336.8,1.255,1.255,0,0,0,.361.9,1.211,1.211,0,0,0,.916.38" transform="translate(-656.747 -239.88)" fill="#6da1fe"/>
    <path id="Path_1413" data-name="Path 1413" d="M837.19,292.242a.3.3,0,0,1-.1.228.344.344,0,0,1-.244.091H833.19a.74.74,0,0,0,.2.4,1.008,1.008,0,0,0,.333.22,1.462,1.462,0,0,0,.39.1,3.3,3.3,0,0,0,.366.023,7.293,7.293,0,0,0,.756-.038,2.715,2.715,0,0,0,.789-.22.2.2,0,0,1,.081-.015.286.286,0,0,1,.211.106l.439.683a.35.35,0,0,1,.081.212.412.412,0,0,1-.081.258,1.342,1.342,0,0,1-.423.357,2.859,2.859,0,0,1-.561.235,3.583,3.583,0,0,1-.642.129,5.952,5.952,0,0,1-.651.038,5.339,5.339,0,0,1-1.333-.167,3.228,3.228,0,0,1-1.155-.547,2.8,2.8,0,0,1-.813-.987,3.218,3.218,0,0,1-.309-1.473,3.859,3.859,0,0,1,.179-1.192,2.489,2.489,0,0,1,.569-.964,2.785,2.785,0,0,1,.992-.653,3.814,3.814,0,0,1,1.431-.243,4.112,4.112,0,0,1,1.244.182,2.805,2.805,0,0,1,1,.547,2.562,2.562,0,0,1,.667.911,3.106,3.106,0,0,1,.244,1.275Zm-3.122-1.534a2.355,2.355,0,0,0-.252.015.746.746,0,0,0-.268.084.653.653,0,0,0-.228.2.991.991,0,0,0-.146.38h1.74a.763.763,0,0,0-.138-.365.77.77,0,0,0-.228-.2.794.794,0,0,0-.252-.091,1.35,1.35,0,0,0-.228-.023" transform="translate(-690.06 -239.88)" fill="#6da1fe"/>
    <path id="Path_1414" data-name="Path 1414" d="M189.884,291.944a.605.605,0,0,0-.2-.516.7.7,0,0,0-.43-.152.977.977,0,0,0-.4.1.394.394,0,0,0-.254.266.9.9,0,0,1,.018.167V295.1a.289.289,0,0,1-.105.228.389.389,0,0,1-.263.091h-1.492a.38.38,0,0,1-.272-.091.3.3,0,0,1-.1-.228v-2.961a.963.963,0,0,0-.193-.63.561.561,0,0,0-.439-.235.578.578,0,0,0-.491.235,1.03,1.03,0,0,0-.176.63V295.1a.289.289,0,0,1-.105.228.388.388,0,0,1-.263.091H183a.38.38,0,0,1-.272-.091.3.3,0,0,1-.1-.228v-5.435a.3.3,0,0,1,.1-.228.38.38,0,0,1,.272-.091h1.229a.387.387,0,0,1,.263.091.289.289,0,0,1,.105.228v.258a1.567,1.567,0,0,1,.737-.509,2.85,2.85,0,0,1,.9-.144,2.656,2.656,0,0,1,.851.152,1.8,1.8,0,0,1,.781.531,2.107,2.107,0,0,1,.939-.539,3.831,3.831,0,0,1,.992-.144,2.767,2.767,0,0,1,1.106.205,2.348,2.348,0,0,1,.8.554,2.224,2.224,0,0,1,.483.827,3.3,3.3,0,0,1,.158,1.04v3.2a.288.288,0,0,1-.105.228.388.388,0,0,1-.263.091h-1.72a.381.381,0,0,1-.272-.091.3.3,0,0,1-.1-.228Z" transform="translate(-151.684 -240.25)" fill="#6da1fe"/>
    <path id="Path_1415" data-name="Path 1415" d="M247.32,273.075a1.192,1.192,0,1,1,.349.835,1.139,1.139,0,0,1-.349-.835m2.247,7.592a.311.311,0,0,1-.319.319H247.76a.3.3,0,0,1-.236-.091.325.325,0,0,1-.083-.228v-5.435a.324.324,0,0,1,.083-.228.3.3,0,0,1,.236-.091h1.488a.311.311,0,0,1,.319.319Z" transform="translate(-205.407 -225.814)" fill="#6da1fe"/>
    <path id="Path_1416" data-name="Path 1416" d="M270.521,289.348a.547.547,0,0,1,.3.061.573.573,0,0,1,.168.243l.08.319a1.368,1.368,0,0,1,.385-.349,2.069,2.069,0,0,1,.473-.213,2.954,2.954,0,0,1,.5-.106,3.7,3.7,0,0,1,.441-.03,2.779,2.779,0,0,1,1.179.228,2.179,2.179,0,0,1,.794.607,2.406,2.406,0,0,1,.441.873,3.9,3.9,0,0,1,.136,1.04V295.1a.316.316,0,0,1-.088.228.331.331,0,0,1-.249.091H273.5a.337.337,0,0,1-.241-.091.3.3,0,0,1-.1-.228v-2.87q0-.2-.016-.372a.634.634,0,0,0-.1-.3.61.61,0,0,0-.249-.2,1.072,1.072,0,0,0-.449-.076.611.611,0,0,0-.569.281,1.29,1.29,0,0,0-.168.676v2.87a.316.316,0,0,1-.088.228.331.331,0,0,1-.249.091H269.7a.336.336,0,0,1-.241-.091.3.3,0,0,1-.1-.228v-5.435a.3.3,0,0,1,.1-.228.336.336,0,0,1,.241-.091Z" transform="translate(-223.717 -240.25)" fill="#6da1fe"/>
    <path id="Path_1417" data-name="Path 1417" d="M318.986,295.794a.522.522,0,0,1-.291-.061.567.567,0,0,1-.165-.243l-.079-.319a1.409,1.409,0,0,1-.786.569,3.308,3.308,0,0,1-.864.129,2.78,2.78,0,0,1-1.171-.228,2.253,2.253,0,0,1-.809-.607,2.576,2.576,0,0,1-.472-.873,3.408,3.408,0,0,1-.157-1.04V290.04a.3.3,0,0,1,.33-.319h1.54a.326.326,0,0,1,.236.091.3.3,0,0,1,.094.228v3.021q0,.2.016.372a.636.636,0,0,0,.1.3.6.6,0,0,0,.244.205,1.031,1.031,0,0,0,.44.076.594.594,0,0,0,.558-.281,1.311,1.311,0,0,0,.165-.676V290.04a.305.305,0,0,1,.33-.319h1.54a.326.326,0,0,1,.236.091.3.3,0,0,1,.094.228v5.436a.3.3,0,0,1-.094.228.326.326,0,0,1-.236.091Z" transform="translate(-260.948 -240.623)" fill="#6da1fe"/>
    <path id="Path_1418" data-name="Path 1418" d="M357.858,289.291a2.911,2.911,0,0,1-.569.152,4.309,4.309,0,0,1-.6.036,3.328,3.328,0,0,1-.919-.116,1.551,1.551,0,0,1-.683-.4,1.786,1.786,0,0,1-.425-.775,4.442,4.442,0,0,1-.144-1.231v-1.521h-.774a.333.333,0,0,1-.228-.08.282.282,0,0,1-.091-.224v-1.289a.288.288,0,0,1,.091-.217.317.317,0,0,1,.228-.087h.774V282.33a.3.3,0,0,1,.084-.217.311.311,0,0,1,.235-.087h1.488a.317.317,0,0,1,.228.087.288.288,0,0,1,.091.217v1.211h1.048a.316.316,0,0,1,.228.087.287.287,0,0,1,.091.217v1.289a.281.281,0,0,1-.091.224.333.333,0,0,1-.228.08h-1.048v1.332a2.282,2.282,0,0,0,.084.681.374.374,0,0,0,.4.261h.129a.205.205,0,0,0,.061-.007l.053-.015a.532.532,0,0,1,.106-.007.425.425,0,0,1,.121-.014.312.312,0,0,1,.182.065.32.32,0,0,1,.121.152l.182,1.014a.128.128,0,0,1,.015.058v.058a.223.223,0,0,1-.1.188.6.6,0,0,1-.144.087" transform="translate(-293.531 -234.232)" fill="#6da1fe"/>
    <path id="Path_1419" data-name="Path 1419" d="M390.718,292.153a.3.3,0,0,1-.095.228.329.329,0,0,1-.237.091h-3.554a.748.748,0,0,0,.19.4.979.979,0,0,0,.324.22,1.385,1.385,0,0,0,.379.1,3.109,3.109,0,0,0,.355.023,6.886,6.886,0,0,0,.734-.038,2.58,2.58,0,0,0,.766-.22.186.186,0,0,1,.079-.015.275.275,0,0,1,.205.106l.426.683a.355.355,0,0,1,.079.212.42.42,0,0,1-.079.258,1.311,1.311,0,0,1-.411.357,2.738,2.738,0,0,1-.545.235,3.391,3.391,0,0,1-.624.129,5.62,5.62,0,0,1-.632.038,5.049,5.049,0,0,1-1.3-.167,3.1,3.1,0,0,1-1.122-.547,2.785,2.785,0,0,1-.79-.987,3.3,3.3,0,0,1-.3-1.473,3.961,3.961,0,0,1,.174-1.192,2.5,2.5,0,0,1,.553-.964,2.7,2.7,0,0,1,.964-.653,3.613,3.613,0,0,1,1.39-.243,3.89,3.89,0,0,1,1.209.182,2.7,2.7,0,0,1,.972.547,2.56,2.56,0,0,1,.648.911,3.183,3.183,0,0,1,.237,1.275Zm-3.033-1.534a2.218,2.218,0,0,0-.245.015.709.709,0,0,0-.261.084.64.64,0,0,0-.221.2,1.006,1.006,0,0,0-.142.38h1.69a.778.778,0,0,0-.134-.365.725.725,0,0,0-.466-.3,1.278,1.278,0,0,0-.221-.023" transform="translate(-319.401 -239.806)" fill="#6da1fe"/>
    <path id="Path_1420" data-name="Path 1420" d="M428.282,311.96a1.259,1.259,0,1,1-1.259-1.259,1.259,1.259,0,0,1,1.259,1.259" transform="translate(-353.611 -258.047)" fill="#febe10"/>
    <path id="Path_1421" data-name="Path 1421" d="M874.237,311.96a1.259,1.259,0,1,1-1.259-1.259,1.259,1.259,0,0,1,1.259,1.259" transform="translate(-723.992 -258.047)" fill="#febe10"/>
  </g>
</svg>
