<svg id="New_logo" data-name="New logo" xmlns="http://www.w3.org/2000/svg" xmlns:xlink="http://www.w3.org/1999/xlink" width="189.329" height="131.772" viewBox="0 0 189.329 131.772">
  <defs>
    <clipPath id="clip-path">
      <rect id="Rectangle_1162" data-name="Rectangle 1162" width="189.329" height="131.772" fill="none"/>
    </clipPath>
  </defs>
  <g id="Group_603" data-name="Group 603" clip-path="url(#clip-path)">
    <path id="Path_1422" data-name="Path 1422" d="M0,75.642V4.561H30.228c.336,2.442.645,4.7.924,6.722C33.91,9.468,36.566,7.541,39.4,5.921a16.886,16.886,0,0,1,5.879-2.35C53.1,2.54,60.914,2.3,67.709,7.375A15.7,15.7,0,0,1,70.8,10.893c1.277,1.777,2.3,1.224,3.635.032a45.436,45.436,0,0,1,6.292-5,24.635,24.635,0,0,1,11-2.95,48.912,48.912,0,0,1,10.168.668c4.081.569,7.354,2.963,10.093,6.027a2.49,2.49,0,0,1,.2,3.347,121.955,121.955,0,0,0-6.319,11.566,22.749,22.749,0,0,0-1.758,7.818,111.208,111.208,0,0,0-.067,14.413,39.888,39.888,0,0,0,7.016,19.4c1.83,2.749,3.97,5.292,5.958,7.938a15.158,15.158,0,0,1,.773,1.344H88.43c0-.681,0-1.422,0-2.164,0-12.241.022-24.481-.019-36.722a23.452,23.452,0,0,0-.557-4.283,4.565,4.565,0,0,0-3.769-3.835c-2.165-.451-4.355-.006-5.524,1.876a12.25,12.25,0,0,0-2.083,5.849c-.2,12.376-.129,24.756-.147,37.135,0,.686,0,1.372,0,2.232H44.047c0-.733,0-1.532,0-2.332-.026-12.31-.007-24.619-.13-36.928a13.383,13.383,0,0,0-1.178-5.148,4.59,4.59,0,0,0-6.875-2.09,7.425,7.425,0,0,0-4.041,6.883c.135,12.861.079,25.725.09,38.588,0,.331-.043.661-.073,1.092Z" transform="translate(0 -1.715)" fill="#6da1fe"/>
    <path id="Path_1423" data-name="Path 1423" d="M295.93,45.823a8.48,8.48,0,0,0,4.1,5.92c5.37,3.151,13.266,2.827,18.095-1.135,1.689-1.386,2.918-1.335,4.766-.363,5.489,2.888,11.091,5.561,16.671,8.272,2.911,1.414,2.993,2.069.989,4.516A36.146,36.146,0,0,1,316.14,76.167c-7.617.889-15.386,1.037-23.122-1.684-6.845-2.407-12.974-5.468-17.66-10.872a35.726,35.726,0,0,1-8.74-20.054c-.723-6.538-.678-12.841,1.823-18.787,4.889-11.625,13.4-19.682,25.742-22.961C306.494-1.464,318.508-.6,329.236,6.9a35.879,35.879,0,0,1,14.643,22.363c1.038,4.783.653,9.871.947,14.818.1,1.634-.915,1.719-2.119,1.719q-13.607,0-27.214.023c-6.437,0-12.874,0-19.563,0m.8-22.294c0,1.521.02,3.042-.006,4.562s-.146,3.036-.14,4.554c.017,3.7,2.63,5.283,5.91,3.534,4.695-2.5,9.375-5.037,14.008-7.653a33.72,33.72,0,0,0,3.139-2.5c2.66-1.961,2.607-3.755-.324-5.467q-8.4-4.9-16.869-9.678c-3.181-1.791-5.667-.321-5.71,3.314-.036,3.11-.008,6.221-.008,9.332" transform="translate(-155.504 0)" fill="#6da1fe"/>
    <path id="Path_1424" data-name="Path 1424" d="M347.03,51.174v-20.9l18.926,10.968L347.649,51.7l-.619-.526" transform="translate(-202.713 -17.687)" fill="#febe10"/>
    <path id="Path_1425" data-name="Path 1425" d="M429.506,4.364a3.881,3.881,0,0,1,1.555.312,4.011,4.011,0,0,1,2.117,2.117,3.987,3.987,0,0,1,0,3.1,4.011,4.011,0,0,1-2.117,2.117,3.874,3.874,0,0,1-1.555.313,3.832,3.832,0,0,1-1.54-.313,4.019,4.019,0,0,1-2.118-2.117,4,4,0,0,1,0-3.1,4.019,4.019,0,0,1,2.118-2.117,3.839,3.839,0,0,1,1.54-.312m0,7.3a3,3,0,0,0,1.27-.277,3.617,3.617,0,0,0,1.8-1.8,2.969,2.969,0,0,0,.278-1.256,3,3,0,0,0-.278-1.27,3.619,3.619,0,0,0-1.8-1.8,3,3,0,0,0-1.27-.277,2.973,2.973,0,0,0-1.256.277,3.62,3.62,0,0,0-1.8,1.8,3,3,0,0,0-.278,1.27,2.969,2.969,0,0,0,.278,1.256,3.619,3.619,0,0,0,1.8,1.8,2.973,2.973,0,0,0,1.256.277m0-2.485h-.75v1.333a.086.086,0,0,1-.1.1h-.722a.086.086,0,0,1-.1-.1V6.155a.086.086,0,0,1,.1-.1H429.6a2.369,2.369,0,0,1,.882.139,1.33,1.33,0,0,1,.534.375,1.3,1.3,0,0,1,.264.534,2.645,2.645,0,0,1,.07.6,1.482,1.482,0,0,1-.237.833,1.422,1.422,0,0,1-.6.528l.861,1.444a.086.086,0,0,1-.1.1h-.861a.12.12,0,0,1-.124-.1Zm.417-.778a.433.433,0,0,0,.361-.243.964.964,0,0,0,.153-.521,1.037,1.037,0,0,0-.132-.514.474.474,0,0,0-.451-.236h-1.1V8.4Z" transform="translate(-248.571 -2.549)" fill="#6da1fe"/>
    <path id="Path_1426" data-name="Path 1426" d="M58.113,218.144a.506.506,0,0,1,.435-.29h2a.256.256,0,0,1,.289.29L54.694,228.17v5.882a.231.231,0,0,1-.261.261h-1.8a.23.23,0,0,1-.26-.261V228.17l-6.144-10.026a.257.257,0,0,1,.29-.29h2a.505.505,0,0,1,.435.29l4.578,7.563Z" transform="translate(-27.006 -127.256)" fill="#febe10"/>
    <path id="Path_1427" data-name="Path 1427" d="M87.975,241.092a5.757,5.757,0,0,1-2.318-.478,6.077,6.077,0,0,1-3.2-3.188,5.729,5.729,0,0,1-.478-2.333,5.46,5.46,0,0,1,.478-2.274,6.271,6.271,0,0,1,1.29-1.869,6.014,6.014,0,0,1,8.461,0A6.27,6.27,0,0,1,93.5,232.82a5.453,5.453,0,0,1,.478,2.274,5.723,5.723,0,0,1-.478,2.333,6.073,6.073,0,0,1-3.2,3.188,5.756,5.756,0,0,1-2.318.478m-.029-1.913a3.482,3.482,0,0,0,1.434-.3,3.7,3.7,0,0,0,1.188-.84,3.879,3.879,0,0,0,.8-1.29,4.485,4.485,0,0,0,.29-1.623,4.145,4.145,0,0,0-.29-1.579,3.5,3.5,0,0,0-.8-1.2,3.466,3.466,0,0,0-1.188-.754,3.976,3.976,0,0,0-1.434-.261,3.751,3.751,0,0,0-1.406.261,3.527,3.527,0,0,0-1.159.754,3.483,3.483,0,0,0-.8,1.2,4.137,4.137,0,0,0-.29,1.579,4.475,4.475,0,0,0,.29,1.623,3.859,3.859,0,0,0,.8,1.29,3.789,3.789,0,0,0,1.159.84,3.288,3.288,0,0,0,1.406.3" transform="translate(-47.886 -133.891)" fill="#febe10"/>
    <path id="Path_1428" data-name="Path 1428" d="M129.145,239.731a3.7,3.7,0,0,1-1.869,1.3,7.335,7.335,0,0,1-1.84.261,6.167,6.167,0,0,1-2.419-.406,3.686,3.686,0,0,1-1.507-1.144,4.332,4.332,0,0,1-.782-1.767,11.163,11.163,0,0,1-.217-2.3v-5.853a.23.23,0,0,1,.261-.261h1.8a.23.23,0,0,1,.261.261v6.085a11.6,11.6,0,0,0,.072,1.347,2.57,2.57,0,0,0,.377,1.1,2.03,2.03,0,0,0,.927.754,4.269,4.269,0,0,0,1.695.275,2.94,2.94,0,0,0,1.333-.29,2.843,2.843,0,0,0,.971-.782,3.289,3.289,0,0,0,.58-1.13,4.794,4.794,0,0,0,.188-1.362v-6a.23.23,0,0,1,.261-.261h1.8a.23.23,0,0,1,.261.261V240.89a.23.23,0,0,1-.261.261h-1.391a.39.39,0,0,1-.376-.261Z" transform="translate(-70.394 -134.094)" fill="#febe10"/>
    <path id="Path_1429" data-name="Path 1429" d="M164.959,231.24a3.564,3.564,0,0,0-1.71.362,2.748,2.748,0,0,0-1.029.927,3.71,3.71,0,0,0-.507,1.26,6.78,6.78,0,0,0-.145,1.391v5.505a.23.23,0,0,1-.26.261h-1.8a.231.231,0,0,1-.261-.261V229.617a.231.231,0,0,1,.261-.261H160.9a.429.429,0,0,1,.377.261l.145,1.246a2.927,2.927,0,0,1,.826-.913,3.7,3.7,0,0,1,.971-.492,4.486,4.486,0,0,1,.971-.2q.478-.043.826-.043h.434a.231.231,0,0,1,.261.261v1.507a.231.231,0,0,1-.261.261Z" transform="translate(-93.024 -133.891)" fill="#febe10"/>
    <path id="Path_1430" data-name="Path 1430" d="M58.113,277.227a.506.506,0,0,1,.435-.29h2a.256.256,0,0,1,.289.29l-6.143,10.026v5.882a.231.231,0,0,1-.261.261h-1.8a.23.23,0,0,1-.26-.261v-5.882l-6.144-10.026a.256.256,0,0,1,.29-.29h2a.5.5,0,0,1,.435.29l4.578,7.563Z" transform="translate(-27.006 -161.769)" fill="#6da1fe"/>
    <path id="Path_1431" data-name="Path 1431" d="M86.282,299.221a5.49,5.49,0,0,1-2.318-.506,6.1,6.1,0,0,1-1.912-1.363,6.54,6.54,0,0,1-1.29-2.007,6.353,6.353,0,0,1-.478-2.466,6.056,6.056,0,0,1,.478-2.4,6.654,6.654,0,0,1,1.29-1.976,5.919,5.919,0,0,1,1.912-1.348,5.726,5.726,0,0,1,4.636,0,5.925,5.925,0,0,1,1.913,1.348,6.653,6.653,0,0,1,1.289,1.976,6.049,6.049,0,0,1,.478,2.4,6.346,6.346,0,0,1-.478,2.466,6.538,6.538,0,0,1-1.289,2.007,6.111,6.111,0,0,1-1.913,1.363,5.489,5.489,0,0,1-2.318.506m-.029-2.022a3.322,3.322,0,0,0,1.434-.321,3.7,3.7,0,0,0,1.188-.889,4.145,4.145,0,0,0,.8-1.363,4.984,4.984,0,0,0,.29-1.715,4.6,4.6,0,0,0-.29-1.669,3.722,3.722,0,0,0-.8-1.271,3.449,3.449,0,0,0-1.188-.8,3.777,3.777,0,0,0-1.434-.276,3.565,3.565,0,0,0-1.406.276,3.515,3.515,0,0,0-1.159.8,3.7,3.7,0,0,0-.8,1.271,4.6,4.6,0,0,0-.29,1.669,4.974,4.974,0,0,0,.29,1.715,4.123,4.123,0,0,0,.8,1.363,3.8,3.8,0,0,0,1.159.889,3.138,3.138,0,0,0,1.406.321" transform="translate(-46.897 -167.449)" fill="#6da1fe"/>
    <path id="Path_1432" data-name="Path 1432" d="M126.725,297.547a3.7,3.7,0,0,1-1.869,1.4,6.892,6.892,0,0,1-1.84.279,5.811,5.811,0,0,1-2.419-.434,3.727,3.727,0,0,1-1.507-1.225,4.8,4.8,0,0,1-.782-1.892,12.758,12.758,0,0,1-.217-2.466v-6.264q0-.279.261-.279h1.8q.261,0,.261.279v6.512a13.289,13.289,0,0,0,.072,1.442,2.882,2.882,0,0,0,.377,1.179,2.068,2.068,0,0,0,.927.806,4.02,4.02,0,0,0,1.695.294,2.783,2.783,0,0,0,1.333-.31,2.89,2.89,0,0,0,.971-.838,3.616,3.616,0,0,0,.58-1.209,5.471,5.471,0,0,0,.188-1.458v-6.419q0-.279.261-.279h1.8q.261,0,.261.279v11.846q0,.279-.261.279h-1.391a.392.392,0,0,1-.376-.279Z" transform="translate(-68.981 -167.45)" fill="#6da1fe"/>
    <path id="Path_1433" data-name="Path 1433" d="M161.088,288.807a3.4,3.4,0,0,0-1.71.383,2.812,2.812,0,0,0-1.029.981,4.058,4.058,0,0,0-.507,1.334,7.573,7.573,0,0,0-.145,1.471V298.8q0,.276-.26.276h-1.8q-.261,0-.261-.276V287.09q0-.276.261-.276h1.391a.429.429,0,0,1,.377.276l.145,1.318a3.044,3.044,0,0,1,.826-.966,3.626,3.626,0,0,1,.971-.521,4.266,4.266,0,0,1,.971-.215q.478-.046.826-.046h.434q.261,0,.261.276v1.594q0,.276-.261.276Z" transform="translate(-90.763 -167.449)" fill="#6da1fe"/>
    <path id="Path_1434" data-name="Path 1434" d="M399.067,281.166h-.845a.044.044,0,0,1-.05-.05v-.289a.044.044,0,0,1,.05-.05h2.128a.044.044,0,0,1,.05.05v.289a.044.044,0,0,1-.05.05h-.839v2.718a.044.044,0,0,1-.05.05h-.345a.044.044,0,0,1-.05-.05Z" transform="translate(-232.587 -164.012)" fill="#6da1fe"/>
    <path id="Path_1435" data-name="Path 1435" d="M406.961,283.032c-.015,0-.033-.013-.055-.039l-1.006-1.151v2.017a.044.044,0,0,1-.049.05H405.5a.044.044,0,0,1-.05-.05v-3.1a.044.044,0,0,1,.033-.022.031.031,0,0,1,.022.006l.017.016,1.384,1.567.025.025a.035.035,0,0,0,.025.008.034.034,0,0,0,.025-.008l.025-.025,1.384-1.567.017-.016a.032.032,0,0,1,.022-.006.045.045,0,0,1,.033.022v3.1a.044.044,0,0,1-.05.05h-.344a.044.044,0,0,1-.05-.05v-2.017l-1.006,1.151c-.022.026-.041.039-.056.039" transform="translate(-236.841 -163.989)" fill="#6da1fe"/>
    <path id="Path_1436" data-name="Path 1436" d="M201.594,294.107a3.81,3.81,0,0,0,.819-.091,2.686,2.686,0,0,0,.912-.426,1.457,1.457,0,0,1,.741-.274.846.846,0,0,1,.309.061.569.569,0,0,1,.247.183l1.205,1.249a3.335,3.335,0,0,1,.2.3.715.715,0,0,1,.108.366,1.2,1.2,0,0,1-.046.32,1.26,1.26,0,0,1-.139.32,4.786,4.786,0,0,1-2.209,1.386,9.068,9.068,0,0,1-2.364.32,6.3,6.3,0,0,1-2.5-.5,6.553,6.553,0,0,1-3.445-3.382,5.872,5.872,0,0,1-.51-2.422,5.768,5.768,0,0,1,.51-2.407,6.224,6.224,0,0,1,1.391-1.965,6.643,6.643,0,0,1,2.055-1.325,6.472,6.472,0,0,1,2.5-.487,7.6,7.6,0,0,1,2.379.4,5.7,5.7,0,0,1,2.1,1.219,1.177,1.177,0,0,1,.139.35,1.491,1.491,0,0,1,.047.259.771.771,0,0,1-.093.381,1.127,1.127,0,0,1-.185.259l-1.267,1.584a.915.915,0,0,1-.325.168,1.1,1.1,0,0,1-.232.045h-.185a3.5,3.5,0,0,1-.34-.122l-.062-.03q-.341-.152-.85-.32a3.716,3.716,0,0,0-1.159-.168,2.053,2.053,0,0,0-2.1,2.193,2.644,2.644,0,0,0,.665,1.8,2.138,2.138,0,0,0,1.684.761" transform="translate(-113.859 -166.673)" fill="#6da1fe"/>
    <path id="Path_1437" data-name="Path 1437" d="M228.654,274.033a.616.616,0,0,1,.185-.457.634.634,0,0,1,.464-.183h3.028a.623.623,0,0,1,.479.183.647.647,0,0,1,.17.457v5a2.923,2.923,0,0,1,1.267-.564,7.151,7.151,0,0,1,1.143-.107,5.167,5.167,0,0,1,2.271.457,4.223,4.223,0,0,1,1.53,1.219,4.9,4.9,0,0,1,.85,1.752,8.123,8.123,0,0,1,.262,2.087v6.184a.646.646,0,0,1-.17.457.621.621,0,0,1-.479.183h-3.029a.632.632,0,0,1-.463-.183.615.615,0,0,1-.185-.457V284.3c0-.264-.011-.513-.031-.746a1.308,1.308,0,0,0-.2-.609,1.187,1.187,0,0,0-.479-.411,2,2,0,0,0-.865-.153,1.162,1.162,0,0,0-1.1.564,2.673,2.673,0,0,0-.325,1.356v5.758a.647.647,0,0,1-.17.457.622.622,0,0,1-.479.183H229.3a.632.632,0,0,1-.464-.183.615.615,0,0,1-.185-.457Z" transform="translate(-133.565 -159.699)" fill="#6da1fe"/>
    <path id="Path_1438" data-name="Path 1438" d="M271.5,296.423a3.179,3.179,0,0,1-.982.792,5.54,5.54,0,0,1-1.05.411,5,5,0,0,1-.914.167c-.271.02-.44.03-.508.03a8.644,8.644,0,0,1-1.117-.106,4.34,4.34,0,0,1-1.489-.518,4.012,4.012,0,0,1-1.32-1.219,3.736,3.736,0,0,1-.576-2.208,3.213,3.213,0,0,1,.339-1.523,2.926,2.926,0,0,1,.931-1.051,3.96,3.96,0,0,1,1.405-.594,8.015,8.015,0,0,1,1.76-.183,11.944,11.944,0,0,1,1.3.091,4.35,4.35,0,0,1,1.371.366,1.893,1.893,0,0,0-.728-1.234,2.885,2.885,0,0,0-1.439-.289q-.3,0-.914.015a5.138,5.138,0,0,0-1.185.168,1.564,1.564,0,0,1-.254.03h-.152a1.4,1.4,0,0,1-.508-.091.714.714,0,0,1-.372-.335l-.745-1.889a1.7,1.7,0,0,1-.068-.457.773.773,0,0,1,.406-.7,12.1,12.1,0,0,1,2.506-.655,16.742,16.742,0,0,1,1.862-.106q3.284,0,4.808,1.508a5.463,5.463,0,0,1,1.524,4.067v6.123a.589.589,0,0,1-.2.457.73.73,0,0,1-.508.183H272.65a1.192,1.192,0,0,1-.626-.122,1.143,1.143,0,0,1-.356-.487Zm-2.1-2.011a3.416,3.416,0,0,0,.525-.076,1.841,1.841,0,0,0,.728-.32v-.731a1.755,1.755,0,0,0-.508-.289,1.966,1.966,0,0,0-.745-.137q-1.49,0-1.49.761a.625.625,0,0,0,.406.609,2.673,2.673,0,0,0,1.083.183" transform="translate(-153.945 -166.674)" fill="#6da1fe"/>
    <path id="Path_1439" data-name="Path 1439" d="M301.137,285.486a1.113,1.113,0,0,1,.6.122,1.152,1.152,0,0,1,.341.487l.162.64a2.759,2.759,0,0,1,.779-.7,4.214,4.214,0,0,1,.958-.427,6.022,6.022,0,0,1,1.007-.213,7.577,7.577,0,0,1,.893-.061,5.666,5.666,0,0,1,2.387.457,4.405,4.405,0,0,1,1.607,1.218,4.808,4.808,0,0,1,.893,1.752,7.747,7.747,0,0,1,.276,2.087v6.184a.63.63,0,0,1-.179.457.672.672,0,0,1-.5.183h-3.182a.685.685,0,0,1-.487-.183.6.6,0,0,1-.2-.457v-5.758q0-.4-.032-.746a1.263,1.263,0,0,0-.211-.609,1.234,1.234,0,0,0-.5-.411,2.192,2.192,0,0,0-.909-.152,1.239,1.239,0,0,0-1.153.564,2.57,2.57,0,0,0-.341,1.356v5.758a.63.63,0,0,1-.178.457.673.673,0,0,1-.5.183h-3.182a.684.684,0,0,1-.487-.183.6.6,0,0,1-.2-.457V286.126a.6.6,0,0,1,.2-.457.684.684,0,0,1,.487-.183Z" transform="translate(-174.539 -166.674)" fill="#6da1fe"/>
    <path id="Path_1440" data-name="Path 1440" d="M340.594,294.107a4.653,4.653,0,0,0,.907-.091,3.129,3.129,0,0,0,1.009-.426,1.729,1.729,0,0,1,.821-.274,1.024,1.024,0,0,1,.342.061.628.628,0,0,1,.274.183l1.335,1.249a3.343,3.343,0,0,1,.222.3.664.664,0,0,1,.12.366,1.107,1.107,0,0,1-.051.32,1.213,1.213,0,0,1-.154.32,5.412,5.412,0,0,1-2.447,1.386,11.056,11.056,0,0,1-2.617.32,7.625,7.625,0,0,1-2.772-.5,7.4,7.4,0,0,1-2.275-1.371,6.568,6.568,0,0,1-1.54-2.011,5.4,5.4,0,0,1-.564-2.422,5.307,5.307,0,0,1,.564-2.407,6.278,6.278,0,0,1,1.54-1.965,7.493,7.493,0,0,1,2.275-1.325,7.842,7.842,0,0,1,2.772-.487,9.238,9.238,0,0,1,2.634.4,6.5,6.5,0,0,1,2.327,1.219,1.115,1.115,0,0,1,.154.35,1.361,1.361,0,0,1,.052.259.716.716,0,0,1-.1.381,1.138,1.138,0,0,1-.205.259l-1.4,1.584a1.053,1.053,0,0,1-.359.168,1.341,1.341,0,0,1-.257.045h-.205c-.205-.061-.331-.1-.376-.122l-.069-.03q-.377-.152-.941-.32a4.522,4.522,0,0,0-1.283-.168,2.461,2.461,0,0,0-1.643.579,2,2,0,0,0-.685,1.614,2.557,2.557,0,0,0,2.6,2.559" transform="translate(-194.636 -166.673)" fill="#6da1fe"/>
    <path id="Path_1441" data-name="Path 1441" d="M379.345,292.188a.6.6,0,0,1-.2.457.706.706,0,0,1-.5.183H371.2a1.478,1.478,0,0,0,.4.807,2.061,2.061,0,0,0,.678.442,3,3,0,0,0,.795.2,6.858,6.858,0,0,0,.744.046,15.141,15.141,0,0,0,1.539-.076,5.584,5.584,0,0,0,1.605-.442.408.408,0,0,1,.166-.03.586.586,0,0,1,.43.213l.893,1.371a.694.694,0,0,1,.165.426.817.817,0,0,1-.165.518,2.717,2.717,0,0,1-.86.716,5.882,5.882,0,0,1-1.142.472,7.384,7.384,0,0,1-1.308.259,12.194,12.194,0,0,1-1.324.076,11.02,11.02,0,0,1-2.714-.335,6.608,6.608,0,0,1-2.35-1.1,5.631,5.631,0,0,1-1.655-1.98,6.381,6.381,0,0,1-.629-2.955,7.641,7.641,0,0,1,.364-2.392,4.976,4.976,0,0,1,1.159-1.934,5.668,5.668,0,0,1,2.019-1.31,7.864,7.864,0,0,1,2.912-.488,8.471,8.471,0,0,1,2.532.366,5.729,5.729,0,0,1,2.036,1.1,5.138,5.138,0,0,1,1.357,1.828,6.146,6.146,0,0,1,.5,2.559Zm-6.354-3.077a4.9,4.9,0,0,0-.513.03,1.545,1.545,0,0,0-.546.168,1.33,1.33,0,0,0-.463.411,1.967,1.967,0,0,0-.3.762h3.541a1.522,1.522,0,0,0-.281-.732,1.559,1.559,0,0,0-.464-.411,1.635,1.635,0,0,0-.513-.183,2.784,2.784,0,0,0-.463-.046" transform="translate(-214.068 -166.673)" fill="#6da1fe"/>
    <path id="Path_1442" data-name="Path 1442" d="M206.759,232.607a1.259,1.259,0,0,0-.419-1.073,1.466,1.466,0,0,0-.893-.315,2.035,2.035,0,0,0-.821.205.818.818,0,0,0-.529.552,1.86,1.86,0,0,1,.037.347v6.846a.6.6,0,0,1-.219.473.808.808,0,0,1-.547.189h-3.1a.791.791,0,0,1-.565-.189.624.624,0,0,1-.2-.473v-6.152a2,2,0,0,0-.4-1.309,1.167,1.167,0,0,0-.912-.489,1.2,1.2,0,0,0-1.021.489,2.138,2.138,0,0,0-.365,1.309v6.152a.6.6,0,0,1-.218.473.808.808,0,0,1-.547.189h-3.574a.793.793,0,0,1-.566-.189.623.623,0,0,1-.2-.473V227.874a.623.623,0,0,1,.2-.473.793.793,0,0,1,.566-.189h2.553a.808.808,0,0,1,.547.189.6.6,0,0,1,.219.473v.536a3.261,3.261,0,0,1,1.532-1.057,5.922,5.922,0,0,1,1.86-.3,5.514,5.514,0,0,1,1.769.315,3.742,3.742,0,0,1,1.623,1.1,4.384,4.384,0,0,1,1.951-1.12,7.96,7.96,0,0,1,2.061-.3,5.746,5.746,0,0,1,2.3.426,4.871,4.871,0,0,1,1.66,1.152,4.624,4.624,0,0,1,1,1.719,6.859,6.859,0,0,1,.328,2.161v6.657a.6.6,0,0,1-.219.473.808.808,0,0,1-.547.189h-3.574a.791.791,0,0,1-.565-.189.624.624,0,0,1-.2-.473Z" transform="translate(-111.977 -132.631)" fill="#febe10"/>
    <path id="Path_1443" data-name="Path 1443" d="M246.471,214.8a2.478,2.478,0,1,1,.726,1.735,2.367,2.367,0,0,1-.726-1.735m4.669,15.775a.647.647,0,0,1-.663.662h-3.092a.63.63,0,0,1-.489-.189.674.674,0,0,1-.173-.473V219.277a.674.674,0,0,1,.173-.473.63.63,0,0,1,.489-.189h3.092a.647.647,0,0,1,.663.662Z" transform="translate(-143.973 -124.033)" fill="#febe10"/>
    <path id="Path_1444" data-name="Path 1444" d="M267.539,227.212a1.133,1.133,0,0,1,.616.126,1.192,1.192,0,0,1,.35.5l.167.662a2.853,2.853,0,0,1,.8-.725,4.3,4.3,0,0,1,.983-.442,6.071,6.071,0,0,1,1.033-.22,7.674,7.674,0,0,1,.917-.063,5.772,5.772,0,0,1,2.45.473,4.527,4.527,0,0,1,1.65,1.262,4.994,4.994,0,0,1,.917,1.814,8.1,8.1,0,0,1,.283,2.161v6.4a.655.655,0,0,1-.183.473.687.687,0,0,1-.517.189h-3.267a.7.7,0,0,1-.5-.189.625.625,0,0,1-.2-.473v-5.963q0-.41-.033-.773a1.317,1.317,0,0,0-.217-.631,1.268,1.268,0,0,0-.517-.426,2.233,2.233,0,0,0-.933-.158,1.267,1.267,0,0,0-1.183.584,2.678,2.678,0,0,0-.35,1.4v5.963a.655.655,0,0,1-.183.473.687.687,0,0,1-.517.189h-3.267a.7.7,0,0,1-.5-.189.626.626,0,0,1-.2-.473V227.874a.626.626,0,0,1,.2-.473.7.7,0,0,1,.5-.189Z" transform="translate(-154.877 -132.631)" fill="#febe10"/>
    <path id="Path_1445" data-name="Path 1445" d="M313.056,240.053a1.088,1.088,0,0,1-.6-.126,1.18,1.18,0,0,1-.343-.5l-.163-.662a2.929,2.929,0,0,1-1.633,1.183,6.861,6.861,0,0,1-1.8.268,5.775,5.775,0,0,1-2.433-.473,4.676,4.676,0,0,1-1.681-1.262,5.35,5.35,0,0,1-.98-1.814,7.066,7.066,0,0,1-.326-2.161v-6.4a.634.634,0,0,1,.685-.662h3.2a.677.677,0,0,1,.49.189.632.632,0,0,1,.2.473v6.278q0,.41.033.773a1.322,1.322,0,0,0,.212.631,1.242,1.242,0,0,0,.506.426,2.146,2.146,0,0,0,.914.158,1.234,1.234,0,0,0,1.159-.583,2.725,2.725,0,0,0,.343-1.4V228.1a.635.635,0,0,1,.686-.662h3.2a.678.678,0,0,1,.49.189.632.632,0,0,1,.2.473V239.39a.632.632,0,0,1-.2.473.678.678,0,0,1-.49.189Z" transform="translate(-177.05 -132.852)" fill="#febe10"/>
    <path id="Path_1446" data-name="Path 1446" d="M345.53,236.014a6.041,6.041,0,0,1-1.183.316,8.907,8.907,0,0,1-1.246.075,6.925,6.925,0,0,1-1.909-.241,3.219,3.219,0,0,1-1.419-.828,3.713,3.713,0,0,1-.884-1.61,9.244,9.244,0,0,1-.3-2.558v-3.16H336.98a.692.692,0,0,1-.473-.165.587.587,0,0,1-.189-.467V224.7a.6.6,0,0,1,.189-.451.658.658,0,0,1,.473-.18h1.609V221.55a.624.624,0,0,1,.174-.452.646.646,0,0,1,.489-.181h3.092a.66.66,0,0,1,.473.181.6.6,0,0,1,.189.452v2.516h2.177a.657.657,0,0,1,.473.18.6.6,0,0,1,.189.451v2.679a.586.586,0,0,1-.189.467.691.691,0,0,1-.473.165h-2.177v2.769a4.733,4.733,0,0,0,.174,1.414.776.776,0,0,0,.836.542h.268a.434.434,0,0,0,.126-.015c.032-.01.068-.02.11-.03a1.13,1.13,0,0,1,.221-.015.878.878,0,0,1,.252-.03.647.647,0,0,1,.378.135.66.66,0,0,1,.252.316L346,235.2a.268.268,0,0,1,.032.121v.12a.464.464,0,0,1-.205.391,1.242,1.242,0,0,1-.3.18" transform="translate(-196.456 -129.046)" fill="#febe10"/>
    <path id="Path_1447" data-name="Path 1447" d="M375.462,233.7a.631.631,0,0,1-.2.474.684.684,0,0,1-.492.189h-7.386a1.553,1.553,0,0,0,.394.836,2.031,2.031,0,0,0,.672.457,2.878,2.878,0,0,0,.788.205,6.491,6.491,0,0,0,.739.047,14.3,14.3,0,0,0,1.526-.079,5.349,5.349,0,0,0,1.592-.457.388.388,0,0,1,.164-.031.57.57,0,0,1,.426.22l.887,1.42a.741.741,0,0,1,.164.442.872.872,0,0,1-.164.536,2.733,2.733,0,0,1-.853.742,5.715,5.715,0,0,1-1.132.489,7.086,7.086,0,0,1-1.3.268,11.606,11.606,0,0,1-1.313.079,10.5,10.5,0,0,1-2.692-.347,6.439,6.439,0,0,1-2.33-1.136A5.786,5.786,0,0,1,363.317,236a6.853,6.853,0,0,1-.624-3.06,8.221,8.221,0,0,1,.361-2.477,5.205,5.205,0,0,1,1.149-2,5.608,5.608,0,0,1,2-1.357,7.5,7.5,0,0,1,2.889-.5,8.084,8.084,0,0,1,2.511.378,5.619,5.619,0,0,1,2.019,1.136,5.315,5.315,0,0,1,1.346,1.893,6.613,6.613,0,0,1,.492,2.65Zm-6.3-3.186a4.607,4.607,0,0,0-.509.032,1.479,1.479,0,0,0-.542.173,1.335,1.335,0,0,0-.46.426,2.1,2.1,0,0,0-.3.789h3.512a1.619,1.619,0,0,0-.279-.757,1.506,1.506,0,0,0-.969-.615,2.632,2.632,0,0,0-.46-.047" transform="translate(-211.862 -132.365)" fill="#febe10"/>
    <path id="Path_1448" data-name="Path 1448" d="M402.8,247.816a2.616,2.616,0,1,1-2.616-2.616,2.616,2.616,0,0,1,2.616,2.616" transform="translate(-232.236 -143.23)" fill="#febe10"/>
    <path id="Path_1449" data-name="Path 1449" d="M408.018,306.9a2.616,2.616,0,1,1-2.616-2.616,2.616,2.616,0,0,1,2.616,2.616" transform="translate(-235.282 -177.743)" fill="#6da1fe"/>
  </g>
</svg>
