<?xml version="1.0" encoding="UTF-8"?>
<svg id="Layer_2" data-name="Layer 2" xmlns="http://www.w3.org/2000/svg" viewBox="0 0 201.28 201.28">
  <defs>
    <style>
      .cls-1 {
        fill: #fff;
        stroke-width: 0px;
      }
    </style>
  </defs>
  <g id="Layer_1-2" data-name="Layer 1">
    <path class="cls-1" d="M135.65,112.96v8.57H58.44l-.38-.38v-12.86c0-.85-1.62-1.55-2.4-1.64-7.06-.8-19.98,1.74-25.93-2.06-1.54-.98-2.85-3.01-2.95-4.87V35.17c.49-5.37,6.46-6.86,10.98-7.17,15.13-1.04,31.4.78,46.65-.01,5.3.63,10.64,1.65,11.21,7.96l-.03,63.25c-1,9.63-14.06,6.86-20.53,7.46-4.48.42-3.08,6.31-1,6.31h61.58ZM56.98,44.44c-.94.19-1.97,1.04-1.95,2.08l.02,42.1c.14,1.1,1.19,1.68,2.19,1.85,1.4.23,6.35.26,7.74.04,1.29-.2,2.4-1.29,2.41-2.63l-.06-41.29c-.2-1.09-1.05-1.94-2.14-2.14-1.27-.23-6.97-.25-8.2,0"/>
    <path class="cls-1" d="M164.08,28.5c4.99.46,9.59,2.4,9.97,7.93.57,8.21-.4,17.13-.07,25.42-.42,1.82-1.19,2.55-2.91,3.14-1.71.59-5.08.23-5.07,2.72.02,2.58,2.84,2.19,4.56,2.72,1.02.31,2.51,1.04,3.08,1.97.1.16.65,1.53.65,1.62v47.15l-.38.38h-27.86v-45.51c0-.19-.86-1.45-1.13-1.64-.45-.33-.98-.44-1.52-.5-1.67-.19-6.16-.21-7.79.02-.7.1-1.43.36-1.72,1.05l-.44,29.69h-27.99V28.5h58.62ZM135.14,44.94c-1.15.26-1.48,1.41-1.55,2.43-.19,3.03-.24,9.6.1,12.52.16,1.36.87,1.74,2.15,1.89,1.71.19,5.86.19,7.56,0,1.53-.17,2.47-1.09,2.65-2.64.31-2.53.25-8.76,0-11.36-.12-1.32-.74-2.65-2.17-2.88-1.21-.19-7.65-.21-8.76.04"/>
    <path class="cls-1" d="M147.94,16.9c-1.37-.21-3.77-1.82-4.66-2.91-4.48-5.49-.96-13.35,5.91-14h44.14c4.24.37,7.58,3.71,7.94,7.94v44.14c-.59,6.87-8.61,10.4-14,5.91-.88-.74-2.91-3.61-2.91-4.66V17.28l-.38-.38h-36.05Z"/>
    <path class="cls-1" d="M53.14,184.32c8.13,1.09,9.56,13.84,1.08,16.46-15.29,1.01-30.84.14-46.22.44-4.31-.37-7.54-3.65-7.94-7.94v-44.14c.6-6.94,8.78-10.47,14.13-5.79,1.01.88,2.77,3.48,2.77,4.79v35.8l.38.38h35.8Z"/>
    <path class="cls-1" d="M184.38,147.88c.2-1.31,1.86-3.78,2.91-4.66,5.43-4.54,13.36-.9,14,5.91v44.14c-.38,4.36-3.62,7.51-7.94,7.94h-44.14c-6.87-.59-10.4-8.61-5.91-13.99.86-1.03,3.62-2.91,4.91-2.91h35.8l.38-.38v-36.05Z"/>
    <path class="cls-1" d="M16.96,53.08c-1.09,8.17-13.85,9.54-16.46,1.08C-.5,38.87.36,23.32.06,7.94.43,3.63,3.71.4,8,0h44.14c6.85.59,10.39,8.63,5.91,14-.82.99-3.69,2.91-4.91,2.91H17.34l-.38.38v35.8Z"/>
    <path class="cls-1" d="M135.46,114.98v58.24h-27.61c-.7,0-2.72-1.02-2.92-1.87-.39-13.22-.39-26.65,0-39.87.63-1.31,1.85-1.87,3.24-2.06,4.31-.59,9.9.58,14.04-.08.49-.08,1.91-1.07,1.91-1.37v-12.99h11.35ZM123.53,165.07c.22-.2.37-.59.52-.86v-25.6c-.54-2.48-7.82-2.56-8.01.45l.06,24.91c.28,2.4,6.44,2.01,7.43,1.11"/>
    <path class="cls-1" d="M69.35,129.42c7.24-.91,15.98.53,23.38-.07,2.43.39,3.69,1.35,3.92,3.9-.77,11.66.99,24.56,0,36.07-.24,2.74-1.45,3.67-4.16,3.91-7.25.62-15.37-.49-22.71,0-2.04-.17-4.15-1.06-4.16-3.4v-37.07c.25-2.25,1.64-3.07,3.74-3.33M79.43,136.98c-1.25.2-2.14.83-2.45,2.09v24.42c.11,2.64,4.27,2.44,6.15,2.15,1.28-.2,2.02-1.12,2.17-2.37.88-7.34-.65-16.41-.03-23.94-.19-2.62-3.84-2.67-5.83-2.35"/>
    <path class="cls-1" d="M174.8,169.57c-.29,2.61-1.64,3.4-4.16,3.65-7.16.71-15.42-.53-22.7.01-1.67-.2-3.38-.55-4.04-2.27l.08-39.27c.56-1.46,2.01-2.13,3.49-2.31,7.07-.86,15.69.59,22.92-.04,1.62.2,3.43.61,4.03,2.28.07.19.38,1.32.38,1.39v22.06l-18.65.38c-.24.11-.72.69-.82.94-.32.79-.34,6.32-.18,7.36.14.91.99,1.75,1.89,1.89.82.13,3.93.13,4.66-.1,1.18-.36,1.58-1.84,1.75-2.91h10.97l.38.38c-.17,2.09.23,4.5,0,6.55M157.59,136.98c-1.09.16-2.23.61-2.45,1.84-.17.93-.14,7.42.1,8.19.21.66.88,1.13,1.54,1.23.85.13,4.42.13,5.17-.1.74-.23,1.37-1.31,1.48-2.05.21-1.33.16-6.34-.29-7.49-.76-1.95-3.76-1.89-5.55-1.63"/>
    <path class="cls-1" d="M57.56,145.24h-11.35v-6.68c0-.98-2.34-1.58-3.14-1.65-3.06-.26-4.94.06-5.19,3.4-.46,6.16-.28,14.96,0,21.2.19,4.23,1.51,4.55,5.69,4.15.83-.08,2.64-.66,2.64-1.65v-9.71h11.35v16.26c0,1.67-2.8,2.54-4.15,2.66-7.24.62-15.36-.48-22.7-.01-2.97-.45-3.93-1.1-4.17-4.15-.88-11.27.69-23.67,0-35.07.21-3.03,1-4.33,4.17-4.65,7.22-.72,15.59.53,22.94,0,1.21-.12,3.91,1.4,3.91,2.64v13.24Z"/>
  </g>
</svg>