<svg xmlns="http://www.w3.org/2000/svg" width="361.128" height="268.984" viewBox="0 0 361.128 268.984">
  <path id="share" d="M221.4,66.34V62.1c0-15.531.06-31.063-.029-46.594-.038-6.465,2.829-11.134,8.479-13.857,5.819-2.8,11.442-2.028,16.359,2.336Q264.558,20.27,282.859,36.61q35.4,31.643,70.767,63.316c10.058,8.981,9.989,18.6-.129,27.472q-43.8,38.392-87.514,76.879-9.547,8.385-19.169,16.683c-5.167,4.439-10.991,5.96-17.294,2.8-5.988-3-8.206-8.239-8.158-14.822.119-16.589.039-33.18.039-49.77v-3.962a5.484,5.484,0,0,0-1.411-.414c-27.606.4-54.913,3.084-81.482,11.047-31.434,9.422-58.463,26.529-83.062,47.837C36.9,229.739,20.044,247.46,3.775,265.77c-.859.967-1.712,1.939-2.6,2.883-.126.134-.406.123-1.18.331.646-3.266,1.109-6.326,1.863-9.312C15.539,205.467,41.654,158.419,83.07,120.461,112.92,93.1,147.923,75.79,188.041,69.44c10.071-1.594,20.334-1.978,30.509-2.913.8-.073,1.6-.106,2.851-.187" fill="#021552"/>
</svg>
