<svg id="Sign_in" data-name="Sign in" xmlns="http://www.w3.org/2000/svg" width="247.625" height="184.511" viewBox="0 0 247.625 184.511">
  <g id="freepik--background-complete--inject-1" transform="translate(0 0)">
    <rect id="Rectangle_758" data-name="Rectangle 758" width="247.625" height="0.124" transform="translate(0 162.145)" fill="#ebebeb"/>
    <rect id="Rectangle_759" data-name="Rectangle 759" width="16.403" height="0.124" transform="translate(206.411 170.114)" fill="#ebebeb"/>
    <rect id="Rectangle_760" data-name="Rectangle 760" width="4.304" height="0.124" transform="translate(159.733 171.461)" fill="#ebebeb"/>
    <rect id="Rectangle_761" data-name="Rectangle 761" width="9.504" height="0.124" transform="translate(196.412 165.518)" fill="#ebebeb"/>
    <rect id="Rectangle_762" data-name="Rectangle 762" width="21.39" height="0.124" transform="translate(25.981 166.35)" fill="#ebebeb"/>
    <rect id="Rectangle_763" data-name="Rectangle 763" width="3.135" height="0.124" transform="translate(51.783 166.35)" fill="#ebebeb"/>
    <rect id="Rectangle_764" data-name="Rectangle 764" width="46.395" height="0.124" transform="translate(65.111 168.44)" fill="#ebebeb"/>
    <path id="Path_510" data-name="Path 510" d="M136.661,195.057H41.033a2.828,2.828,0,0,1-2.823-2.828V57.8A2.828,2.828,0,0,1,41.033,55h95.628a2.828,2.828,0,0,1,2.828,2.828v134.4A2.828,2.828,0,0,1,136.661,195.057ZM41.033,55.1a2.7,2.7,0,0,0-2.7,2.7V192.229a2.7,2.7,0,0,0,2.7,2.7h95.628a2.709,2.709,0,0,0,2.7-2.7V57.8a2.709,2.709,0,0,0-2.7-2.7Z" transform="translate(-19.286 -55)" fill="#ebebeb"/>
    <path id="Path_511" data-name="Path 511" d="M352.961,195.057H257.328a2.833,2.833,0,0,1-2.828-2.828V57.8a2.833,2.833,0,0,1,2.828-2.8h95.633a2.828,2.828,0,0,1,2.818,2.8V192.229A2.828,2.828,0,0,1,352.961,195.057ZM257.328,55.1a2.709,2.709,0,0,0-2.7,2.7V192.229a2.709,2.709,0,0,0,2.7,2.7h95.633a2.709,2.709,0,0,0,2.7-2.7V57.8a2.709,2.709,0,0,0-2.7-2.7Z" transform="translate(-128.459 -55)" fill="#ebebeb"/>
    <path id="Path_512" data-name="Path 512" d="M192.169,308.79H185.24l7.716,6.389h2.679l-1.8-2.739,5.26,2.739h2.764Z" transform="translate(-93.5 -183.1)" fill="#e0e0e0"/>
    <path id="Path_513" data-name="Path 513" d="M88.75,315.179h2.763l6.136-3.194-2.679,3.194H97.65l7.716-6.389H98.437Z" transform="translate(-44.796 -183.1)" fill="#e0e0e0"/>
    <path id="Path_514" data-name="Path 514" d="M96.228,315.179l6.384-6.389H98.437l-9.687,6.389h1.5l7.4-4.071-2.679,4.071Z" transform="translate(-44.796 -183.1)" fill="#f0f0f0"/>
    <path id="Path_515" data-name="Path 515" d="M60.26,321.69v30.3h93.315v-30.3Zm91.79,11.886H77.133v-9.9H152.05Z" transform="translate(-30.416 -189.611)" fill="#e0e0e0"/>
    <path id="Path_516" data-name="Path 516" d="M90.21,321.69v30.3h78.482v-30.3Zm76.957,11.886H92.25v-9.9h74.917Z" transform="translate(-45.533 -189.611)" fill="#ebebeb"/>
    <rect id="Rectangle_765" data-name="Rectangle 765" width="13.659" height="9.9" transform="translate(107.975 134.045)" fill="#e0e0e0"/>
    <rect id="Rectangle_766" data-name="Rectangle 766" width="19.78" height="4.953" transform="translate(46.717 138.992)" fill="#e0e0e0"/>
    <rect id="Rectangle_767" data-name="Rectangle 767" width="12.723" height="2.942" transform="translate(67.74 141.003)" fill="#e0e0e0"/>
    <rect id="Rectangle_768" data-name="Rectangle 768" width="15.001" height="6.017" transform="translate(83.405 137.927)" fill="#e0e0e0"/>
    <path id="Path_517" data-name="Path 517" d="M109.222,350l-.362,1.184h-4.868L103.631,350h-9.3v13.149h24.193V350Z" transform="translate(-47.613 -203.901)" fill="#e0e0e0"/>
    <path id="Path_518" data-name="Path 518" d="M160.362,350,160,351.184h-4.863L154.776,350H145.47v13.149h24.2V350Z" transform="translate(-73.426 -203.901)" fill="#e0e0e0"/>
    <path id="Path_519" data-name="Path 519" d="M211.512,350l-.361,1.184h-4.863L205.921,350h-9.3v13.149h24.193V350Z" transform="translate(-99.244 -203.901)" fill="#e0e0e0"/>
    <rect id="Rectangle_769" data-name="Rectangle 769" width="67.775" height="40.952" rx="3.53" transform="translate(40.695 85.584)" fill="#e0e0e0"/>
    <rect id="Rectangle_770" data-name="Rectangle 770" width="67.775" height="40.952" rx="3.53" transform="translate(42.289 85.584)" fill="#e6e6e6"/>
    <rect id="Rectangle_771" data-name="Rectangle 771" width="36.97" height="63.793" transform="translate(108.069 87.575) rotate(90)" fill="#f0f0f0"/>
    <ellipse id="Ellipse_72" data-name="Ellipse 72" cx="9.38" cy="9.38" rx="9.38" ry="9.38" transform="translate(172.998 24.503) rotate(-14.19)" fill="#e0e0e0"/>
    <ellipse id="Ellipse_73" data-name="Ellipse 73" cx="7.974" cy="7.974" rx="7.974" ry="7.974" transform="translate(174.788 37.209) rotate(-76.72)" fill="#f0f0f0"/>
    <path id="Path_520" data-name="Path 520" d="M367.795,107.13V112.7l-3.695-2.09" transform="translate(-183.779 -81.313)" fill="#f0f0f0"/>
    <path id="Path_521" data-name="Path 521" d="M367.29,112.677a.5.5,0,0,1-.248-.064l-3.695-2.1a.5.5,0,0,1,.49-.862l2.971,1.674V106.6a.5.5,0,0,1,.991,0v5.572a.5.5,0,0,1-.5.5Z" transform="translate(-183.274 -80.793)" fill="#e0e0e0"/>
    <path id="Path_522" data-name="Path 522" d="M110.149,102.075a5.835,5.835,0,0,1,1.723-4.9c2.179-1.927,1.981-3.051,1.362-3.2s-1.194,1.763-2.149,2.288c0,0-.035-2.724.941-3.729s1.486-3.591.555-3.635-1.02,1.535-1.208,2.655a9.484,9.484,0,0,1-1.223,2.7,10.8,10.8,0,0,0-.832-3.467c-.629-1.025,1.05-3.3.4-4.3s-1.793.911-1.7,3.061,1.535,4.457,1.2,6.7c0,0-.634-1.575-1.2-1.719s-1.139-1.189-1.525-1.575-.857.951,0,2.194,3.066,4.571,2.729,7.26Z" transform="translate(-53.507 -70.756)" fill="#e6e6e6"/>
    <path id="Path_523" data-name="Path 523" d="M112.343,115.5l.708,4.457a2.268,2.268,0,0,1-2.243,2.63h-.758a2.273,2.273,0,0,1-2.248-2.63l.713-4.457Z" transform="translate(-54.398 -85.537)" fill="#e6e6e6"/>
    <rect id="Rectangle_772" data-name="Rectangle 772" width="50.377" height="2.59" transform="translate(97.54 38.001) rotate(180)" fill="#e0e0e0"/>
    <rect id="Rectangle_773" data-name="Rectangle 773" width="2.219" height="9.539" transform="translate(95.222 35.415) rotate(180)" fill="#ebebeb"/>
    <rect id="Rectangle_774" data-name="Rectangle 774" width="2.219" height="9.539" transform="translate(84.49 35.415) rotate(180)" fill="#ebebeb"/>
    <rect id="Rectangle_775" data-name="Rectangle 775" width="2.219" height="9.543" transform="matrix(-0.985, -0.17, 0.17, -0.985, 70.657, 35.415)" fill="#ebebeb"/>
    <rect id="Rectangle_776" data-name="Rectangle 776" width="2.219" height="8.286" transform="translate(92.468 35.415) rotate(180)" fill="#ebebeb"/>
    <rect id="Rectangle_777" data-name="Rectangle 777" width="2.219" height="8.286" transform="translate(87.372 35.415) rotate(180)" fill="#ebebeb"/>
    <rect id="Rectangle_778" data-name="Rectangle 778" width="2.219" height="8.286" transform="translate(74.491 35.415) rotate(180)" fill="#ebebeb"/>
    <rect id="Rectangle_779" data-name="Rectangle 779" width="2.219" height="8.286" transform="translate(79.73 35.41) rotate(-167.47)" fill="#ebebeb"/>
    <rect id="Rectangle_780" data-name="Rectangle 780" width="1.109" height="10.014" transform="translate(89.442 35.415) rotate(180)" fill="#ebebeb"/>
    <rect id="Rectangle_781" data-name="Rectangle 781" width="1.109" height="10.014" transform="translate(76.244 35.415) rotate(180)" fill="#ebebeb"/>
    <rect id="Rectangle_782" data-name="Rectangle 782" width="50.377" height="2.59" transform="translate(47.163 54.735)" fill="#e0e0e0"/>
    <rect id="Rectangle_783" data-name="Rectangle 783" width="2.219" height="9.543" transform="translate(49.481 45.197)" fill="#ebebeb"/>
    <rect id="Rectangle_784" data-name="Rectangle 784" width="2.219" height="9.543" transform="translate(60.213 45.197)" fill="#ebebeb"/>
    <rect id="Rectangle_785" data-name="Rectangle 785" width="2.219" height="9.543" transform="matrix(0.985, -0.17, 0.17, 0.985, 72.429, 45.332)" fill="#ebebeb"/>
    <rect id="Rectangle_786" data-name="Rectangle 786" width="2.219" height="8.286" transform="translate(52.234 46.455)" fill="#ebebeb"/>
    <rect id="Rectangle_787" data-name="Rectangle 787" width="2.219" height="8.286" transform="translate(57.335 46.455)" fill="#ebebeb"/>
    <rect id="Rectangle_788" data-name="Rectangle 788" width="2.219" height="8.286" transform="translate(70.207 46.455)" fill="#ebebeb"/>
    <rect id="Rectangle_789" data-name="Rectangle 789" width="2.219" height="8.286" transform="translate(63.183 46.645) rotate(-12.53)" fill="#ebebeb"/>
    <rect id="Rectangle_790" data-name="Rectangle 790" width="1.109" height="10.014" transform="translate(55.26 44.721)" fill="#ebebeb"/>
    <rect id="Rectangle_791" data-name="Rectangle 791" width="1.109" height="10.014" transform="translate(68.463 44.721)" fill="#ebebeb"/>
    <rect id="Rectangle_792" data-name="Rectangle 792" width="10.816" height="7.463" transform="translate(81.895 47.188)" fill="#ebebeb"/>
  </g>
  <g id="freepik--Shadow--inject-1" transform="translate(27.789 173.298)">
    <ellipse id="freepik--path--inject-1" cx="96.024" cy="5.606" rx="96.024" ry="5.606" fill="#f5f5f5"/>
  </g>
  <g id="freepik--Plant--inject-1" transform="translate(33.38 131.513)">
    <path id="Path_524" data-name="Path 524" d="M82.161,360.114c0-.149-.5-14.858-2.877-17.16-2.288-2.219-4.923-.079-5.037,0l-.317-.381c.03-.025,3.09-2.521,5.7,0,2.521,2.447,3.011,16.883,3.031,17.5Z" transform="translate(-70.696 -331.097)" fill="#6ca2fe"/>
    <path id="Path_525" data-name="Path 525" d="M90.777,359.465c-.069-.723-1.639-17.7,4.764-25.055l.376.327c-6.28,7.186-4.68,24.5-4.645,24.673Z" transform="translate(-79.089 -327.545)" fill="#6ca2fe"/>
    <path id="Path_526" data-name="Path 526" d="M86.742,356.225l-.5-.035c0-.2,1.253-19.864-3.417-24.153l.337-.366C88.005,336.122,86.8,355.4,86.742,356.225Z" transform="translate(-75.188 -326.162)" fill="#6ca2fe"/>
    <path id="Path_527" data-name="Path 527" d="M91.5,365.064H91c0-.545.154-13.337,3.808-15.432a2.625,2.625,0,0,1,2.4-.233c2.219.921,3.313,4.849,3.358,5.012l-.5.134c0-.04-1.075-3.863-3.066-4.685a2.125,2.125,0,0,0-1.981.2C91.629,352.009,91.5,364.955,91.5,365.064Z" transform="translate(-79.312 -335.017)" fill="#6ca2fe"/>
    <path id="Path_528" data-name="Path 528" d="M80.615,365.657l-.5-.03c0-.1.545-10.059-2.135-13.56a2.44,2.44,0,0,0-2.06-1.179c-1.733.119-3.2,2.674-3.209,2.7l-.436-.243c.069-.114,1.61-2.813,3.61-2.971a2.86,2.86,0,0,1,2.476,1.377C81.175,355.416,80.64,365.241,80.615,365.657Z" transform="translate(-69.863 -335.6)" fill="#6ca2fe"/>
    <path id="Path_529" data-name="Path 529" d="M89.511,355.643c-.069-.99-1.758-23.772,1.223-27.823l.4.3C88.258,332,89.991,355.356,90.006,355.6Z" transform="translate(-78.289 -324.219)" fill="#6ca2fe"/>
    <path id="Path_530" data-name="Path 530" d="M103.708,352.887s-1.778.659-1.248,2.209,6.161,4.1,6.161,4.1,2.357-2.164.193-5.681S103.757,351.777,103.708,352.887Z" transform="translate(-85.046 -336.142)" fill="#6ca2fe"/>
    <path id="Path_531" data-name="Path 531" d="M103.708,352.887s-1.778.659-1.248,2.209,6.161,4.1,6.161,4.1,2.357-2.164.193-5.681S103.757,351.777,103.708,352.887Z" transform="translate(-85.046 -336.142)" fill="#fff" opacity="0.2"/>
    <path id="Path_532" data-name="Path 532" d="M84.8,347.677s1.9-.079,1.981,1.555S82.7,355.4,82.7,355.4s-3.011-1.085-2.367-5.165S84.325,346.672,84.8,347.677Z" transform="translate(-73.88 -333.884)" fill="#6ca2fe"/>
    <path id="Path_533" data-name="Path 533" d="M84.8,347.677s1.9-.079,1.981,1.555S82.7,355.4,82.7,355.4s-3.011-1.085-2.367-5.165S84.325,346.672,84.8,347.677Z" transform="translate(-73.88 -333.884)" fill="#fff" opacity="0.2"/>
    <path id="Path_534" data-name="Path 534" d="M79.482,330.336s1.268-.139,1.164-.906-4.918-2.754-7.756.451c0,0,1.818,3.125,4.457,3.165S79.482,330.336,79.482,330.336Z" transform="translate(-70.171 -324.368)" fill="#6ca2fe"/>
    <path id="Path_535" data-name="Path 535" d="M79.482,330.336s1.268-.139,1.164-.906-4.918-2.754-7.756.451c0,0,1.818,3.125,4.457,3.165S79.482,330.336,79.482,330.336Z" transform="translate(-70.171 -324.368)" fill="#fff" opacity="0.2"/>
    <path id="Path_536" data-name="Path 536" d="M89.459,324.645s-1.144.555-1.486-.154,2.719-4.953,6.825-3.719c0,0,.109,3.615-2.1,5.042S89.459,324.645,89.459,324.645Z" transform="translate(-77.771 -320.549)" fill="#6ca2fe"/>
    <path id="Path_537" data-name="Path 537" d="M89.459,324.645s-1.144.555-1.486-.154,2.719-4.953,6.825-3.719c0,0,.109,3.615-2.1,5.042S89.459,324.645,89.459,324.645Z" transform="translate(-77.771 -320.549)" fill="#fff" opacity="0.2"/>
    <path id="Path_538" data-name="Path 538" d="M73.081,351.906s.872-.7-.069-1.05-5.567-.243-5.611,4.333c0,0,5.383.9,6.047-.847S73.081,351.906,73.081,351.906Z" transform="translate(-67.4 -335.785)" fill="#6ca2fe"/>
    <path id="Path_539" data-name="Path 539" d="M73.081,351.906s.872-.7-.069-1.05-5.567-.243-5.611,4.333c0,0,5.383.9,6.047-.847S73.081,351.906,73.081,351.906Z" transform="translate(-67.4 -335.785)" fill="#fff" opacity="0.2"/>
    <path id="Path_540" data-name="Path 540" d="M100.393,331.177s-.877-.708.069-1.05,5.562-.248,5.611,4.333c0,0-5.383.891-6.052-.852S100.393,331.177,100.393,331.177Z" transform="translate(-83.753 -325.323)" fill="#6ca2fe"/>
    <path id="Path_541" data-name="Path 541" d="M100.393,331.177s-.877-.708.069-1.05,5.562-.248,5.611,4.333c0,0-5.383.891-6.052-.852S100.393,331.177,100.393,331.177Z" transform="translate(-83.753 -325.323)" fill="#fff" opacity="0.2"/>
    <path id="Path_542" data-name="Path 542" d="M93.646,339.2s-.079-.857.614-.52,3.1,2.937.6,5.4c0,0-3.363-2.476-2.759-3.789S93.646,339.2,93.646,339.2Z" transform="translate(-79.834 -329.661)" fill="#6ca2fe"/>
    <path id="Path_543" data-name="Path 543" d="M93.646,339.2s-.079-.857.614-.52,3.1,2.937.6,5.4c0,0-3.363-2.476-2.759-3.789S93.646,339.2,93.646,339.2Z" transform="translate(-79.834 -329.661)" fill="#fff" opacity="0.2"/>
    <path id="Path_544" data-name="Path 544" d="M73.483,341.492s.525-.683-.243-.768-4.185.827-3.368,4.244c0,0,4.17-.312,4.348-1.733S73.483,341.492,73.483,341.492Z" transform="translate(-68.585 -330.73)" fill="#6ca2fe"/>
    <path id="Path_545" data-name="Path 545" d="M73.483,341.492s.525-.683-.243-.768-4.185.827-3.368,4.244c0,0,4.17-.312,4.348-1.733S73.483,341.492,73.483,341.492Z" transform="translate(-68.585 -330.73)" fill="#fff" opacity="0.2"/>
    <path id="Path_546" data-name="Path 546" d="M89.593,390.865H75.275L73.73,375.19h17.4Z" transform="translate(-70.595 -348.129)" fill="#6ca2fe"/>
    <path id="Path_547" data-name="Path 547" d="M89.593,390.865H75.275L73.73,375.19h17.4Z" transform="translate(-70.595 -348.129)" fill="#fff" opacity="0.5"/>
    <rect id="Rectangle_793" data-name="Rectangle 793" width="18.933" height="3.457" transform="translate(2.372 25.333)" fill="#6ca2fe"/>
    <rect id="Rectangle_794" data-name="Rectangle 794" width="18.933" height="3.457" transform="translate(2.372 25.333)" fill="#fff" opacity="0.2"/>
  </g>
  <g id="freepik--Interior--inject-1" transform="translate(161.457 94.276)">
    <path id="Path_548" data-name="Path 548" d="M340.02,396.669l.03-.183.837-9.8h3.571l-2.551,9.979" transform="translate(-333.082 -316.696)" fill="#263238"/>
    <path id="Path_549" data-name="Path 549" d="M402.217,396.669l-.03-.183-.842-9.8H397.78l2.551,9.979" transform="translate(-362.236 -316.696)" fill="#263238"/>
    <path id="Path_550" data-name="Path 550" d="M330.52,396.669l.03-.183,1.624-9.8h3.566l-3.333,9.979" transform="translate(-328.286 -316.696)" fill="#263238"/>
    <path id="Path_551" data-name="Path 551" d="M410.92,396.669l-.035-.183-1.62-9.8H405.7l3.333,9.979" transform="translate(-366.233 -316.696)" fill="#263238"/>
    <g id="Group_210" data-name="Group 210" transform="translate(2.234 69.994)" opacity="0.2">
      <path id="Path_552" data-name="Path 552" d="M330.52,396.669l.03-.183,1.624-9.8h3.566l-3.333,9.979" transform="translate(-330.52 -386.69)" fill="#fff"/>
      <path id="Path_553" data-name="Path 553" d="M410.92,396.669l-.035-.183-1.62-9.8H405.7l3.333,9.979" transform="translate(-368.467 -386.69)" fill="#fff"/>
    </g>
    <rect id="Rectangle_795" data-name="Rectangle 795" width="46.925" height="60.822" rx="3.98" transform="translate(0 11.356)" fill="#6ca2fe"/>
    <rect id="Rectangle_796" data-name="Rectangle 796" width="46.925" height="60.822" rx="3.98" transform="translate(0 11.356)" fill="#fff" opacity="0.4"/>
    <rect id="Rectangle_797" data-name="Rectangle 797" width="43.097" height="21.954" transform="translate(1.912 24.619)" fill="#fff" opacity="0.5"/>
    <rect id="Rectangle_798" data-name="Rectangle 798" width="43.097" height="21.954" transform="translate(1.912 48.034)" fill="#fff" opacity="0.5"/>
    <rect id="Rectangle_799" data-name="Rectangle 799" width="43.097" height="9.613" transform="translate(1.912 13.54)" fill="#fff" opacity="0.5"/>
    <path id="Path_554" data-name="Path 554" d="M371.8,274.3h-7.052a1.139,1.139,0,0,1-1.015-.634l-.47-.966h10.024l-.5.966A1.124,1.124,0,0,1,371.8,274.3Z" transform="translate(-344.812 -259.16)" opacity="0.5"/>
    <path id="Path_555" data-name="Path 555" d="M371.8,296.665h-7.052a1.129,1.129,0,0,1-1.015-.634l-.47-.961h10.024l-.5.961A1.115,1.115,0,0,1,371.8,296.665Z" transform="translate(-344.812 -270.451)" opacity="0.5"/>
    <path id="Path_556" data-name="Path 556" d="M371.8,343.95h-7.052a1.129,1.129,0,0,1-1.015-.634l-.471-.966h10.024l-.5.966A1.114,1.114,0,0,1,371.8,343.95Z" transform="translate(-344.812 -294.316)" opacity="0.5"/>
    <path id="Path_557" data-name="Path 557" d="M397.761,254.74l3.724,6.711H396.85Z" transform="translate(-361.766 -250.095)" fill="#6ca2fe"/>
    <path id="Path_558" data-name="Path 558" d="M397.761,254.74l3.724,6.711H396.85Z" transform="translate(-361.766 -250.095)" opacity="0.2"/>
    <path id="Path_559" data-name="Path 559" d="M392.266,256.716H383.5l2.744-11.356h8.766Z" transform="translate(-355.028 -245.36)" fill="#6ca2fe"/>
    <path id="Path_560" data-name="Path 560" d="M385.94,256.733l2.308-9.553h6.785l-2.308,9.553Z" transform="translate(-356.26 -246.279)" fill="#fff" opacity="0.5"/>
    <path id="Path_561" data-name="Path 561" d="M347.194,257.85l-2.174,5.17h5.814Z" transform="translate(-335.605 -251.664)" fill="#6ca2fe"/>
    <path id="Path_562" data-name="Path 562" d="M359.368,260.068H348.235L345.62,252h11.138Z" transform="translate(-335.908 -248.712)" fill="#6ca2fe"/>
    <path id="Path_563" data-name="Path 563" d="M359.368,260.068H348.235L345.62,252h11.138Z" transform="translate(-335.908 -248.712)" fill="#fff" opacity="0.2"/>
    <path id="Path_564" data-name="Path 564" d="M350.242,260.09l-1.862-5.74h9.157l1.857,5.74Z" transform="translate(-337.301 -249.898)" fill="#fff" opacity="0.5"/>
  </g>
  <g id="freepik--Device--inject-1" transform="translate(59.014 44.964)">
    <rect id="Rectangle_800" data-name="Rectangle 800" width="81.454" height="136.605" rx="10.4" fill="#263238"/>
    <path id="Path_565" data-name="Path 565" d="M200.665,153.827V280.354a1.981,1.981,0,0,1-2.026,1.981H126.516a1.783,1.783,0,0,1-1.808-1.827V153.664a1.6,1.6,0,0,1,1.55-1.674h18.032a1.273,1.273,0,0,1,1.159.807l.748,1.842a1.263,1.263,0,0,0,1.159.8h30.706a1.253,1.253,0,0,0,1.159-.792l.748-1.847a1.273,1.273,0,0,1,1.159-.812H198.9A1.818,1.818,0,0,1,200.665,153.827Z" transform="translate(-121.96 -148.919)" fill="#6ca2fe"/>
    <path id="Path_566" data-name="Path 566" d="M200.665,153.827V280.354a1.981,1.981,0,0,1-2.026,1.981H126.516a1.783,1.783,0,0,1-1.808-1.827V153.664a1.6,1.6,0,0,1,1.55-1.674h18.032a1.273,1.273,0,0,1,1.159.807l.748,1.842a1.263,1.263,0,0,0,1.159.8h30.706a1.253,1.253,0,0,0,1.159-.792l.748-1.847a1.273,1.273,0,0,1,1.159-.812H198.9A1.818,1.818,0,0,1,200.665,153.827Z" transform="translate(-121.96 -148.919)" opacity="0.3"/>
    <rect id="Rectangle_801" data-name="Rectangle 801" width="75.957" height="112.526" transform="translate(2.749 11.594)" fill="#fff" opacity="0.6"/>
    <rect id="Rectangle_802" data-name="Rectangle 802" width="0.936" height="1.253" transform="translate(12.059 8.568) rotate(180)" fill="#fff" opacity="0.6"/>
    <rect id="Rectangle_803" data-name="Rectangle 803" width="0.936" height="1.669" transform="translate(10.529 8.568) rotate(180)" fill="#fff" opacity="0.6"/>
    <rect id="Rectangle_804" data-name="Rectangle 804" width="0.936" height="2.085" transform="translate(8.999 8.568) rotate(180)" fill="#fff" opacity="0.6"/>
    <rect id="Rectangle_805" data-name="Rectangle 805" width="0.936" height="2.501" transform="translate(7.468 8.568) rotate(180)" fill="#fff" opacity="0.6"/>
    <rect id="Rectangle_806" data-name="Rectangle 806" width="0.555" height="1.253" transform="translate(69.553 6.859)" fill="#fff" opacity="0.6"/>
    <rect id="Rectangle_807" data-name="Rectangle 807" width="4.432" height="2.164" transform="translate(74.922 8.568) rotate(180)" fill="#fff" opacity="0.6"/>
    <path id="Path_567" data-name="Path 567" d="M199.24,151.285a1.04,1.04,0,1,1-.3-.74A1.045,1.045,0,0,1,199.24,151.285Z" transform="translate(-158.525 -148.036)" fill="#fff" opacity="0.6"/>
    <path id="Path_568" data-name="Path 568" d="M204.267,151.669A.669.669,0,1,1,203.6,151,.669.669,0,0,1,204.267,151.669Z" transform="translate(-161.443 -148.42)" fill="#fff" opacity="0.6"/>
    <rect id="Rectangle_808" data-name="Rectangle 808" width="75.957" height="12.99" transform="translate(2.749 11.594)" fill="#6ca2fe"/>
    <path id="Path_569" data-name="Path 569" d="M265.266,180.8v-.991h-.882a2.192,2.192,0,0,0-.3-.708l.624-.624-.718-.718-.624.624a2.229,2.229,0,0,0-.708-.292v-.882h-.99v.887a2.279,2.279,0,0,0-.708.292l-.624-.624-.7.708.624.624a2.194,2.194,0,0,0-.3.708h-.882v.99h.882a2.213,2.213,0,0,0,.3.7l-.624.624.7.708.624-.624a2.416,2.416,0,0,0,.708.3v.877h.99V182.5a2.362,2.362,0,0,0,.708-.3l.624.624.7-.708-.624-.624a2.212,2.212,0,0,0,.3-.7Zm-3.09.421a.921.921,0,1,1,.655-.268A.926.926,0,0,1,262.175,181.222Z" transform="translate(-189.784 -161.649)" fill="#fff"/>
    <path id="Path_570" data-name="Path 570" d="M134.563,177.94l-3.343,3.175h1.035v2.278h4.616v-2.278h1.03Z" transform="translate(-125.247 -162.018)" fill="#fff"/>
    <path id="Path_571" data-name="Path 571" d="M201.119,225.1a14.085,14.085,0,1,1-4.128-9.977A14.115,14.115,0,0,1,201.119,225.1Z" transform="translate(-146.28 -178.705)" opacity="0.4"/>
    <path id="Path_572" data-name="Path 572" d="M201.2,240.1a14.115,14.115,0,0,1-21.335,0,11.084,11.084,0,0,1,7.671-7.691,5.448,5.448,0,1,1,5.988,0A11.1,11.1,0,0,1,201.2,240.1Z" transform="translate(-149.798 -184.464)" fill="#fff" opacity="0.8"/>
    <g id="Group_211" data-name="Group 211" transform="translate(12.723 66.893)" opacity="0.5">
      <path id="Path_573" data-name="Path 573" d="M146.361,283.023v.258H144.85V281.2h1.486v.258h-1.169v.634h1.045v.253h-1.045v.674Z" transform="translate(-144.85 -281.031)"/>
      <path id="Path_574" data-name="Path 574" d="M148.46,283.5h.8v.248h-.8Z" transform="translate(-146.672 -282.192)"/>
      <path id="Path_575" data-name="Path 575" d="M153.6,282.872v.906h-.282v-.872c0-.312-.149-.461-.406-.461a.456.456,0,0,0-.5.52v.812h-.282v-.872c0-.312-.149-.461-.411-.461a.456.456,0,0,0-.5.52v.812H151V282.2h.272v.238a.619.619,0,0,1,.54-.253.584.584,0,0,1,.55.292.708.708,0,0,1,.6-.292.6.6,0,0,1,.629.684Z" transform="translate(-147.954 -281.53)"/>
      <path id="Path_576" data-name="Path 576" d="M158.452,282.838v.951h-.272v-.2a.585.585,0,0,1-.5.228c-.357,0-.584-.193-.584-.466s.163-.461.634-.461h.451v-.054c0-.243-.139-.381-.421-.381a.8.8,0,0,0-.5.168l-.119-.213a1.025,1.025,0,0,1,.649-.2A.57.57,0,0,1,158.452,282.838Zm-.287.47V283.1h-.441c-.282,0-.362.114-.362.248s.129.253.347.253A.461.461,0,0,0,158.165,283.309Z" transform="translate(-151.033 -281.541)"/>
      <path id="Path_577" data-name="Path 577" d="M160.79,281.048a.188.188,0,1,1,.187.188A.188.188,0,0,1,160.79,281.048Zm.054.5h.282v1.575h-.282Z" transform="translate(-152.896 -280.86)"/>
      <path id="Path_578" data-name="Path 578" d="M162.57,281h.282v2.2h-.282Z" transform="translate(-153.794 -280.931)"/>
    </g>
    <g id="Group_212" data-name="Group 212" transform="translate(12.411 71.99)" opacity="0.8">
      <path id="Path_579" data-name="Path 579" d="M197.128,298.6H147.944a3.724,3.724,0,0,1-3.724-3.724h0a3.724,3.724,0,0,1,3.724-3.724h49.183a3.724,3.724,0,0,1,3.724,3.724h0A3.724,3.724,0,0,1,197.128,298.6Z" transform="translate(-144.22 -291.15)" fill="#fff"/>
    </g>
    <g id="Group_213" data-name="Group 213" transform="translate(12.743 85.287)" opacity="0.5">
      <path id="Path_580" data-name="Path 580" d="M146.549,318.928c0,.451-.327.723-.867.723h-.5v.629h-.3V318.2h.812C146.222,318.2,146.549,318.472,146.549,318.928Zm-.3,0c0-.3-.2-.47-.579-.47h-.5v.936h.5C146.054,319.394,146.252,319.22,146.252,318.928Z" transform="translate(-144.89 -318.101)"/>
      <path id="Path_581" data-name="Path 581" d="M150.162,319.838v.951H149.9v-.2a.58.58,0,0,1-.5.228c-.357,0-.584-.193-.584-.466s.163-.461.634-.461h.446v-.054c0-.243-.139-.381-.421-.381a.8.8,0,0,0-.5.168l-.119-.213a1.04,1.04,0,0,1,.654-.2A.573.573,0,0,1,150.162,319.838Zm-.287.47V320.1h-.441c-.282,0-.361.114-.361.248s.134.253.347.253a.456.456,0,0,0,.48-.287Z" transform="translate(-146.874 -318.61)"/>
      <path id="Path_582" data-name="Path 582" d="M152.2,320.611l.119-.223a.991.991,0,0,0,.55.163c.262,0,.376-.079.376-.213,0-.357-.99-.05-.99-.678,0-.277.253-.47.654-.47a1.149,1.149,0,0,1,.575.144l-.124.223a.827.827,0,0,0-.451-.124c-.253,0-.371.094-.371.218,0,.371.99.069.99.678,0,.287-.262.47-.678.47a1.124,1.124,0,0,1-.649-.188Z" transform="translate(-148.58 -318.6)"/>
      <path id="Path_583" data-name="Path 583" d="M155.2,320.611l.119-.223a1.02,1.02,0,0,0,.555.163c.262,0,.371-.079.371-.213,0-.357-.991-.05-.991-.679,0-.277.253-.47.659-.47a1.159,1.159,0,0,1,.575.144l-.124.223a.857.857,0,0,0-.456-.124c-.248,0-.371.094-.371.218,0,.371.99.069.99.678,0,.287-.262.471-.683.471A1.134,1.134,0,0,1,155.2,320.611Z" transform="translate(-150.094 -318.601)"/>
      <path id="Path_584" data-name="Path 584" d="M160.655,319.22l-.589,1.575h-.272l-.456-1.189-.461,1.194H158.6l-.6-1.58h.267l.461,1.253.5-1.253h.262l.5,1.258.466-1.258Z" transform="translate(-151.507 -318.616)"/>
      <path id="Path_585" data-name="Path 585" d="M163.56,319.967a.817.817,0,1,1,.817.807.782.782,0,0,1-.817-.807Zm1.347,0a.53.53,0,1,0-.53.53A.53.53,0,0,0,164.907,319.967Z" transform="translate(-154.313 -318.575)"/>
      <path id="Path_586" data-name="Path 586" d="M168.507,319.187v.277h-.064a.5.5,0,0,0-.5.535v.783h-.287v-1.575h.272v.263A.6.6,0,0,1,168.507,319.187Z" transform="translate(-156.383 -318.597)"/>
      <path id="Path_587" data-name="Path 587" d="M171.439,318v2.2h-.272v-.248a.669.669,0,0,1-.565.267.807.807,0,0,1,0-1.61.669.669,0,0,1,.55.253V318Zm-.282,1.416a.53.53,0,1,0-.53.555.5.5,0,0,0,.53-.579Z" transform="translate(-157.492 -318)"/>
    </g>
    <g id="Group_214" data-name="Group 214" transform="translate(12.411 90.314)" opacity="0.8">
      <path id="Path_588" data-name="Path 588" d="M197.128,335.6H147.944a3.724,3.724,0,0,1-3.724-3.724h0a3.724,3.724,0,0,1,3.724-3.724h49.183a3.724,3.724,0,0,1,3.724,3.724h0A3.724,3.724,0,0,1,197.128,335.6Z" transform="translate(-144.22 -328.15)" fill="#fff"/>
    </g>
    <path id="Path_589" data-name="Path 589" d="M197.365,366.6H172.944a3.724,3.724,0,0,1-3.724-3.724h0a3.724,3.724,0,0,1,3.724-3.724h24.421a3.724,3.724,0,0,1,3.724,3.724h0a3.724,3.724,0,0,1-3.724,3.724Z" transform="translate(-144.428 -253.483)" fill="#6ca2fe"/>
    <text id="Sign_in-2" data-name="Sign in" transform="translate(33.38 109.039)" fill="#fff" font-size="2" font-family="Montserrat-Medium, Montserrat" font-weight="500"><tspan x="0" y="0">Sign in</tspan></text>
  </g>
  <g id="freepik--speech-bubble--inject-1" transform="translate(165.171 54.071)">
    <path id="Path_590" data-name="Path 590" d="M356.584,174.451l-21.266-.2a1.832,1.832,0,0,1-1.808-1.852l.2-6.414a1.827,1.827,0,0,1,1.847-1.808l21.3.2a1.832,1.832,0,0,1,1.808,1.852l-.2,6.413a1.823,1.823,0,0,1-1.877,1.8Z" transform="translate(-333.51 -164.18)" fill="#6ca2fe"/>
    <path id="Path_591" data-name="Path 591" d="M349.248,181.327s-2.694,5.943-8.588,7.761c0,0,3.269-1.832,3.1-8.078Z" transform="translate(-337.119 -172.675)" fill="#6ca2fe"/>
    <path id="Path_592" data-name="Path 592" d="M343.242,173.461l.5.277-.228.381-.5-.307v.565h-.436v-.565l-.5.307-.223-.381.5-.277-.5-.277.223-.381.5.307v-.57h.436v.57l.5-.307.228.381Z" transform="translate(-337.725 -168.4)" fill="#fff"/>
    <path id="Path_593" data-name="Path 593" d="M349.382,173.481l.5.277-.228.381-.5-.307v.565h-.436v-.565l-.5.307-.223-.362.5-.277-.5-.277.228-.381.5.307v-.57h.436v.57l.5-.307.228.381Z" transform="translate(-340.824 -168.42)" fill="#fff"/>
    <path id="Path_594" data-name="Path 594" d="M355.527,173.461l.5.277-.228.381-.5-.307v.565h-.441v-.565l-.5.307-.223-.381.5-.277-.5-.277.223-.381.5.307v-.57h.441v.57l.5-.307.228.381Z" transform="translate(-343.923 -168.4)" fill="#fff"/>
    <path id="Path_595" data-name="Path 595" d="M361.672,173.461l.5.277-.228.381-.5-.307v.565h-.436v-.565l-.5.307-.223-.381.5-.277-.5-.277.223-.381.5.307v-.57h.436v.57l.5-.307.228.381Z" transform="translate(-347.027 -168.4)" fill="#fff"/>
    <path id="Path_596" data-name="Path 596" d="M367.807,173.461l.5.277-.228.381-.5-.307v.565h-.436v-.565l-.5.307-.228-.381.5-.277-.5-.277.228-.381.5.307v-.57h.436v.57l.5-.307.228.381Z" transform="translate(-350.121 -168.4)" fill="#fff"/>
    <path id="Path_597" data-name="Path 597" d="M373.947,173.461l.5.277-.228.381-.5-.307v.565h-.451v-.565l-.5.307-.223-.381.5-.277-.5-.277.223-.381.5.307v-.57h.441v.57l.5-.307.228.381Z" transform="translate(-353.215 -168.4)" fill="#fff"/>
  </g>
  <g id="freepik--Character--inject-1" transform="translate(136.698 55.126)">
    <path id="Path_598" data-name="Path 598" d="M312.14,206c2.833.441,5.581,9.167,6.775,9.905s.168-8.172.168-8.172l2.268-.3s2.684,13.431-1.233,13.332c-2.972-.074-6.537-5.061-7.429-7.6Z" transform="translate(-294.251 -186.343)" fill="#ebb376"/>
    <path id="Path_599" data-name="Path 599" d="M320.119,220.724c-1.808-.045-3.833-1.9-5.339-3.922a14.949,14.949,0,0,1-2.07-3.68l-.292-3.665-.277-3.467c2.833.441,5.581,9.167,6.775,9.905s.168-8.172.168-8.172l2.268-.3S324.036,220.823,320.119,220.724Z" transform="translate(-294.251 -186.338)" opacity="0.1"/>
    <path id="Path_600" data-name="Path 600" d="M315.062,220.335a14.953,14.953,0,0,1-2.07-3.68l-.292-3.665h0A9.092,9.092,0,0,1,315.062,220.335Z" transform="translate(-294.533 -189.871)" opacity="0.2"/>
    <path id="Path_601" data-name="Path 601" d="M286.175,169.508s-5.047-.059-4.8,6.879,5.1,7.033,3.467,9.038a11.723,11.723,0,0,0,9.152,0s-.9-.352-.471-1.624,2.764-3.1,2.972-5.78S291.4,168.814,286.175,169.508Z" transform="translate(-278.716 -167.897)" fill="#263238"/>
    <path id="Path_602" data-name="Path 602" d="M292.176,181.2s6.438-1.194,5.364-7.315c-.882-5.017-3.224-6.626-5.364-7.345a4.457,4.457,0,0,0-5.106,1.714s-4.368-1.238-3.61,5.943S288.962,184.48,292.176,181.2Z" transform="translate(-279.73 -166.308)" fill="#263238"/>
    <path id="Path_603" data-name="Path 603" d="M321.933,393.642l-2.863-1.466,1.04-4.279.961-3.917,3.605,1.179-1.451,4.492Z" transform="translate(-297.748 -276.178)" fill="#ebb376"/>
    <path id="Path_604" data-name="Path 604" d="M314.82,399.139c.168-.317,4.012,1.912,4.012,1.912s1.2,3.7,3.3,5.448.059,2.5-2.59,1.184l-6.557-3.269C311.125,403.467,313.077,402.447,314.82,399.139Z" transform="translate(-294.296 -283.814)" fill="#263238"/>
    <path id="Path_605" data-name="Path 605" d="M327.052,404.738a6.651,6.651,0,0,1-1.114-1.149.078.078,0,0,1,0-.035h0a.138.138,0,0,1,0-.045h0a.064.064,0,0,1,0-.03h0a.075.075,0,0,1,.03-.045c.035-.035.827-.792,1.486-.748a.678.678,0,0,1,.5.267.406.406,0,0,1,.094.466c-.119.2-.5.267-.911.282a1.813,1.813,0,0,1,.842.54.466.466,0,0,1,.074.371c-.054.267-.2.352-.307.376A.917.917,0,0,1,327.052,404.738Zm-.718-1.035c.461.54,1.08,1.124,1.342,1.06.025,0,.094,0,.129-.193a.243.243,0,0,0-.045-.2A2.951,2.951,0,0,0,326.334,403.7Zm1.317-.7a.446.446,0,0,0-.243-.084,1.946,1.946,0,0,0-1.1.5c.7.069,1.421.04,1.52-.134.03-.054-.035-.148-.079-.2A.426.426,0,0,0,327.652,403.005Z" transform="translate(-301.214 -285.62)" fill="#6ca2fe"/>
    <path id="Path_606" data-name="Path 606" d="M324.22,389.78l-3.11-1.758.971-3.962,3.62,1.159Z" transform="translate(-298.778 -276.218)" opacity="0.2"/>
    <path id="Path_607" data-name="Path 607" d="M309.491,401.892h-3.274l-.936-4.21-.852-3.858,3.828-.584.654,4.581Z" transform="translate(-290.359 -280.852)" fill="#ebb376"/>
    <path id="Path_608" data-name="Path 608" d="M305.358,410.262c0-.362,4.457-.079,4.457-.079s2.729,2.773,5.378,3.4,1.169,2.214-1.793,2.214h-7.345C303.941,415.794,305.269,414,305.358,410.262Z" transform="translate(-290.578 -289.351)" fill="#263238"/>
    <path id="Path_609" data-name="Path 609" d="M317.61,410.441a5.615,5.615,0,0,1-1.837-.56l-.04-.03h0v-.025a.154.154,0,0,1,0-.094c0-.04.391-1.075.991-1.327a.684.684,0,0,1,.574,0c.2.1.3.223.292.376,0,.233-.332.466-.693.659a1.753,1.753,0,0,1,.991.109.5.5,0,0,1,.238.3.431.431,0,0,1-.109.5A.613.613,0,0,1,317.61,410.441Zm-1.431-.634c.654.272,1.486.52,1.674.347,0,0,.074-.059.03-.233a.233.233,0,0,0-.124-.154,2.832,2.832,0,0,0-1.58.04Zm.792-1.223a.464.464,0,0,0-.178.04,1.981,1.981,0,0,0-.763.951c.659-.248,1.293-.594,1.3-.792,0-.064-.094-.119-.154-.149A.455.455,0,0,0,316.971,408.584Z" transform="translate(-296.06 -288.475)" fill="#6ca2fe"/>
    <path id="Path_610" data-name="Path 610" d="M308.927,397.935l-3.63-.149-.857-3.9,3.828-.6Z" transform="translate(-290.364 -280.872)" opacity="0.2"/>
    <path id="Path_611" data-name="Path 611" d="M280.662,252.313l8.038-1.288,7.285-1.486,1.981,11.886s10.257,14.858,12.743,25.08-6.839,33.935-6.839,33.935l-4.284-1.9s2.971-22.806,2.9-25.545c-.045-1.783-5.893-10-9.984-15.546-.119,1.392,1.208,15.264,1.208,15.264l2.887,30.408h-5.4C272.639,265.482,280.662,252.313,280.662,252.313Z" transform="translate(-277.492 -208.319)" fill="#263238"/>
    <path id="Path_612" data-name="Path 612" d="M291.2,323.084h5.378l-2.887-30.408s-1.317-13.966-1.208-15.264c.807,1.095,1.684,2.288,2.57,3.521,3.6,5.007,7.379,10.588,7.429,12.02.069,2.744-2.9,25.55-2.9,25.55l4.284,1.9s9.326-23.723,6.839-33.94-12.743-25.075-12.743-25.075L295.978,249.5l-7.285,1.486-8.038,1.288S272.636,265.462,291.2,323.084Z" transform="translate(-277.489 -208.299)" fill="#fff" opacity="0.6"/>
    <path id="Path_613" data-name="Path 613" d="M319.852,384.96l6.324,2.179-1.411,2.169-5.2-1.857Z" transform="translate(-298.001 -276.673)" fill="#6ca2fe"/>
    <path id="Path_614" data-name="Path 614" d="M302.14,395.666l6.765-.926-.337,2.526-5.586.7Z" transform="translate(-289.203 -281.609)" fill="#6ca2fe"/>
    <path id="Path_615" data-name="Path 615" d="M305.676,294.685c.807,1.095,1.684,2.288,2.57,3.521-1.416-7.34-3.085-14.486-3.085-14.486A52.558,52.558,0,0,0,305.676,294.685Z" transform="translate(-290.684 -225.572)" opacity="0.2"/>
    <path id="Path_616" data-name="Path 616" d="M294.479,227.862l-14.664,1.015s-.2-7.855-1.367-11.941c-.158-.55-.332-1.124-.525-1.738-.272-.862-.584-1.788-.941-2.8-.084-.238-.3-.832-.555-1.52a3.041,3.041,0,0,1,.718-3.224,2.971,2.971,0,0,1,1.486-.807c1.08-.238,2.144-.461,2.724-.55a53.061,53.061,0,0,1,6.636-.629c1.882,0,3.962.109,5.151.193l1.03.079s.466.1.763,2.833C295.2,211.341,295.073,218.532,294.479,227.862Z" transform="translate(-276.129 -186.176)" fill="#6ca2fe"/>
    <path id="Path_617" data-name="Path 617" d="M294.17,203.455c-3.7-.669-4.74-2.313-4.74-2.313,2.476-2.11.713-6.072.713-6.072l4.457,1.065a12.867,12.867,0,0,0-.272,1.877c-.173,2.719,1.055,2.808,1.055,2.808C296.061,202.311,294.17,203.455,294.17,203.455Z" transform="translate(-282.788 -180.826)" fill="#ebb376"/>
    <path id="Path_618" data-name="Path 618" d="M295.277,196.085a12.869,12.869,0,0,0-.272,1.877,10.855,10.855,0,0,1-4.165-2.942Z" transform="translate(-283.499 -180.801)" opacity="0.2"/>
    <path id="Path_619" data-name="Path 619" d="M293.413,171.5c3.888.352,4.952,2.546,4.878,6.582-.094,5.042-1.525,8.5-6.295,6.993C285.519,183.029,286.95,170.92,293.413,171.5Z" transform="translate(-281.962 -168.918)" fill="#ebb376"/>
    <path id="Path_620" data-name="Path 620" d="M303.924,183.91a8.262,8.262,0,0,0,.991,1.718,1.079,1.079,0,0,1-1.065.347Z" transform="translate(-290.066 -175.193)" fill="#d58745"/>
    <path id="Path_621" data-name="Path 621" d="M298.411,182.219c0,.317-.213.565-.426.555s-.366-.287-.347-.609.213-.565.426-.555S298.431,181.9,298.411,182.219Z" transform="translate(-286.93 -174.031)" fill="#263238"/>
    <path id="Path_622" data-name="Path 622" d="M298.31,181.4l.718-.228S298.652,181.735,298.31,181.4Z" transform="translate(-287.27 -173.81)" fill="#263238"/>
    <path id="Path_623" data-name="Path 623" d="M306.46,182.619c-.025.317-.213.565-.426.55s-.371-.282-.347-.6.208-.57.426-.555S306.48,182.3,306.46,182.619Z" transform="translate(-290.992 -174.233)" fill="#263238"/>
    <path id="Path_624" data-name="Path 624" d="M306.36,181.768l.718-.228S306.677,182.119,306.36,181.768Z" transform="translate(-291.333 -173.996)" fill="#263238"/>
    <path id="Path_625" data-name="Path 625" d="M295.912,177.783a.193.193,0,0,1-.124-.05.188.188,0,0,1,0-.258,2.214,2.214,0,0,1,1.912-.5.18.18,0,1,1-.079.352,1.862,1.862,0,0,0-1.575.386.178.178,0,0,1-.134.064Z" transform="translate(-285.971 -171.671)" fill="#263238"/>
    <path id="Path_626" data-name="Path 626" d="M306.687,178.022a.2.2,0,0,1-.114-.04,1.62,1.62,0,0,0-1.362-.426.183.183,0,0,1-.218-.129.178.178,0,0,1,.124-.218,1.981,1.981,0,0,1,1.684.5.178.178,0,0,1,.025.253A.173.173,0,0,1,306.687,178.022Z" transform="translate(-290.64 -171.796)" fill="#263238"/>
    <path id="Path_627" data-name="Path 627" d="M287.629,176.048s2.1-3.036,2.05-5.527c0,0,7.993-2.476,7.671,5.4,0,0,1.377-6.879-5.294-7.637s-7.528,9.033-4.333,12.257C287.723,180.54,286.321,177.94,287.629,176.048Z" transform="translate(-281.021 -167.286)" fill="#263238"/>
    <path id="Path_628" data-name="Path 628" d="M287.646,184a1.709,1.709,0,0,0-1.694-1.723c-1.218.025-2.016,2.447.931,3.313C287.3,185.717,287.587,185.316,287.646,184Z" transform="translate(-280.479 -174.37)" fill="#ebb376"/>
    <path id="Path_629" data-name="Path 629" d="M300.866,190a2.179,2.179,0,0,1-2.174-1.486.173.173,0,0,1,.114-.218.178.178,0,0,1,.223.119,1.842,1.842,0,0,0,1.907,1.248.176.176,0,0,1,.025.352Z" transform="translate(-287.458 -177.401)" fill="#263238"/>
    <path id="Path_630" data-name="Path 630" d="M300.979,176.753a.178.178,0,0,1-.168-.124c-1.515-4.953-7.32-4.18-7.374-4.17a.175.175,0,1,1-.049-.347c.059,0,6.156-.817,7.761,4.413a.173.173,0,0,1-.119.218Z" transform="translate(-284.709 -169.215)" fill="#263238"/>
    <path id="Path_631" data-name="Path 631" d="M326.84,198.419s2.045-.035,2.115.322a14.357,14.357,0,0,1-.337,3.774,6.134,6.134,0,0,1-1.015,1.025l.2,5.309-1.218.426-1.1-4.858a3.211,3.211,0,0,1-.886-2.773A8.213,8.213,0,0,1,326.84,198.419Z" transform="translate(-300.501 -182.516)" fill="#ebb376"/>
    <path id="Path_632" data-name="Path 632" d="M326.84,198.419s2.045-.035,2.115.322a14.357,14.357,0,0,1-.337,3.774,6.134,6.134,0,0,1-1.015,1.025l.2,5.309-1.218.426-1.1-4.858a3.211,3.211,0,0,1-.886-2.773A8.213,8.213,0,0,1,326.84,198.419Z" transform="translate(-300.501 -182.516)" opacity="0.1"/>
    <path id="Path_633" data-name="Path 633" d="M322.19,195.922a.312.312,0,0,0,.342.322l3.467-.267a.406.406,0,0,0,.366-.381l.248-6.934a.352.352,0,0,0-.347-.371l-3.467.267a.456.456,0,0,0-.367.431Z" transform="translate(-299.323 -177.403)" fill="#263238"/>
    <path id="Path_634" data-name="Path 634" d="M323.224,188.943,323,195.936a.267.267,0,0,0,.3.307l2.947-.228c.2,0,.555-.154.56-.352l.248-7.013c0-.2-.342-.327-.54-.312l-2.972.228A.357.357,0,0,0,323.224,188.943Z" transform="translate(-299.729 -177.428)" fill="#fff" opacity="0.5"/>
    <path id="Path_635" data-name="Path 635" d="M315.05,206.187l1.322-3.085s.431-4.135.639-4.581,3.576-.277,3.962-.3.3,4.1-.054,4.536a4.626,4.626,0,0,1-1.728.783l-2.115,4.1Z" transform="translate(-295.719 -182.409)" fill="#ebb376"/>
    <path id="Path_636" data-name="Path 636" d="M295.658,208.275c-.357,1.416-1.728,2.506-4.566,2.476a7.656,7.656,0,0,1-4.457-1.525,11.073,11.073,0,0,1-2.625-2.734c.411-.074.827-.139,1.243-.2a53.073,53.073,0,0,1,6.636-.629c1.174,0,2.417.035,3.467.089A4.066,4.066,0,0,1,295.658,208.275Z" transform="translate(-280.052 -186.171)" fill="#ebb376"/>
    <path id="Path_637" data-name="Path 637" d="M282.754,249.477l-.614,2.684,15.828-.832-.456-2.65Z" transform="translate(-279.108 -207.885)" fill="#263238"/>
    <path id="Path_638" data-name="Path 638" d="M300.75,251.8a.589.589,0,0,1-.589-.53l-.183-1.714h0a.624.624,0,0,1,.139-.451.584.584,0,0,1,.416-.208l2.308-.158a.594.594,0,0,1,.634.54l.158,1.689a.614.614,0,0,1-.134.441.584.584,0,0,1-.411.208l-2.288.183Zm-.277-2.3.178,1.714a.1.1,0,0,0,.109.089l2.288-.178a.111.111,0,0,0,.094-.114l-.163-1.689a.094.094,0,0,0-.1-.089l-2.308.158a.089.089,0,0,0-.074.035.094.094,0,0,0,0,.074Z" transform="translate(-288.11 -207.914)" fill="#fff"/>
    <path id="Path_639" data-name="Path 639" d="M304.879,251.5h-.852a.248.248,0,0,1-.248-.248.253.253,0,0,1,.248-.248h.852a.253.253,0,0,1,.248.248A.248.248,0,0,1,304.879,251.5Z" transform="translate(-290.031 -209.056)" fill="#fff"/>
    <path id="Path_640" data-name="Path 640" d="M281.959,218.431c-1.4.5-2.972-.371-4.036-1.208-.272-.862-.584-1.788-.941-2.8-.084-.238-.3-.832-.555-1.52a3.041,3.041,0,0,1,.718-3.224C279.839,212.221,283.831,217.792,281.959,218.431Z" transform="translate(-276.129 -188.2)" opacity="0.2"/>
    <path id="Path_641" data-name="Path 641" d="M277,208.407a2.63,2.63,0,0,1,3.808.545c2.174,3.115,5.824,8.3,6.265,8.548.629.367,5.374-4.007,9.6-9.553l2.59.99s-6.691,13.758-11.44,13.817c-3.561.045-8.915-7.176-11.346-10.806A2.635,2.635,0,0,1,277,208.407Z" transform="translate(-276.018 -187.263)" fill="#ebb376"/>
    <path id="Path_642" data-name="Path 642" d="M283.515,260.15a8.29,8.29,0,0,1-4.195,4.457v1.179s4.378-1.862,4.992-4.953Z" transform="translate(-277.685 -213.675)" opacity="0.2"/>
    <path id="Path_643" data-name="Path 643" d="M280.809,294.267,285,293.48l1,8.429-4.017.584-.579-5.487,3.625-.515-.208-2.08-.059,1.847-4.076.654Z" transform="translate(-278.376 -230.498)" opacity="0.2"/>
  </g>
</svg>
