<svg id="Sign_up" data-name="Sign up" xmlns="http://www.w3.org/2000/svg" width="247.626" height="184.511" viewBox="0 0 247.626 184.511">
  <g id="freepik--background-complete--inject-20" transform="translate(0 0)">
    <rect id="Rectangle_809" data-name="Rectangle 809" width="247.626" height="0.124" transform="translate(0 162.145)" fill="#ebebeb"/>
    <rect id="Rectangle_810" data-name="Rectangle 810" width="16.403" height="0.124" transform="translate(206.411 170.114)" fill="#ebebeb"/>
    <rect id="Rectangle_811" data-name="Rectangle 811" width="4.304" height="0.124" transform="translate(159.733 171.461)" fill="#ebebeb"/>
    <rect id="Rectangle_812" data-name="Rectangle 812" width="9.504" height="0.124" transform="translate(196.412 165.518)" fill="#ebebeb"/>
    <rect id="Rectangle_813" data-name="Rectangle 813" width="21.39" height="0.124" transform="translate(25.981 166.35)" fill="#ebebeb"/>
    <rect id="Rectangle_814" data-name="Rectangle 814" width="3.135" height="0.124" transform="translate(51.783 166.35)" fill="#ebebeb"/>
    <rect id="Rectangle_815" data-name="Rectangle 815" width="46.395" height="0.124" transform="translate(65.111 168.44)" fill="#ebebeb"/>
    <path id="Path_644" data-name="Path 644" d="M136.661,195.057H41.033a2.828,2.828,0,0,1-2.823-2.828V57.8A2.828,2.828,0,0,1,41.033,55h95.628a2.828,2.828,0,0,1,2.828,2.828v134.4A2.828,2.828,0,0,1,136.661,195.057ZM41.033,55.1a2.7,2.7,0,0,0-2.7,2.7V192.229a2.7,2.7,0,0,0,2.7,2.7h95.628a2.709,2.709,0,0,0,2.7-2.7V57.8a2.709,2.709,0,0,0-2.7-2.7Z" transform="translate(-19.286 -55)" fill="#ebebeb"/>
    <path id="Path_645" data-name="Path 645" d="M352.961,195.057H257.328a2.833,2.833,0,0,1-2.828-2.828V57.8a2.833,2.833,0,0,1,2.828-2.8h95.633a2.828,2.828,0,0,1,2.818,2.8V192.229A2.828,2.828,0,0,1,352.961,195.057ZM257.328,55.1a2.709,2.709,0,0,0-2.7,2.7V192.229a2.709,2.709,0,0,0,2.7,2.7h95.633a2.709,2.709,0,0,0,2.7-2.7V57.8a2.709,2.709,0,0,0-2.7-2.7Z" transform="translate(-128.459 -55)" fill="#ebebeb"/>
    <rect id="Rectangle_816" data-name="Rectangle 816" width="70.316" height="103.096" transform="translate(49.703 58.875)" fill="#f0f0f0"/>
    <rect id="Rectangle_817" data-name="Rectangle 817" width="65.348" height="19.042" transform="translate(52.185 62.119)" fill="#e0e0e0"/>
    <rect id="Rectangle_818" data-name="Rectangle 818" width="3.714" height="15.957" transform="translate(52.185 65.2)" fill="#ebebeb"/>
    <rect id="Rectangle_819" data-name="Rectangle 819" width="3.714" height="15.957" transform="translate(70.137 65.2)" fill="#ebebeb"/>
    <rect id="Rectangle_820" data-name="Rectangle 820" width="3.714" height="15.957" transform="matrix(0.985, -0.17, 0.17, 0.985, 90.568, 65.43)" fill="#ebebeb"/>
    <rect id="Rectangle_821" data-name="Rectangle 821" width="3.714" height="13.857" transform="translate(56.785 67.305)" fill="#ebebeb"/>
    <rect id="Rectangle_822" data-name="Rectangle 822" width="3.714" height="13.857" transform="translate(65.319 67.305)" fill="#ebebeb"/>
    <rect id="Rectangle_823" data-name="Rectangle 823" width="3.714" height="13.857" transform="translate(86.857 67.305)" fill="#ebebeb"/>
    <rect id="Rectangle_824" data-name="Rectangle 824" width="3.714" height="13.857" transform="translate(75.104 67.629) rotate(-12.53)" fill="#ebebeb"/>
    <rect id="Rectangle_825" data-name="Rectangle 825" width="1.857" height="16.749" transform="translate(61.852 64.407)" fill="#ebebeb"/>
    <rect id="Rectangle_826" data-name="Rectangle 826" width="1.857" height="16.749" transform="translate(83.93 64.407)" fill="#ebebeb"/>
    <rect id="Rectangle_827" data-name="Rectangle 827" width="65.348" height="19.042" transform="translate(117.538 103.22) rotate(180)" fill="#e0e0e0"/>
    <rect id="Rectangle_828" data-name="Rectangle 828" width="3.714" height="15.957" transform="translate(117.533 103.215) rotate(180)" fill="#ebebeb"/>
    <rect id="Rectangle_829" data-name="Rectangle 829" width="3.714" height="15.957" transform="translate(99.585 103.215) rotate(180)" fill="#ebebeb"/>
    <rect id="Rectangle_830" data-name="Rectangle 830" width="3.714" height="15.957" transform="matrix(-0.985, -0.17, 0.17, -0.985, 76.446, 103.211)" fill="#ebebeb"/>
    <rect id="Rectangle_831" data-name="Rectangle 831" width="3.714" height="13.857" transform="translate(112.932 103.22) rotate(180)" fill="#ebebeb"/>
    <rect id="Rectangle_832" data-name="Rectangle 832" width="3.714" height="13.857" transform="translate(104.404 103.22) rotate(180)" fill="#ebebeb"/>
    <rect id="Rectangle_833" data-name="Rectangle 833" width="3.714" height="13.857" transform="translate(82.865 103.22) rotate(180)" fill="#ebebeb"/>
    <rect id="Rectangle_834" data-name="Rectangle 834" width="3.714" height="13.857" transform="translate(91.624 103.217) rotate(-167.47)" fill="#ebebeb"/>
    <rect id="Rectangle_835" data-name="Rectangle 835" width="1.857" height="16.749" transform="translate(107.866 103.215) rotate(180)" fill="#ebebeb"/>
    <rect id="Rectangle_836" data-name="Rectangle 836" width="1.857" height="16.749" transform="translate(85.792 103.215) rotate(180)" fill="#ebebeb"/>
    <rect id="Rectangle_837" data-name="Rectangle 837" width="3.714" height="15.957" transform="translate(52.185 87.258)" fill="#ebebeb"/>
    <rect id="Rectangle_838" data-name="Rectangle 838" width="3.714" height="13.857" transform="translate(56.785 89.358)" fill="#ebebeb"/>
    <rect id="Rectangle_839" data-name="Rectangle 839" width="3.714" height="13.857" transform="translate(65.319 89.358)" fill="#ebebeb"/>
    <rect id="Rectangle_840" data-name="Rectangle 840" width="1.857" height="16.749" transform="translate(61.852 86.466)" fill="#ebebeb"/>
    <rect id="Rectangle_841" data-name="Rectangle 841" width="65.348" height="19.042" transform="translate(52.185 106.231)" fill="#e0e0e0"/>
    <rect id="Rectangle_842" data-name="Rectangle 842" width="3.714" height="15.957" transform="translate(89.695 109.312)" fill="#ebebeb"/>
    <rect id="Rectangle_843" data-name="Rectangle 843" width="3.714" height="15.957" transform="matrix(0.985, -0.17, 0.17, 0.985, 110.128, 109.541)" fill="#ebebeb"/>
    <rect id="Rectangle_844" data-name="Rectangle 844" width="3.714" height="13.857" transform="translate(76.343 111.417)" fill="#ebebeb"/>
    <rect id="Rectangle_845" data-name="Rectangle 845" width="3.714" height="13.857" transform="translate(84.876 111.417)" fill="#ebebeb"/>
    <rect id="Rectangle_846" data-name="Rectangle 846" width="3.714" height="13.857" transform="translate(106.415 111.417)" fill="#ebebeb"/>
    <rect id="Rectangle_847" data-name="Rectangle 847" width="3.714" height="13.857" transform="translate(94.663 111.742) rotate(-12.53)" fill="#ebebeb"/>
    <rect id="Rectangle_848" data-name="Rectangle 848" width="1.857" height="16.749" transform="translate(81.409 108.519)" fill="#ebebeb"/>
    <rect id="Rectangle_849" data-name="Rectangle 849" width="1.857" height="16.749" transform="translate(103.488 108.519)" fill="#ebebeb"/>
    <rect id="Rectangle_850" data-name="Rectangle 850" width="3.714" height="15.957" transform="matrix(0.985, -0.17, 0.17, 0.985, 67.419, 109.545)" fill="#ebebeb"/>
    <rect id="Rectangle_851" data-name="Rectangle 851" width="3.714" height="13.857" transform="translate(63.704 111.417)" fill="#ebebeb"/>
    <rect id="Rectangle_852" data-name="Rectangle 852" width="3.714" height="13.857" transform="translate(51.955 111.742) rotate(-12.53)" fill="#ebebeb"/>
    <rect id="Rectangle_853" data-name="Rectangle 853" width="1.857" height="16.749" transform="translate(60.782 108.519)" fill="#ebebeb"/>
    <rect id="Rectangle_854" data-name="Rectangle 854" width="12.134" height="103.364" transform="translate(49.703 162.239) rotate(180)" fill="#e0e0e0"/>
    <path id="Path_646" data-name="Path 646" d="M314.936,328.7H304.63l5.418-44.147a3.932,3.932,0,0,1,3.8-3.383H358.8L352.2,328.679Z" transform="translate(-153.762 -169.159)" fill="#f5f5f5"/>
    <path id="Path_647" data-name="Path 647" d="M391.44,328.7h10.306l5.423-44.147a2.932,2.932,0,0,0-2.971-3.383h-3.541a3.962,3.962,0,0,0-3.8,3.383Z" transform="translate(-197.579 -169.158)" fill="#f0f0f0"/>
    <path id="Path_648" data-name="Path 648" d="M380.721,343.747l1.867-21.345a2.03,2.03,0,0,1,1.768-1.842l.768-.1a2.719,2.719,0,0,0,2.372-2.476l.342-3.893a2.729,2.729,0,0,0-2.719-2.971h17.225a2.729,2.729,0,0,1,2.719,2.972l-.342,3.893a2.719,2.719,0,0,1-2.372,2.476l-.768.1a2.035,2.035,0,0,0-1.768,1.842l-1.867,21.345a3.016,3.016,0,0,1-3,2.749H377.72a3.016,3.016,0,0,0,3-2.749Z" transform="translate(-190.654 -184.276)" fill="#e6e6e6"/>
    <path id="Path_649" data-name="Path 649" d="M281.473,317.093a6.488,6.488,0,0,0-6.463-5.943h15a6.488,6.488,0,0,1,6.438,5.943l1.486,16.918H282.954Z" transform="translate(-138.811 -184.291)" fill="#e6e6e6"/>
    <path id="Path_650" data-name="Path 650" d="M258.781,311.19h6.656a6.488,6.488,0,0,1,6.463,5.943l1.486,16.918H309.1l1.486-16.918a6.483,6.483,0,0,1,6.438-5.943h6.661a2.729,2.729,0,0,1,2.719,2.971l-.342,3.893a2.719,2.719,0,0,1-2.372,2.476l-.768.1a2.031,2.031,0,0,0-1.768,1.842l-1.847,21.311a3.016,3.016,0,0,1-3,2.749H266.18a3.016,3.016,0,0,1-3-2.749l-1.867-21.345a2.04,2.04,0,0,0-1.768-1.842l-.768-.1a2.729,2.729,0,0,1-2.377-2.476l-.337-3.893a2.729,2.729,0,0,1,2.719-2.937Z" transform="translate(-129.243 -184.312)" fill="#f0f0f0"/>
    <path id="Path_651" data-name="Path 651" d="M97.047,143.911a7.084,7.084,0,0,1,2.09-5.943c2.64-2.323,2.407-3.7,1.649-3.878s-1.446,2.14-2.605,2.778c0,0-.04-3.308,1.139-4.522s1.8-4.358.674-4.413-1.233,1.862-1.486,3.224a12,12,0,0,1-1.486,3.274,12.985,12.985,0,0,0-.991-4.175c-.748-1.2,1.268-4,.5-5.215s-2.174,1.1-2.06,3.709,1.857,5.393,1.451,8.117c0,0-.768-1.917-1.456-2.09s-1.387-1.436-1.847-1.907-1.045,1.154,0,2.66,3.709,5.542,3.3,8.8Z" transform="translate(-46.452 -90.186)" fill="#e6e6e6"/>
    <path id="Path_652" data-name="Path 652" d="M99.7,160.15l.867,5.423a2.759,2.759,0,0,1-2.724,3.189h-.921a2.759,2.759,0,0,1-2.724-3.189l.877-5.423Z" transform="translate(-47.528 -108.074)" fill="#e6e6e6"/>
    <rect id="Rectangle_855" data-name="Rectangle 855" width="2.689" height="11.564" transform="translate(106.717 59.628) rotate(180)" fill="#ebebeb"/>
    <rect id="Rectangle_856" data-name="Rectangle 856" width="2.689" height="11.564" transform="translate(93.711 59.628) rotate(180)" fill="#ebebeb"/>
    <rect id="Rectangle_857" data-name="Rectangle 857" width="2.689" height="11.564" transform="matrix(-0.985, -0.17, 0.17, -0.985, 76.945, 59.625)" fill="#ebebeb"/>
    <rect id="Rectangle_858" data-name="Rectangle 858" width="2.689" height="10.039" transform="translate(103.384 59.623) rotate(180)" fill="#ebebeb"/>
    <rect id="Rectangle_859" data-name="Rectangle 859" width="2.689" height="10.039" transform="translate(97.203 59.623) rotate(180)" fill="#ebebeb"/>
    <rect id="Rectangle_860" data-name="Rectangle 860" width="2.689" height="10.039" transform="translate(81.593 59.623) rotate(180)" fill="#ebebeb"/>
    <rect id="Rectangle_861" data-name="Rectangle 861" width="2.689" height="10.039" transform="translate(87.942 59.625) rotate(-167.47)" fill="#ebebeb"/>
    <rect id="Rectangle_862" data-name="Rectangle 862" width="1.347" height="12.139" transform="translate(99.714 59.628) rotate(180)" fill="#ebebeb"/>
    <rect id="Rectangle_863" data-name="Rectangle 863" width="1.347" height="12.139" transform="translate(83.712 59.628) rotate(180)" fill="#ebebeb"/>
    <rect id="Rectangle_864" data-name="Rectangle 864" width="13.109" height="9.048" transform="translate(59.668 50.446)" fill="#ebebeb"/>
    <rect id="Rectangle_865" data-name="Rectangle 865" width="10.98" height="6.755" transform="translate(106.756 54.151)" fill="#ebebeb"/>
    <rect id="Rectangle_866" data-name="Rectangle 866" width="5.492" height="6.755" transform="translate(109.678 48.213)" fill="#ebebeb"/>
    <rect id="Rectangle_867" data-name="Rectangle 867" width="13.06" height="54.418" transform="translate(193.861 39.273)" fill="#e0e0e0"/>
    <rect id="Rectangle_868" data-name="Rectangle 868" width="48.842" height="54.562" transform="translate(205.519 93.84) rotate(180)" fill="#e0e0e0"/>
    <rect id="Rectangle_869" data-name="Rectangle 869" width="50.674" height="54.562" transform="translate(205.777 93.84) rotate(180)" fill="#f0f0f0"/>
    <rect id="Rectangle_870" data-name="Rectangle 870" width="46.425" height="50.318" transform="translate(203.697 91.329) rotate(180)" fill="#fff"/>
    <rect id="Rectangle_871" data-name="Rectangle 871" width="0.862" height="50.318" transform="translate(158.129 91.329) rotate(180)" fill="#e0e0e0"/>
    <rect id="Rectangle_872" data-name="Rectangle 872" width="1.357" height="45.831" transform="translate(157.99 78.557) rotate(-90)" fill="#e0e0e0"/>
    <rect id="Rectangle_873" data-name="Rectangle 873" width="47.153" height="2.278" transform="translate(204.42 77.195) rotate(180)" fill="#f0f0f0"/>
  </g>
  <g id="freepik--Shadow--inject-20" transform="translate(27.789 173.298)">
    <ellipse id="freepik--path--inject-20" cx="96.024" cy="5.606" rx="96.024" ry="5.606" fill="#f5f5f5"/>
  </g>
  <g id="freepik--Tab--inject-20" transform="translate(67.215 48.445)">
    <rect id="Rectangle_874" data-name="Rectangle 874" width="95.856" height="111.58" rx="7.32" fill="#6ca2fe"/>
    <rect id="Rectangle_875" data-name="Rectangle 875" width="95.856" height="111.58" rx="7.32" fill="#fff" opacity="0.6"/>
    <rect id="Rectangle_876" data-name="Rectangle 876" width="64.799" height="11.094" transform="translate(15.531 51.174)" fill="#fff"/>
    <g id="Group_215" data-name="Group 215" transform="translate(19.077 54.72)" opacity="0.4">
      <path id="Path_653" data-name="Path 653" d="M176.488,266.587v.292H174.24V263.7h2.179v.287h-1.842v1.134h1.644v.282h-1.644v1.184Z" transform="translate(-174.24 -263.507)" fill="#263238"/>
      <path id="Path_654" data-name="Path 654" d="M179.69,267.35h1.194v.277H179.69Z" transform="translate(-176.991 -265.349)" fill="#263238"/>
      <path id="Path_655" data-name="Path 655" d="M187.492,266.272v1.387h-.322V266.3c0-.5-.253-.763-.683-.763a.768.768,0,0,0-.8.862v1.258h-.327V266.3c0-.5-.253-.763-.688-.763a.768.768,0,0,0-.8.862v1.258h-.327v-2.392h.312v.436a.991.991,0,0,1,.877-.456.852.852,0,0,1,.847.5,1.05,1.05,0,0,1,.946-.5.9.9,0,0,1,.961,1.025Z" transform="translate(-178.939 -264.286)" fill="#263238"/>
      <path id="Path_656" data-name="Path 656" d="M194.886,266.17v1.486h-.312v-.376a.891.891,0,0,1-.822.4c-.54,0-.872-.282-.872-.693s.238-.678.921-.678h.758v-.144c0-.411-.228-.634-.674-.634a1.228,1.228,0,0,0-.8.282l-.144-.238a1.486,1.486,0,0,1,.991-.327.852.852,0,0,1,.951.926Zm-.327.768v-.391h-.748c-.461,0-.614.178-.614.426s.223.451.6.451a.758.758,0,0,0,.758-.485Z" transform="translate(-183.648 -264.283)" fill="#263238"/>
      <path id="Path_657" data-name="Path 657" d="M198.55,263.538a.233.233,0,0,1,.238-.228.228.228,0,0,1,.233.223.235.235,0,1,1-.47,0Zm.074.753h.322v2.392h-.322Z" transform="translate(-186.51 -263.31)" fill="#263238"/>
      <path id="Path_658" data-name="Path 658" d="M201.16,263.31h.322v3.373h-.322Z" transform="translate(-187.828 -263.31)" fill="#263238"/>
    </g>
    <rect id="Rectangle_877" data-name="Rectangle 877" width="64.799" height="11.094" transform="translate(15.531 66.329)" fill="#fff"/>
    <g id="Group_216" data-name="Group 216" transform="translate(19.077 69.92)" opacity="0.4">
      <path id="Path_659" data-name="Path 659" d="M176.726,295.409c0,.678-.5,1.09-1.3,1.09h-.852v.99h-.337v-3.18h1.189C176.236,294.32,176.726,294.731,176.726,295.409Zm-.337,0c0-.5-.332-.8-.991-.8h-.842v1.59h.842C176.058,296.2,176.389,295.91,176.389,295.409Z" transform="translate(-174.24 -294.156)" fill="#263238"/>
      <path id="Path_660" data-name="Path 660" d="M182.146,296.794v1.486h-.312V297.9a.891.891,0,0,1-.822.4c-.54,0-.872-.282-.872-.7s.238-.688.921-.688h.758v-.149c0-.406-.233-.629-.678-.629a1.208,1.208,0,0,0-.792.282l-.149-.243a1.525,1.525,0,0,1,.991-.322.852.852,0,0,1,.956.941Zm-.322.763v-.391h-.763c-.461,0-.609.183-.609.431s.218.446.6.446A.763.763,0,0,0,181.824,297.556Z" transform="translate(-177.218 -294.932)" fill="#263238"/>
      <path id="Path_661" data-name="Path 661" d="M185.29,298.024l.144-.253a1.485,1.485,0,0,0,.852.268c.451,0,.639-.154.639-.391,0-.624-1.55-.134-1.55-1.075,0-.391.337-.683.946-.683a1.665,1.665,0,0,1,.847.223l-.144.258a1.229,1.229,0,0,0-.7-.2c-.431,0-.624.168-.624.4,0,.644,1.55.158,1.55,1.075,0,.416-.362.683-.99.683A1.585,1.585,0,0,1,185.29,298.024Z" transform="translate(-179.817 -294.954)" fill="#263238"/>
      <path id="Path_662" data-name="Path 662" d="M189.77,298.024l.149-.253a1.436,1.436,0,0,0,.847.267c.456,0,.639-.154.639-.391,0-.624-1.545-.134-1.545-1.075,0-.391.337-.683.941-.683a1.64,1.64,0,0,1,.847.223l-.139.258a1.253,1.253,0,0,0-.708-.2c-.431,0-.619.168-.619.4,0,.644,1.55.158,1.55,1.075,0,.416-.366.683-.99.683a1.609,1.609,0,0,1-.971-.3Z" transform="translate(-182.079 -294.954)" fill="#263238"/>
      <path id="Path_663" data-name="Path 663" d="M197.917,295.93l-.9,2.387h-.3l-.733-1.956-.753,1.956h-.3L194,295.93h.307l.753,2.031.768-2.031h.277l.763,2.031.758-2.031Z" transform="translate(-184.214 -294.974)" fill="#263238"/>
      <path id="Path_664" data-name="Path 664" d="M202.269,297.1a1.218,1.218,0,1,1,1.218,1.218,1.179,1.179,0,0,1-1.218-1.218Zm2.1,0a.891.891,0,1,0-.887.931.872.872,0,0,0,.887-.931Z" transform="translate(-188.387 -294.949)" fill="#263238"/>
      <path id="Path_665" data-name="Path 665" d="M209.714,295.885v.312h-.079a.773.773,0,0,0-.8.877v1.218h-.322v-2.387h.307v.466a.906.906,0,0,1,.9-.485Z" transform="translate(-191.538 -294.949)" fill="#263238"/>
      <path id="Path_666" data-name="Path 666" d="M214.056,294v3.368h-.307v-.47a1.04,1.04,0,0,1-.921.5,1.218,1.218,0,0,1,0-2.432,1.035,1.035,0,0,1,.906.5V294Zm-.317,2.174a.891.891,0,1,0-.886.931.872.872,0,0,0,.886-.956Z" transform="translate(-193.141 -294)" fill="#263238"/>
    </g>
    <rect id="Rectangle_878" data-name="Rectangle 878" width="64.799" height="11.094" transform="translate(15.531 88.739)" opacity="0.2"/>
    <g id="Group_217" data-name="Group 217" transform="translate(29.794 82.012)" opacity="0.5">
      <path id="Path_667" data-name="Path 667" d="M197.376,320.282h-1.06l-.228.5h-.208l.867-1.9h.2l.867,1.9H197.6Zm-.074-.163-.456-1.02-.456,1.02Z" transform="translate(-195.88 -318.651)"/>
      <path id="Path_668" data-name="Path 668" d="M200.34,318.67h.193v2.011h-.193Z" transform="translate(-198.131 -318.545)"/>
      <path id="Path_669" data-name="Path 669" d="M202.518,319.825v.188h-.05a.461.461,0,0,0-.5.525v.728h-.193V319.84h.188v.277A.535.535,0,0,1,202.518,319.825Z" transform="translate(-198.858 -319.126)"/>
      <path id="Path_670" data-name="Path 670" d="M205.016,320.612H203.8a.525.525,0,0,0,.56.5.574.574,0,0,0,.441-.183l.1.124a.753.753,0,0,1-1.3-.5.688.688,0,0,1,.7-.723.679.679,0,0,1,.693.723A.247.247,0,0,1,205.016,320.612Zm-1.194-.144h.991a.5.5,0,1,0-.991,0Z" transform="translate(-199.781 -319.13)"/>
      <path id="Path_671" data-name="Path 671" d="M208.159,320.427v.882h-.168v-.223a.525.525,0,0,1-.5.238c-.322,0-.5-.168-.5-.416s.139-.406.55-.406h.441v-.084c0-.243-.139-.376-.406-.376a.733.733,0,0,0-.5.168l-.084-.144a.887.887,0,0,1,.579-.193.5.5,0,0,1,.574.555Zm-.188.456v-.238h-.451c-.277,0-.367.109-.367.258s.134.267.362.267a.466.466,0,0,0,.475-.312Z" transform="translate(-201.493 -319.148)"/>
      <path id="Path_672" data-name="Path 672" d="M211.572,318.67v2.011h-.183V320.4a.609.609,0,0,1-.55.3.728.728,0,0,1,0-1.451.634.634,0,0,1,.545.282v-.857Zm-.188,1.3a.53.53,0,1,0-.53.555.52.52,0,0,0,.55-.555Z" transform="translate(-203.093 -318.545)"/>
      <path id="Path_673" data-name="Path 673" d="M214.965,319.85l-.713,1.6a.522.522,0,0,1-.842.238l.089-.144a.372.372,0,0,0,.263.109c.129,0,.213-.059.3-.243l.059-.134-.639-1.426h.223l.54,1.213.535-1.213Z" transform="translate(-204.728 -319.14)"/>
      <path id="Path_674" data-name="Path 674" d="M219.514,320.427v.882h-.183v-.223a.525.525,0,0,1-.5.238c-.322,0-.5-.168-.5-.416s.139-.406.55-.406h.451v-.084c0-.243-.134-.376-.4-.376a.733.733,0,0,0-.5.168l-.089-.144a.9.9,0,0,1,.584-.193.5.5,0,0,1,.574.555Zm-.193.456v-.238h-.446c-.277,0-.366.109-.366.258s.134.267.362.267a.456.456,0,0,0,.451-.312Z" transform="translate(-207.217 -319.148)"/>
      <path id="Path_675" data-name="Path 675" d="M225.567,320.41v.827h-.188v-.807c0-.3-.154-.456-.411-.456a.461.461,0,0,0-.5.5v.748h-.188v-.787c0-.3-.154-.456-.416-.456a.461.461,0,0,0-.5.5v.748h-.193v-1.426h.183v.262a.575.575,0,0,1,.525-.272.5.5,0,0,1,.5.3.619.619,0,0,1,.565-.3.535.535,0,0,1,.619.629Z" transform="translate(-209.66 -319.102)"/>
      <path id="Path_676" data-name="Path 676" d="M230.131,320.643h-1.194a.535.535,0,0,0,.565.5.56.56,0,0,0,.436-.183l.109.124a.718.718,0,0,1-.55.233.7.7,0,0,1-.748-.728.693.693,0,0,1,1.387,0S230.131,320.623,230.131,320.643Zm-1.194-.144h1.015a.508.508,0,1,0-1.015,0Z" transform="translate(-212.471 -319.161)"/>
      <path id="Path_677" data-name="Path 677" d="M234.667,320.41v.827h-.193v-.807c0-.3-.149-.456-.406-.456a.456.456,0,0,0-.5.5v.748h-.193v-.787c0-.3-.149-.456-.411-.456a.456.456,0,0,0-.5.5v.748h-.193v-1.426h.183v.262a.57.57,0,0,1,.525-.272.5.5,0,0,1,.5.3.619.619,0,0,1,.565-.3.535.535,0,0,1,.619.629Z" transform="translate(-214.253 -319.102)"/>
      <path id="Path_678" data-name="Path 678" d="M239.606,319.968a.693.693,0,0,1-.708.728.609.609,0,0,1-.55-.3v.282h-.188V318.67h.193v.857a.629.629,0,0,1,.545-.282.688.688,0,0,1,.708.723Zm-.193,0a.53.53,0,1,0-.53.555.52.52,0,0,0,.53-.555Z" transform="translate(-217.221 -318.545)"/>
      <path id="Path_679" data-name="Path 679" d="M242.981,320.592H241.8a.525.525,0,0,0,.56.5.559.559,0,0,0,.431-.2l.109.124a.753.753,0,0,1-1.3-.5.688.688,0,0,1,.7-.723.673.673,0,0,1,.688.723Zm-1.194-.144h.991a.5.5,0,0,0-.991,0Z" transform="translate(-218.956 -319.11)"/>
      <path id="Path_680" data-name="Path 680" d="M245.893,319.826v.188h-.045a.461.461,0,0,0-.5.525v.728h-.193V319.84h.183v.277A.54.54,0,0,1,245.893,319.826Z" transform="translate(-220.754 -319.126)"/>
      <path id="Path_681" data-name="Path 681" d="M248.039,319.364c0-.2-.158-.332-.436-.332a.644.644,0,0,0-.52.218l-.144-.109a.842.842,0,0,1,.678-.282c.381,0,.624.183.624.5,0,.461-.5.5-.5.872h-.2C247.544,319.76,248.039,319.715,248.039,319.364Zm-.535,1.283a.144.144,0,1,1,.062.146A.144.144,0,0,1,247.5,320.646Z" transform="translate(-221.652 -318.639)"/>
      <path id="Path_682" data-name="Path 682" d="M251.87,318.9h.441v1.535h.951v.357H251.87Z" transform="translate(-224.141 -318.661)"/>
      <path id="Path_683" data-name="Path 683" d="M254.878,320.392a.8.8,0,1,1,.8.753.753.753,0,0,1-.8-.753Zm1.174,0a.371.371,0,1,0-.371.4.366.366,0,0,0,.371-.4Z" transform="translate(-225.659 -318.984)"/>
      <path id="Path_684" data-name="Path 684" d="M260.029,319.757v1.218a.713.713,0,0,1-.817.792,1.209,1.209,0,0,1-.718-.2l.168-.3a.876.876,0,0,0,.5.163c.3,0,.431-.134.431-.4v-.064a.6.6,0,0,1-.461.183.708.708,0,1,1,0-1.411.584.584,0,0,1,.5.208v-.188Zm-.416.688a.352.352,0,0,0-.381-.362.362.362,0,1,0,0,.718.352.352,0,0,0,.381-.357Z" transform="translate(-227.417 -319.082)"/>
      <path id="Path_685" data-name="Path 685" d="M264,318.656a.243.243,0,0,1,.262-.238.238.238,0,0,1,.262.228.262.262,0,0,1-.525,0Zm.049.436h.421v1.486h-.421Z" transform="translate(-230.263 -318.417)"/>
      <path id="Path_686" data-name="Path 686" d="M267.221,320.318v.837H266.8v-.768c0-.238-.109-.347-.3-.347a.347.347,0,0,0-.352.391v.723h-.421v-1.486h.406v.173a.639.639,0,0,1,.5-.193.57.57,0,0,1,.589.669Z" transform="translate(-231.137 -319.038)"/>
    </g>
    <rect id="Rectangle_879" data-name="Rectangle 879" width="64.799" height="11.094" transform="translate(15.531 88.061)" fill="#6ca2fe"/>
    <path id="Path_687" data-name="Path 687" d="M213.036,341.449l-.792-1.144h-1.179v1.154h-.545v-3.8h1.486c.991,0,1.58.5,1.58,1.327a1.2,1.2,0,0,1-.832,1.2l.9,1.273Zm0-2.476c0-.545-.362-.852-1.06-.852h-.921v1.709h.921c.683,0,1.045-.312,1.045-.852Z" transform="translate(-173.475 -246.118)" fill="#fff"/>
    <path id="Path_688" data-name="Path 688" d="M220.606,341.084h-2.333a.991.991,0,0,0,1.04.842,1.08,1.08,0,0,0,.832-.347l.287.337a1.57,1.57,0,0,1-2.684-.991,1.411,1.411,0,0,1,1.446-1.486,1.387,1.387,0,0,1,1.421,1.486C220.615,340.97,220.611,341.034,220.606,341.084Zm-2.333-.376h1.842a.926.926,0,0,0-1.842,0Z" transform="translate(-177.123 -247.016)" fill="#fff"/>
    <path id="Path_689" data-name="Path 689" d="M227.567,339.484v2.476a1.313,1.313,0,0,1-1.486,1.486,2.13,2.13,0,0,1-1.372-.426l.248-.4a1.768,1.768,0,0,0,1.109.371c.678,0,.991-.312.991-.966V341.8a1.3,1.3,0,0,1-1.035.446,1.392,1.392,0,0,1,0-2.783,1.307,1.307,0,0,1,1.065.5v-.446Zm-.5,1.362a.99.99,0,1,0-.991.936.921.921,0,0,0,.976-.936Z" transform="translate(-180.597 -247.026)" fill="#fff"/>
    <path id="Path_690" data-name="Path 690" d="M232.38,337.359a.347.347,0,0,1,.352-.342.339.339,0,1,1-.352.342Zm.094.891h.52v2.872h-.52Z" transform="translate(-184.509 -245.792)" fill="#fff"/>
    <path id="Path_691" data-name="Path 691" d="M234.89,342.05l.218-.411a1.843,1.843,0,0,0,.991.3c.5,0,.683-.149.683-.391,0-.644-1.818-.084-1.818-1.233,0-.5.461-.862,1.2-.862a2.08,2.08,0,0,1,1.045.263l-.223.411a1.486,1.486,0,0,0-.827-.228c-.456,0-.678.168-.678.4,0,.679,1.823.124,1.823,1.243,0,.5-.5.852-1.243.852A2.09,2.09,0,0,1,234.89,342.05Z" transform="translate(-185.776 -247.021)" fill="#fff"/>
    <path id="Path_692" data-name="Path 692" d="M242.305,341.6a.991.991,0,0,1-.629.2.822.822,0,0,1-.911-.9v-1.58h-.5V338.9h.5v-.629h.5v.629h.857v.426h-.827v1.56a.421.421,0,0,0,.451.5.663.663,0,0,0,.406-.134Z" transform="translate(-188.491 -246.426)" fill="#fff"/>
    <path id="Path_693" data-name="Path 693" d="M247.786,341.084h-2.318a.99.99,0,0,0,1.045.842,1.065,1.065,0,0,0,.827-.347l.287.337a1.565,1.565,0,0,1-2.679-.99,1.411,1.411,0,0,1,1.446-1.486,1.392,1.392,0,0,1,1.421,1.486.9.9,0,0,1-.03.158Zm-2.318-.376h1.847a.931.931,0,0,0-1.847,0Z" transform="translate(-190.852 -247.016)" fill="#fff"/>
    <path id="Path_694" data-name="Path 694" d="M253.715,339.445v.5H253.6a.857.857,0,0,0-.906.99v1.431h-.52v-2.872h.5v.5a1.09,1.09,0,0,1,1.05-.54Z" transform="translate(-194.498 -247.016)" fill="#fff"/>
    <g id="Group_218" data-name="Group 218" transform="translate(36.584 8.256)" opacity="0.6">
      <path id="Path_695" data-name="Path 695" d="M209.59,173.824l.223-.466a2.12,2.12,0,0,0,1.372.5c.718,0,1.025-.277,1.025-.639,0-.99-2.516-.376-2.516-1.917,0-.644.5-1.189,1.59-1.189a2.476,2.476,0,0,1,1.337.366l-.2.5a2.134,2.134,0,0,0-1.139-.337c-.708,0-.99.3-.99.659,0,.991,2.521.376,2.521,1.907,0,.634-.5,1.179-1.61,1.179a2.476,2.476,0,0,1-1.615-.555Z" transform="translate(-209.59 -169.802)" fill="#263238"/>
      <path id="Path_696" data-name="Path 696" d="M217.44,169.861a.376.376,0,0,1,.386-.371.371.371,0,0,1,.386.362.386.386,0,1,1-.773,0Zm.1.991h.574V174h-.574Z" transform="translate(-213.552 -169.489)" fill="#263238"/>
      <path id="Path_697" data-name="Path 697" d="M223.711,172.187v2.719a1.43,1.43,0,0,1-1.629,1.619,2.347,2.347,0,0,1-1.486-.471l.272-.441a1.907,1.907,0,0,0,1.213.411c.743,0,1.08-.347,1.08-1.06v-.248a1.436,1.436,0,0,1-1.134.5,1.525,1.525,0,1,1,0-3.046,1.441,1.441,0,0,1,1.164.5v-.5Zm-.555,1.486a1.085,1.085,0,1,0-1.085,1.03,1.02,1.02,0,0,0,1.109-1.025Z" transform="translate(-215.054 -170.84)" fill="#263238"/>
      <path id="Path_698" data-name="Path 698" d="M232.271,173.524v1.813H231.7v-1.768c0-.619-.307-.921-.847-.921a.936.936,0,0,0-.991,1.045v1.624h-.57v-3.15h.55v.5a1.337,1.337,0,0,1,1.134-.5,1.223,1.223,0,0,1,1.3,1.357Z" transform="translate(-219.534 -170.839)" fill="#263238"/>
      <path id="Path_699" data-name="Path 699" d="M243.568,172.175v3.15h-.54v-.5a1.283,1.283,0,0,1-1.07.5,1.238,1.238,0,0,1-1.357-1.372V172.14h.57v1.748c0,.614.312.926.852.926a.931.931,0,0,0,.99-1.045V172.14Z" transform="translate(-225.239 -170.827)" fill="#263238"/>
      <path id="Path_700" data-name="Path 700" d="M252.059,173.763a1.53,1.53,0,0,1-1.59,1.61,1.352,1.352,0,0,1-1.1-.5V176.5h-.57v-4.3h.545v.5a1.342,1.342,0,0,1,1.124-.53,1.525,1.525,0,0,1,1.59,1.595Zm-.575,0a1.06,1.06,0,1,0-1.065,1.109,1.045,1.045,0,0,0,1.065-1.109Z" transform="translate(-229.381 -170.841)" fill="#263238"/>
    </g>
    <rect id="Rectangle_880" data-name="Rectangle 880" width="64.799" height="11.094" transform="translate(15.531 36.015)" fill="#fff"/>
    <g id="Group_219" data-name="Group 219" transform="translate(19.077 39.754)" opacity="0.4">
      <path id="Path_701" data-name="Path 701" d="M174.24,233.09h.337v2.887h1.778v.292H174.24Z" transform="translate(-174.24 -233.09)" fill="#263238"/>
      <path id="Path_702" data-name="Path 702" d="M181.121,235.575v1.486h-.307v-.371a.911.911,0,0,1-.822.4c-.54,0-.872-.282-.872-.7s.233-.674.921-.674h.758v-.144c0-.411-.233-.634-.679-.634a1.208,1.208,0,0,0-.792.282l-.149-.243a1.54,1.54,0,0,1,.991-.322.852.852,0,0,1,.951.921Zm-.322.763v-.391h-.748c-.466,0-.614.183-.614.431s.223.446.6.446a.763.763,0,0,0,.758-.485Z" transform="translate(-176.703 -233.876)" fill="#263238"/>
      <path id="Path_703" data-name="Path 703" d="M184.26,236.824l.144-.253a1.486,1.486,0,0,0,.852.267c.456,0,.639-.154.639-.391,0-.624-1.545-.134-1.545-1.075,0-.391.332-.683.941-.683a1.639,1.639,0,0,1,.847.223l-.144.258a1.228,1.228,0,0,0-.7-.2c-.431,0-.619.168-.619.4,0,.644,1.545.159,1.545,1.075,0,.416-.362.683-.991.683A1.6,1.6,0,0,1,184.26,236.824Z" transform="translate(-179.298 -233.897)" fill="#263238"/>
      <path id="Path_704" data-name="Path 704" d="M190.344,236.4a.778.778,0,0,1-.5.168.634.634,0,0,1-.7-.7v-1.441h-.431v-.272h.431v-.525h.322v.525h.723v.272h-.723v1.426a.381.381,0,0,0,.411.436.53.53,0,0,0,.357-.124Z" transform="translate(-181.549 -233.363)" fill="#263238"/>
      <path id="Path_705" data-name="Path 705" d="M198.295,233.09v3.18h-.277l-2.04-2.58v2.58h-.337v-3.18h.277l2.045,2.58v-2.58Z" transform="translate(-185.042 -233.09)" fill="#263238"/>
      <path id="Path_706" data-name="Path 706" d="M204.591,235.575v1.486h-.317v-.371a.9.9,0,0,1-.822.4c-.54,0-.872-.282-.872-.7s.238-.674.926-.674h.768v-.144c0-.411-.233-.634-.678-.634a1.208,1.208,0,0,0-.792.282l-.149-.243a1.525,1.525,0,0,1,.991-.322.852.852,0,0,1,.946.921Zm-.322.763v-.391h-.753c-.461,0-.609.183-.609.431s.223.446.6.446a.763.763,0,0,0,.763-.485Z" transform="translate(-188.545 -233.877)" fill="#263238"/>
      <path id="Path_707" data-name="Path 707" d="M212.352,235.666v1.387h-.322V235.7c0-.5-.258-.763-.688-.763a.768.768,0,0,0-.8.862v1.253h-.322V235.7c0-.5-.258-.763-.693-.763a.768.768,0,0,0-.8.862v1.253h-.322v-2.387h.292v.436a.991.991,0,0,1,.877-.456.862.862,0,0,1,.852.5,1.04,1.04,0,0,1,.941-.5.9.9,0,0,1,.981,1.02Z" transform="translate(-191.487 -233.873)" fill="#263238"/>
      <path id="Path_708" data-name="Path 708" d="M220.011,235.962H218.03a.886.886,0,0,0,.941.832.946.946,0,0,0,.733-.312l.178.208a1.263,1.263,0,0,1-2.174-.827,1.154,1.154,0,0,1,1.169-1.213,1.139,1.139,0,0,1,1.159,1.213A.174.174,0,0,0,220.011,235.962Zm-1.981-.238h1.694a.847.847,0,1,0-1.694,0Z" transform="translate(-196.18 -233.877)" fill="#263238"/>
    </g>
    <rect id="Rectangle_881" data-name="Rectangle 881" width="64.799" height="11.094" transform="translate(15.531 20.86)" fill="#fff"/>
    <g id="Group_220" data-name="Group 220" transform="translate(19.077 24.391)" opacity="0.4">
      <path id="Path_709" data-name="Path 709" d="M174.577,202.782v1.248h1.644v.292h-1.644v1.347h-.337v-3.18h2.179v.292Z" transform="translate(-174.24 -202.282)" fill="#263238"/>
      <path id="Path_710" data-name="Path 710" d="M179.67,202.313a.238.238,0,1,1,.233.233A.233.233,0,0,1,179.67,202.313Zm.069.758h.322v2.387h-.322Z" transform="translate(-176.981 -202.07)" fill="#263238"/>
      <path id="Path_711" data-name="Path 711" d="M183.483,204.044v.312H183.4a.773.773,0,0,0-.8.882v1.218h-.322v-2.387h.307v.446A.906.906,0,0,1,183.483,204.044Z" transform="translate(-178.298 -203.064)" fill="#263238"/>
      <path id="Path_712" data-name="Path 712" d="M185.25,206.184l.144-.258a1.431,1.431,0,0,0,.852.272c.456,0,.639-.158.639-.391,0-.624-1.545-.134-1.545-1.08,0-.386.332-.678.941-.678a1.59,1.59,0,0,1,.847.223l-.144.258a1.228,1.228,0,0,0-.7-.2c-.431,0-.619.168-.619.4,0,.644,1.545.158,1.545,1.075,0,.411-.362.678-.991.678A1.6,1.6,0,0,1,185.25,206.184Z" transform="translate(-179.797 -203.069)" fill="#263238"/>
      <path id="Path_713" data-name="Path 713" d="M191.344,205.783a.8.8,0,0,1-.5.163.629.629,0,0,1-.7-.693v-1.441h-.431v-.272h.431V203h.322v.525h.723v.272h-.723v1.421a.386.386,0,0,0,.411.441.555.555,0,0,0,.357-.124Z" transform="translate(-182.054 -202.539)" fill="#263238"/>
      <path id="Path_714" data-name="Path 714" d="M199.295,202.49v3.18h-.277l-2.04-2.58v2.58h-.337v-3.18h.277l2.045,2.58v-2.58Z" transform="translate(-185.546 -202.282)" fill="#263238"/>
      <path id="Path_715" data-name="Path 715" d="M205.586,204.975v1.486h-.312v-.371a.891.891,0,0,1-.817.391c-.545,0-.877-.277-.877-.693s.238-.674.926-.674h.768v-.149c0-.406-.233-.629-.678-.629a1.208,1.208,0,0,0-.792.282l-.149-.243a1.53,1.53,0,0,1,.991-.322.847.847,0,0,1,.941.921Zm-.322.763v-.391h-.753c-.461,0-.609.183-.609.426s.223.451.6.451a.768.768,0,0,0,.768-.485Z" transform="translate(-189.049 -203.069)" fill="#263238"/>
      <path id="Path_716" data-name="Path 716" d="M213.342,205.082v1.387h-.322v-1.352c0-.5-.258-.763-.688-.763a.768.768,0,0,0-.8.862v1.253h-.322v-1.352c0-.5-.258-.763-.693-.763a.768.768,0,0,0-.8.862v1.253H209.4v-2.387h.3v.451a.991.991,0,0,1,.877-.456.862.862,0,0,1,.852.5,1.03,1.03,0,0,1,.941-.5.9.9,0,0,1,.976,1.005Z" transform="translate(-191.987 -203.081)" fill="#263238"/>
      <path id="Path_717" data-name="Path 717" d="M221,205.362H219.02a.886.886,0,0,0,.941.832.936.936,0,0,0,.733-.317l.178.213a1.263,1.263,0,0,1-2.174-.827,1.154,1.154,0,0,1,1.169-1.213,1.139,1.139,0,0,1,1.159,1.213A.156.156,0,0,0,221,205.362Zm-1.981-.243h1.694a.847.847,0,0,0-1.694,0Z" transform="translate(-196.68 -203.069)" fill="#263238"/>
    </g>
  </g>
  <g id="freepik--Plant--inject-20" transform="translate(43.409 130.642)">
    <path id="Path_718" data-name="Path 718" d="M117.37,363.791h-.47c0-.7.579-17.061,3.427-19.81,2.927-2.848,6.369-.04,6.4,0l-.3.357c-.129-.1-3.155-2.56-5.78,0C117.94,346.918,117.375,363.623,117.37,363.791Z" transform="translate(-102.414 -330.861)" fill="#6ca2fe"/>
    <path id="Path_719" data-name="Path 719" d="M111.51,362.963l-.466-.045c0-.2,1.842-19.869-5.284-28.051l.352-.307C113.372,342.9,111.53,362.765,111.51,362.963Z" transform="translate(-96.791 -326.749)" fill="#6ca2fe"/>
    <path id="Path_720" data-name="Path 720" d="M117.631,359.3c-.059-.931-1.431-22.782,4.046-27.833l.317.347c-5.314,4.883-3.912,27.239-3.9,27.452Z" transform="translate(-102.684 -325.19)" fill="#6ca2fe"/>
    <path id="Path_721" data-name="Path 721" d="M105.936,369.346c0-.149-.168-14.858-4.066-17.071a2.476,2.476,0,0,0-2.268-.238c-2.283.946-3.5,5.3-3.511,5.349l-.451-.124c.05-.188,1.288-4.621,3.784-5.656a2.917,2.917,0,0,1,2.679.262c4.125,2.362,4.3,16.839,4.3,17.473Z" transform="translate(-91.683 -335.247)" fill="#6ca2fe"/>
    <path id="Path_722" data-name="Path 722" d="M119.6,370.047c-.03-.5-.629-11.609,2.526-15.734a3.236,3.236,0,0,1,2.783-1.54c2.243.154,3.962,3.194,4.056,3.323l-.406.233c0-.03-1.694-2.971-3.685-3.09A2.8,2.8,0,0,0,122.5,354.6c-3.051,3.962-2.437,15.308-2.432,15.422Z" transform="translate(-103.747 -335.939)" fill="#6ca2fe"/>
    <path id="Path_723" data-name="Path 723" d="M116.613,358.622l-.466-.035c0-.267,1.981-26.8-1.288-31.231l.376-.277C118.614,331.646,116.7,357.523,116.613,358.622Z" transform="translate(-101.384 -322.974)" fill="#6ca2fe"/>
    <path id="Path_724" data-name="Path 724" d="M94.484,355.485s2.021.748,1.421,2.506-7,4.655-7,4.655-2.679-2.452-.218-6.438S94.43,354.227,94.484,355.485Z" transform="translate(-87.65 -336.487)" fill="#6ca2fe"/>
    <path id="Path_725" data-name="Path 725" d="M94.484,355.485s2.021.748,1.421,2.506-7,4.655-7,4.655-2.679-2.452-.218-6.438S94.43,354.227,94.484,355.485Z" transform="translate(-87.65 -336.487)" opacity="0.2"/>
    <path id="Path_726" data-name="Path 726" d="M116.876,349.562s-2.154-.089-2.278,1.763,4.655,6.993,4.655,6.993,3.417-1.238,2.684-5.869S117.411,348.418,116.876,349.562Z" transform="translate(-101.25 -333.912)" fill="#6ca2fe"/>
    <path id="Path_727" data-name="Path 727" d="M116.876,349.562s-2.154-.089-2.278,1.763,4.655,6.993,4.655,6.993,3.417-1.238,2.684-5.869S117.411,348.418,116.876,349.562Z" transform="translate(-101.25 -333.912)" opacity="0.2"/>
    <path id="Path_728" data-name="Path 728" d="M121.526,329.881s-1.436-.154-1.322-1.025,5.581-3.125,8.806.5c0,0-2.065,3.546-5.047,3.6S121.526,329.881,121.526,329.881Z" transform="translate(-104.078 -323.115)" fill="#6ca2fe"/>
    <path id="Path_729" data-name="Path 729" d="M121.526,329.881s-1.436-.154-1.322-1.025,5.581-3.125,8.806.5c0,0-2.065,3.546-5.047,3.6S121.526,329.881,121.526,329.881Z" transform="translate(-104.078 -323.115)" opacity="0.2"/>
    <path id="Path_730" data-name="Path 730" d="M111.281,323.43s1.3.629,1.664-.173-3.085-5.6-7.746-4.22c0,0-.124,4.1,2.382,5.72S111.281,323.43,111.281,323.43Z" transform="translate(-96.507 -318.789)" fill="#6ca2fe"/>
    <path id="Path_731" data-name="Path 731" d="M111.281,323.43s1.3.629,1.664-.173-3.085-5.6-7.746-4.22c0,0-.124,4.1,2.382,5.72S111.281,323.43,111.281,323.43Z" transform="translate(-96.507 -318.789)" opacity="0.2"/>
    <path id="Path_732" data-name="Path 732" d="M130.518,354.373s-.991-.8.079-1.194,6.314-.277,6.369,4.918c0,0-6.111,1.015-6.864-.966S130.518,354.373,130.518,354.373Z" transform="translate(-108.95 -336.078)" fill="#6ca2fe"/>
    <path id="Path_733" data-name="Path 733" d="M130.518,354.373s-.991-.8.079-1.194,6.314-.277,6.369,4.918c0,0-6.111,1.015-6.864-.966S130.518,354.373,130.518,354.373Z" transform="translate(-108.95 -336.078)" opacity="0.2"/>
    <path id="Path_734" data-name="Path 734" d="M99.428,330.84s.991-.8-.079-1.189-6.314-.282-6.369,4.913c0,0,6.111,1.02,6.864-.961S99.428,330.84,99.428,330.84Z" transform="translate(-90.34 -324.203)" fill="#6ca2fe"/>
    <path id="Path_735" data-name="Path 735" d="M99.428,330.84s.991-.8-.079-1.189-6.314-.282-6.369,4.913c0,0,6.111,1.02,6.864-.961S99.428,330.84,99.428,330.84Z" transform="translate(-90.34 -324.203)" opacity="0.2"/>
    <path id="Path_736" data-name="Path 736" d="M109.87,339.942s.089-.99-.7-.589-3.516,3.333-.683,6.131c0,0,3.818-2.828,3.13-4.3S109.87,339.942,109.87,339.942Z" transform="translate(-97.534 -329.12)" fill="#6ca2fe"/>
    <path id="Path_737" data-name="Path 737" d="M109.87,339.942s.089-.99-.7-.589-3.516,3.333-.683,6.131c0,0,3.818-2.828,3.13-4.3S109.87,339.942,109.87,339.942Z" transform="translate(-97.534 -329.12)" opacity="0.2"/>
    <path id="Path_738" data-name="Path 738" d="M132.127,342.546s-.594-.778.277-.872,4.754.941,3.848,4.824c0,0-4.735-.357-4.953-1.981S132.127,342.546,132.127,342.546Z" transform="translate(-109.667 -330.337)" fill="#6ca2fe"/>
    <path id="Path_739" data-name="Path 739" d="M132.127,342.546s-.594-.778.277-.872,4.754.941,3.848,4.824c0,0-4.735-.357-4.953-1.981S132.127,342.546,132.127,342.546Z" transform="translate(-109.667 -330.337)" opacity="0.2"/>
    <path id="Path_740" data-name="Path 740" d="M100.085,401.547h15.308l2.035-14.887H98.05Z" transform="translate(-92.899 -353.047)" fill="#263238"/>
    <path id="Path_741" data-name="Path 741" d="M100.085,401.547h15.308l2.035-14.887H98.05Z" transform="translate(-92.899 -353.047)" fill="#fff" opacity="0.2"/>
    <path id="Path_742" data-name="Path 742" d="M117.2,384.22v1.416a1.714,1.714,0,0,1-1.714,1.714H95.5a1.714,1.714,0,0,1-1.714-1.714V384.22Z" transform="translate(-90.749 -351.815)" fill="#263238"/>
  </g>
  <g id="freepik--speech-bubble--inject-20" transform="translate(178.81 21.944)">
    <path id="Path_743" data-name="Path 743" d="M379.657,99.31H365.428a4.378,4.378,0,0,0-4.378,4.378v12.381a4.378,4.378,0,0,0,4.378,4.383h4.155l-.99,3.908,3.962-3.908h7.127a4.383,4.383,0,0,0,4.383-4.383V103.688a4.378,4.378,0,0,0-4.408-4.378Z" transform="translate(-361.05 -99.31)" fill="#6ca2fe"/>
    <path id="Path_744" data-name="Path 744" d="M379.657,99.31H365.428a4.378,4.378,0,0,0-4.378,4.378v12.381a4.378,4.378,0,0,0,4.378,4.383h4.155l-.99,3.908,3.962-3.908h7.127a4.383,4.383,0,0,0,4.383-4.383V103.688a4.378,4.378,0,0,0-4.408-4.378Z" transform="translate(-361.05 -99.31)" fill="#fff" opacity="0.7"/>
    <ellipse id="Ellipse_74" data-name="Ellipse 74" cx="5.522" cy="5.522" rx="5.522" ry="5.522" transform="translate(5.973 4.997)" fill="#fff"/>
    <path id="Path_745" data-name="Path 745" d="M377.062,106.29a7.057,7.057,0,1,0,5,2.067,7.062,7.062,0,0,0-5-2.067Zm4.007,4.953-4.254,5.012a.634.634,0,0,1-.5.228.644.644,0,0,1-.5-.228l-2.768-3.264a.649.649,0,1,1,.991-.837l2.273,2.679,3.759-4.428a.649.649,0,0,1,.991.837Z" transform="translate(-365.568 -102.833)" fill="#6ca2fe"/>
  </g>
  <g id="freepik--Character--inject-20" transform="translate(144.376 45.858)">
    <path id="Path_746" data-name="Path 746" d="M369.629,226.576s-8.622-1.09-21.687,2.476c0,0-2.1-23.346-1.852-26.555s20.172-2.268,20.172-2.268a112.771,112.771,0,0,0,1.793,14.981C369.351,220.846,370.3,225.492,369.629,226.576Z" transform="translate(-319.054 -174.098)" fill="#6ca2fe"/>
    <path id="Path_747" data-name="Path 747" d="M369.629,226.576s-8.622-1.09-21.687,2.476c0,0-2.1-23.346-1.852-26.555s20.172-2.268,20.172-2.268a112.771,112.771,0,0,0,1.793,14.981C369.351,220.846,370.3,225.492,369.629,226.576Z" transform="translate(-319.054 -174.098)" opacity="0.2"/>
    <path id="Path_748" data-name="Path 748" d="M337.13,401.059l3.516,1,.837-5.473.451-2.927-3.516-1-.6,3.922Z" transform="translate(-314.542 -271.292)" fill="#e4897b"/>
    <path id="Path_749" data-name="Path 749" d="M377.95,401.539l3.625.48.035-5.245.025-3.259L378,393.04l-.025,3.734Z" transform="translate(-335.145 -271.484)" fill="#e4897b"/>
    <path id="Path_750" data-name="Path 750" d="M378.035,393.04l-.025,3.734h3.63l.025-3.259Z" transform="translate(-335.176 -271.484)" opacity="0.2"/>
    <path id="Path_751" data-name="Path 751" d="M338.52,396.582h3.665l.451-2.927-3.516-1Z" transform="translate(-315.243 -271.292)" opacity="0.2"/>
    <path id="Path_752" data-name="Path 752" d="M302.052,207.76l-3.492-1.03.639,3.987s3.17.728,3.467-.921Z" transform="translate(-295.073 -177.444)" fill="#e4897b"/>
    <path id="Path_753" data-name="Path 753" d="M291.52,207.656l1.714,3.239,2.412-.178-.639-3.987Z" transform="translate(-291.52 -177.444)" fill="#e4897b"/>
    <path id="Path_754" data-name="Path 754" d="M308.965,209.563l-5.735-1.283-.52,2.783,5.205,1.268Z" transform="translate(-297.168 -178.226)" fill="#e4897b"/>
    <path id="Path_755" data-name="Path 755" d="M328.338,199.44l-.337.4c-.723.847-2.476,2.892-4.3,4.655-1.486,1.436-2.971,2.689-3.962,2.942-2.808.723-13.015-2.283-13.015-2.283l1.055-4.14s9.509,1.263,10.247,1.263c.56,0,6.344-8.38,7.746-9.068Z" transform="translate(-299.192 -170.62)" fill="#6ca2fe"/>
    <path id="Path_756" data-name="Path 756" d="M345.3,203.511c-.723.847-2.476,2.892-4.3,4.655a14.541,14.541,0,0,1,2.833-7.25,2.617,2.617,0,0,1,.446-.436Z" transform="translate(-316.495 -174.289)" opacity="0.2"/>
    <path id="Path_757" data-name="Path 757" d="M328.823,408.4l3.992-.1a.317.317,0,0,1,.317.238l.842,3.214a.53.53,0,0,1-.5.664c-1.441,0-3.526,0-5.334.035-2.12.059-3.467-.045-5.943,0-1.486.04-1.981-1.456-1.347-1.609,2.838-.7,4.695-.565,7.112-2.149A1.729,1.729,0,0,1,328.823,408.4Z" transform="translate(-306.19 -279.186)" fill="#263238"/>
    <path id="Path_758" data-name="Path 758" d="M334.257,408.789h0c-.584.129-1.624.3-2.04-.04a.5.5,0,0,1-.178-.416.267.267,0,0,1,.134-.233c.441-.262,1.931.446,2.1.525a.094.094,0,0,1,.05.084A.084.084,0,0,1,334.257,408.789Zm-1.981-.55h-.03a.109.109,0,0,0-.054.094.322.322,0,0,0,.114.272,2.343,2.343,0,0,0,1.639.055,3.7,3.7,0,0,0-1.659-.421Z" transform="translate(-311.971 -279.056)" fill="#6ca2fe"/>
    <path id="Path_759" data-name="Path 759" d="M335.13,407.9h-.059c-.451-.188-1.352-.951-1.3-1.362,0-.1.079-.223.317-.253a.669.669,0,0,1,.5.134,2.409,2.409,0,0,1,.619,1.387.089.089,0,0,1-.035.079Zm-1.109-1.421c-.074.025-.079.064-.079.079-.03.248.584.852,1.045,1.109a1.981,1.981,0,0,0-.525-1.109.446.446,0,0,0-.357-.1.3.3,0,0,0-.084.02Z" transform="translate(-312.844 -278.166)" fill="#6ca2fe"/>
    <path id="Path_760" data-name="Path 760" d="M369.838,408.4l3.992-.1a.322.322,0,0,1,.322.238l.837,3.214a.525.525,0,0,1-.5.664c-1.441,0-3.526,0-5.339.035-2.115.059-3.467-.045-5.943,0-1.486.04-1.981-1.456-1.347-1.61,2.838-.7,4.69-.565,7.107-2.149A1.728,1.728,0,0,1,369.838,408.4Z" transform="translate(-326.89 -279.186)" fill="#263238"/>
    <path id="Path_761" data-name="Path 761" d="M375.287,408.789h0c-.584.129-1.629.3-2.04-.04a.5.5,0,0,1-.178-.416.267.267,0,0,1,.134-.233c.436-.262,1.931.446,2.1.525a.079.079,0,0,1,.049.084.089.089,0,0,1-.064.079Zm-1.981-.55h-.03a.1.1,0,0,0-.049.094.312.312,0,0,0,.114.272,2.339,2.339,0,0,0,1.639.055,3.758,3.758,0,0,0-1.669-.421Z" transform="translate(-332.681 -279.056)" fill="#6ca2fe"/>
    <path id="Path_762" data-name="Path 762" d="M376.16,407.9H376.1c-.446-.188-1.352-.951-1.3-1.362,0-.1.074-.223.312-.253a.659.659,0,0,1,.5.134,2.476,2.476,0,0,1,.619,1.387.079.079,0,0,1-.035.079Zm-1.114-1.421c-.069.025-.074.064-.074.079-.035.248.584.852,1.045,1.109a2.035,2.035,0,0,0-.525-1.109.45.45,0,0,0-.357-.1Z" transform="translate(-333.553 -278.165)" fill="#6ca2fe"/>
    <path id="Path_763" data-name="Path 763" d="M365.218,249.26c1.922,8.325-1.377,73.822-1.377,73.822h-6.369L354.749,268.5,344.72,323.082l-6.81-.5c4.457-42.285,8.385-67.527,8.385-67.527V251.87Z" transform="translate(-314.935 -198.911)" fill="#263238"/>
    <path id="Path_764" data-name="Path 764" d="M337.91,322.587l6.81.5,7.894-42.968,2.135-11.614,2.724,54.582h6.369s3.3-65.5,1.377-73.822l-18.933,2.61v3.189S342.362,280.3,337.91,322.587Z" transform="translate(-314.935 -198.911)" fill="#fff" opacity="0.4"/>
    <path id="Path_765" data-name="Path 765" d="M365.446,186.922a80.41,80.41,0,0,0,.3,11.936c.267,2.773.634,5.393,1.025,7.756.916,5.542,1.956,9.7,2.1,11.148l-18.933,2.61c-6.9-19.315-4.3-30.537-4.3-30.537a37.057,37.057,0,0,1,4.343-1.486c.312-.084.629-.163.956-.238A70.925,70.925,0,0,1,358.988,187c.5-.045,1.035-.079,1.54-.1A48.065,48.065,0,0,1,365.446,186.922Z" transform="translate(-318.595 -167.407)" fill="#263238"/>
    <path id="Path_766" data-name="Path 766" d="M361.776,169.45c.139,2.65.421,7.622,2.625,8.885a5.817,5.817,0,0,1-4.338,2.877,1.822,1.822,0,0,1-2.095-2.016c1.3-.966.991-2.6,0-4.457Z" transform="translate(-325.058 -158.627)" fill="#e4897b"/>
    <path id="Path_767" data-name="Path 767" d="M360.238,173.81,358,176.94a8.617,8.617,0,0,1,.594,1.337,3.565,3.565,0,0,0,2.06-3.115,3.863,3.863,0,0,0-.416-1.352Z" transform="translate(-325.076 -160.827)" opacity="0.2"/>
    <path id="Path_768" data-name="Path 768" d="M345.974,158.014c-.431,1.377-.193,4.2,1.723,3.284S346.716,155.651,345.974,158.014Z" transform="translate(-318.913 -152.524)" fill="#263238"/>
    <path id="Path_769" data-name="Path 769" d="M356.04,157.711c.213,3.531.5,5.586-1.045,7.587-2.343,3.006-6.879,1.887-8.147-1.52-1.139-3.071-1.293-8.33,1.981-10.113a4.883,4.883,0,0,1,7.211,4.046Z" transform="translate(-319.074 -150.36)" fill="#e4897b"/>
    <path id="Path_770" data-name="Path 770" d="M361.16,154.506v-3.962s4.2-.312,4.012,1.837c2.328,1.154,1.228,4.774-1.9,6.547-1.714-1.372-1.516-4.67-1.516-4.67A5.05,5.05,0,0,1,361.16,154.506Z" transform="translate(-326.671 -149.076)" fill="#263238"/>
    <path id="Path_771" data-name="Path 771" d="M366.252,166.063a3.294,3.294,0,0,1-1.411,2.135c-.991.649-1.847-.149-1.882-1.263-.03-.99.441-2.555,1.58-2.754a1.525,1.525,0,0,1,1.714,1.882Z" transform="translate(-327.578 -155.958)" fill="#e4897b"/>
    <path id="Path_772" data-name="Path 772" d="M354.933,165.114c.035.287-.089.535-.277.555s-.366-.193-.4-.5.089-.535.272-.555S354.9,164.807,354.933,165.114Z" transform="translate(-323.182 -156.188)" fill="#263238"/>
    <path id="Path_773" data-name="Path 773" d="M348.393,165.844c.035.287-.089.535-.277.555s-.367-.193-.4-.5.089-.535.277-.555S348.348,165.557,348.393,165.844Z" transform="translate(-319.881 -156.556)" fill="#263238"/>
    <path id="Path_774" data-name="Path 774" d="M350.074,166.4a9.972,9.972,0,0,1-1.1,2.516,1.7,1.7,0,0,0,1.392.074Z" transform="translate(-320.518 -157.087)" fill="#de5753"/>
    <path id="Path_775" data-name="Path 775" d="M354.686,172.229a2.906,2.906,0,0,1-.371.069.084.084,0,1,1,0-.168,2.278,2.278,0,0,0,1.743-1.09.079.079,0,0,1,.109-.04.084.084,0,0,1,.04.114,2.333,2.333,0,0,1-1.52,1.114Z" transform="translate(-323.173 -159.405)" fill="#263238"/>
    <path id="Path_776" data-name="Path 776" d="M355.847,162.44a.178.178,0,0,1-.168-.05,1.372,1.372,0,0,0-1.144-.441.163.163,0,0,1-.2-.134.168.168,0,0,1,.134-.2,1.694,1.694,0,0,1,1.451.54.163.163,0,0,1,0,.238A.2.2,0,0,1,355.847,162.44Z" transform="translate(-323.225 -154.668)" fill="#263238"/>
    <path id="Path_777" data-name="Path 777" d="M345.784,163.1a.139.139,0,0,1-.1,0,.168.168,0,0,1-.1-.213,1.659,1.659,0,0,1,1.095-1.08.169.169,0,0,1,.084.327,1.292,1.292,0,0,0-.857.862.164.164,0,0,1-.119.1Z" transform="translate(-318.803 -154.765)" fill="#263238"/>
    <path id="Path_778" data-name="Path 778" d="M354.147,154.492a9.64,9.64,0,0,1-3.605-2.343s-2.248.589-2.709,1.486a1.119,1.119,0,0,1-.193-1.486s-1.684.357-2.016,1.486a1.416,1.416,0,0,1-.792-1.486,1.9,1.9,0,0,0-.99,1.486s-1.857-3.873,4.279-4.982a4.577,4.577,0,0,0-1.441-.243s4.284-1.728,7.676-.149S357.158,152.9,354.147,154.492Z" transform="translate(-317.796 -147.596)" fill="#263238"/>
    <path id="Path_779" data-name="Path 779" d="M386.344,220.844l-5.943.792s-2.452-17.131-3.531-22.663V187.167l3.105-.817,2.407.817a57.942,57.942,0,0,1,1.52,7.231c.292,1.852.555,3.833.787,5.839.322,2.734.589,5.517.817,8.122.357,4.2.594,7.924.723,10.2C386.3,219.983,386.344,220.844,386.344,220.844Z" transform="translate(-334.6 -167.157)" fill="#6ca2fe"/>
    <path id="Path_780" data-name="Path 780" d="M375.039,197.467s.5-8.335,3.105-12.634c0,0-.064-1.228-.584-1.426s-2.521.991-2.521.991-1.243-.852-1.515-.456S372.588,186.973,375.039,197.467Z" transform="translate(-332.765 -165.66)" fill="#6ca2fe"/>
    <path id="Path_781" data-name="Path 781" d="M375.039,197.467s.5-8.335,3.105-12.634c0,0-.064-1.228-.584-1.426s-2.521.991-2.521.991-1.243-.852-1.515-.456S372.588,186.973,375.039,197.467Z" transform="translate(-332.765 -165.66)" fill="#fff" opacity="0.7"/>
    <path id="Path_782" data-name="Path 782" d="M347.2,224.909l.678.5s-.991-5.522-.584-19.488c0-.674.045-1.322.069-1.941.5-11.817,2.338-13.966,2.476-14.095l-1.714.584-3.105,1.07C344.085,201.612,347.2,224.909,347.2,224.909Z" transform="translate(-318.436 -168.939)" fill="#6ca2fe"/>
    <path id="Path_783" data-name="Path 783" d="M348.817,200.971s-1.714-8.1-1.2-10.9,2.338-1.55,2.338-1.55,1.679-1.357,2.179.139C352.13,188.664,349.822,190.288,348.817,200.971Z" transform="translate(-319.785 -167.97)" fill="#6ca2fe"/>
    <path id="Path_784" data-name="Path 784" d="M348.817,200.971s-1.714-8.1-1.2-10.9,2.338-1.55,2.338-1.55,1.679-1.357,2.179.139C352.13,188.664,349.822,190.288,348.817,200.971Z" transform="translate(-319.785 -167.97)" fill="#fff" opacity="0.7"/>
    <path id="Path_785" data-name="Path 785" d="M389.712,208.4c-2.536-1.421-2.872-5.131-2.872-5.131.153-.059,1.094-.381,2.085-.708C389.217,204.412,389.48,206.393,389.712,208.4Z" transform="translate(-339.633 -175.339)" opacity="0.2"/>
    <path id="Path_786" data-name="Path 786" d="M367.3,293.46l2.135-11.614-.411-6.146S366.1,286.358,367.3,293.46Z" transform="translate(-329.625 -212.256)" opacity="0.2"/>
    <path id="Path_787" data-name="Path 787" d="M392.414,240.947c-1.595-.109-2.971-.213-2.971-.213l-.3-6.483a2.3,2.3,0,0,1,1.669-.307,18.236,18.236,0,0,0,.886-3.194C392.042,234.955,392.285,238.679,392.414,240.947Z" transform="translate(-340.794 -189.568)" opacity="0.2"/>
    <path id="Path_788" data-name="Path 788" d="M393.685,230.74l-3.105,4.987,2.456,1.411,2.917-4.492Z" transform="translate(-341.52 -189.563)" fill="#e4897b"/>
    <path id="Path_789" data-name="Path 789" d="M386.262,187.84c2.09.228,10.975,12.421,11.366,16.1s-5.22,10.019-5.22,10.019l-3.744-2.2s3.8-5.849,4-7.429-6.958-7.964-6.958-7.964a14.417,14.417,0,0,1-.882-4.586A4.9,4.9,0,0,1,386.262,187.84Z" transform="translate(-338.613 -167.909)" fill="#6ca2fe"/>
    <path id="Path_790" data-name="Path 790" d="M387.968,237.83s3.194.683,4.482,2.694c0,0-1.337,4.185-2.293,4.641a11.136,11.136,0,0,1-3.323.456A22.837,22.837,0,0,1,387.968,237.83Z" transform="translate(-339.627 -193.142)" fill="#6ca2fe"/>
  </g>
</svg>
