<svg xmlns="http://www.w3.org/2000/svg" width="155.849" height="165.464" viewBox="0 0 155.849 165.464">
  <g id="sucessfull_account_creation" data-name="sucessfull account creation" transform="translate(-123 -263.991)">
    <g id="Group_238" data-name="Group 238" transform="translate(-1.295 -19.745)">
      <g id="Group_237" data-name="Group 237" transform="translate(124.295 283.736)">
        <g id="Group_239" data-name="Group 239" transform="translate(0 0)">
          <path id="Path_1068" data-name="Path 1068" d="M150,3a3,3,0,1,1-3-3,3,3,0,0,1,3,3" transform="translate(-82.273)" fill="#6ca2fe"/>
          <path id="Path_1069" data-name="Path 1069" d="M150,375a3,3,0,1,1-3-3,3,3,0,0,1,3,3" transform="translate(-82.273 -212.537)" fill="#6ca2fe"/>
          <path id="Path_1070" data-name="Path 1070" d="M81,324a3,3,0,1,1-3-3,3,3,0,0,1,3,3" transform="translate(-42.851 -183.399)" fill="#6ca2fe"/>
          <path id="Path_1071" data-name="Path 1071" d="M20,261a3,3,0,1,1-3-3,3,3,0,0,1,3,3" transform="translate(-7.999 -147.405)" fill="#6ca2fe"/>
          <path id="Path_1072" data-name="Path 1072" d="M6,172a3,3,0,1,1-3-3,3,3,0,0,1,3,3" transform="translate(0 -96.556)" fill="#6ca2fe"/>
          <path id="Path_1073" data-name="Path 1073" d="M5.988,83.291a3,3,0,1,1-2.7-3.277,3,3,0,0,1,2.7,3.277" transform="translate(0 -45.707)" fill="#6ca2fe"/>
          <path id="Path_1074" data-name="Path 1074" d="M63.988,34.291a3,3,0,1,1-2.7-3.277,3,3,0,0,1,2.7,3.277" transform="translate(-33.138 -17.711)" fill="#6ca2fe"/>
          <path id="Path_1075" data-name="Path 1075" d="M213,324a3,3,0,1,0,3-3,3,3,0,0,0-3,3" transform="translate(-121.695 -183.399)" fill="#6ca2fe"/>
          <path id="Path_1076" data-name="Path 1076" d="M274,261a3,3,0,1,0,3-3,3,3,0,0,0-3,3" transform="translate(-156.546 -147.405)" fill="#6ca2fe"/>
          <path id="Path_1077" data-name="Path 1077" d="M288,172a3,3,0,1,0,3-3,3,3,0,0,0-3,3" transform="translate(-164.545 -96.556)" fill="#6ca2fe"/>
          <path id="Path_1078" data-name="Path 1078" d="M288.014,83.291a3,3,0,1,0,2.7-3.277,3,3,0,0,0-2.7,3.277" transform="translate(-164.545 -45.707)" fill="#6ca2fe"/>
          <path id="Path_1079" data-name="Path 1079" d="M230.014,34.291a3,3,0,1,0,2.7-3.277,3,3,0,0,0-2.7,3.277" transform="translate(-131.407 -17.711)" fill="#6ca2fe"/>
        </g>
      </g>
      <g id="freepik--Shield--inject-18" transform="translate(139.481 301.197)">
        <path id="Path_1057" data-name="Path 1057" d="M386.006,205.409,345.546,190.88l-40.011,14.338c-5.11,2.406-9.595,3.86-9.595,8.616v23.729a89.7,89.7,0,0,0,13.142,47.255,82.239,82.239,0,0,0,36.858,32.55c16.309-5.314,28.54-19.5,36.083-31.625a89.7,89.7,0,0,0,13.21-47.255V217.151C395.234,210.355,391.619,207.039,386.006,205.409Z" transform="translate(-295.939 -190.826)" fill="#6ca2fe"/>
        <g id="Group_234" data-name="Group 234" transform="translate(0 0.109)" opacity="0.3">
          <path id="Path_1058" data-name="Path 1058" d="M345.94,303.546a65.233,65.233,0,0,1-29.152-25.958,70.969,70.969,0,0,1-10.451-37.361V223.646c0-3.778,2.283-7.312,6.8-9.418l32.427-12.123V190.92L305.535,205.2c-4.2,1.835-9.595,3.86-9.595,8.617V237.55A89.7,89.7,0,0,0,309.083,284.8a82.236,82.236,0,0,0,36.858,32.55Z" transform="translate(-295.939 -190.92)"/>
        </g>
        <g id="Group_235" data-name="Group 235" transform="translate(49.594 0)" opacity="0.4">
          <path id="Path_1059" data-name="Path 1059" d="M332.838,317.342a49.122,49.122,0,0,0,7.951-3.4,71.659,71.659,0,0,0,16.88-13.238,90.5,90.5,0,0,0,11.7-15.724,86.3,86.3,0,0,0,12.761-47.717V217.682c0-9.758-5.029-10.479-9.242-12.313L332.43,190.84v11.185l32.808,12.327c4.512,2.107,6.8,5.64,6.8,9.4v16.649a70.916,70.916,0,0,1-10.451,37.347,63.876,63.876,0,0,1-28.771,25.822Z" transform="translate(-332.43 -190.84)"/>
        </g>
        <path id="Path_1060" data-name="Path 1060" d="M347.212,230.043v-3.207a10.506,10.506,0,0,0-21.011,0V230.1a5.871,5.871,0,0,0-5,5.8v18.891a5.871,5.871,0,0,0,5.871,5.871H346.75a5.871,5.871,0,0,0,5.871-5.871V235.9A5.871,5.871,0,0,0,347.212,230.043Zm-7.651,20.033h-5.137l.8-3.71a3.112,3.112,0,1,1,3.4,0C338.977,247.752,339.561,250.076,339.561,250.076ZM345,230.016H328.471v-3.18a8.249,8.249,0,0,1,16.485,0Z" transform="translate(-286.869 -181.687)" fill="#fff" opacity="0.5"/>
        <path id="Path_1061" data-name="Path 1061" d="M308.675,231.893a12.227,12.227,0,0,1-.612-3.289,55.962,55.962,0,0,1-.326-8.059,43.793,43.793,0,0,1,.286-4.431,9.511,9.511,0,0,1,.91-3.574,3.994,3.994,0,0,1,1.767-1.781c.557-.258.9-.245.9-.2a4.526,4.526,0,0,0-2.215,2.2,9.948,9.948,0,0,0-.707,3.411c-.109,1.359-.191,2.84-.231,4.4-.095,3.112,0,5.939.122,7.991A21.274,21.274,0,0,1,308.675,231.893Z" transform="translate(-291.713 -183.769)" fill="#fff"/>
        <path id="Path_1062" data-name="Path 1062" d="M308.955,234.993c-.191,0-.367-.965-.394-2.174s.122-2.188.313-2.188.367.965.394,2.175S309.159,234.993,308.955,234.993Z" transform="translate(-291.408 -176.553)" fill="#fff"/>
      </g>
    </g>
    <path id="Path_1080" data-name="Path 1080" d="M72.234,49.944l29.727,28.865S131.687,27.11,174.769,6V41.081s-42.22,20.556-72.378,76.317L55,66.746Z" transform="translate(104.08 304.358)" fill="#fff"/>
  </g>
</svg>
